G04 #@! TF.GenerationSoftware,KiCad,Pcbnew,8.0.4*
G04 #@! TF.CreationDate,2024-08-27T21:07:45-03:00*
G04 #@! TF.ProjectId,memo,6d656d6f-2e6b-4696-9361-645f70636258,rev?*
G04 #@! TF.SameCoordinates,Original*
G04 #@! TF.FileFunction,Legend,Top*
G04 #@! TF.FilePolarity,Positive*
%FSLAX46Y46*%
G04 Gerber Fmt 4.6, Leading zero omitted, Abs format (unit mm)*
G04 Created by KiCad (PCBNEW 8.0.4) date 2024-08-27 21:07:45*
%MOMM*%
%LPD*%
G01*
G04 APERTURE LIST*
G04 Aperture macros list*
%AMRoundRect*
0 Rectangle with rounded corners*
0 $1 Rounding radius*
0 $2 $3 $4 $5 $6 $7 $8 $9 X,Y pos of 4 corners*
0 Add a 4 corners polygon primitive as box body*
4,1,4,$2,$3,$4,$5,$6,$7,$8,$9,$2,$3,0*
0 Add four circle primitives for the rounded corners*
1,1,$1+$1,$2,$3*
1,1,$1+$1,$4,$5*
1,1,$1+$1,$6,$7*
1,1,$1+$1,$8,$9*
0 Add four rect primitives between the rounded corners*
20,1,$1+$1,$2,$3,$4,$5,0*
20,1,$1+$1,$4,$5,$6,$7,0*
20,1,$1+$1,$6,$7,$8,$9,0*
20,1,$1+$1,$8,$9,$2,$3,0*%
%AMFreePoly0*
4,1,19,0.500000,-0.750000,0.000000,-0.750000,0.000000,-0.744911,-0.071157,-0.744911,-0.207708,-0.704816,-0.327430,-0.627875,-0.420627,-0.520320,-0.479746,-0.390866,-0.500000,-0.250000,-0.500000,0.250000,-0.479746,0.390866,-0.420627,0.520320,-0.327430,0.627875,-0.207708,0.704816,-0.071157,0.744911,0.000000,0.744911,0.000000,0.750000,0.500000,0.750000,0.500000,-0.750000,0.500000,-0.750000,
$1*%
%AMFreePoly1*
4,1,19,0.000000,0.744911,0.071157,0.744911,0.207708,0.704816,0.327430,0.627875,0.420627,0.520320,0.479746,0.390866,0.500000,0.250000,0.500000,-0.250000,0.479746,-0.390866,0.420627,-0.520320,0.327430,-0.627875,0.207708,-0.704816,0.071157,-0.744911,0.000000,-0.744911,0.000000,-0.750000,-0.500000,-0.750000,-0.500000,0.750000,0.000000,0.750000,0.000000,0.744911,0.000000,0.744911,
$1*%
G04 Aperture macros list end*
%ADD10C,0.152400*%
%ADD11C,0.116840*%
%ADD12C,0.150000*%
%ADD13C,0.120000*%
%ADD14C,0.200000*%
%ADD15C,0.250000*%
%ADD16C,0.100000*%
%ADD17RoundRect,0.140000X-0.140000X-0.170000X0.140000X-0.170000X0.140000X0.170000X-0.140000X0.170000X0*%
%ADD18FreePoly0,0.000000*%
%ADD19FreePoly1,0.000000*%
%ADD20RoundRect,0.140000X0.170000X-0.140000X0.170000X0.140000X-0.170000X0.140000X-0.170000X-0.140000X0*%
%ADD21R,1.000000X1.000000*%
%ADD22O,1.000000X1.000000*%
%ADD23RoundRect,0.225000X0.375000X-0.225000X0.375000X0.225000X-0.375000X0.225000X-0.375000X-0.225000X0*%
%ADD24RoundRect,0.135000X-0.185000X0.135000X-0.185000X-0.135000X0.185000X-0.135000X0.185000X0.135000X0*%
%ADD25RoundRect,0.225000X0.250000X-0.225000X0.250000X0.225000X-0.250000X0.225000X-0.250000X-0.225000X0*%
%ADD26R,0.500000X0.900000*%
%ADD27R,0.600000X1.200000*%
%ADD28RoundRect,0.135000X0.185000X-0.135000X0.185000X0.135000X-0.185000X0.135000X-0.185000X-0.135000X0*%
%ADD29R,0.800000X0.300000*%
%ADD30R,0.300000X0.800000*%
%ADD31R,3.750000X3.750000*%
%ADD32R,1.000000X1.150000*%
%ADD33RoundRect,0.225000X-0.225000X-0.375000X0.225000X-0.375000X0.225000X0.375000X-0.225000X0.375000X0*%
%ADD34RoundRect,0.085000X0.265000X0.085000X-0.265000X0.085000X-0.265000X-0.085000X0.265000X-0.085000X0*%
%ADD35R,0.980000X3.400000*%
%ADD36R,0.650000X1.050000*%
%ADD37RoundRect,0.140000X-0.170000X0.140000X-0.170000X-0.140000X0.170000X-0.140000X0.170000X0.140000X0*%
%ADD38RoundRect,0.147500X-0.147500X-0.172500X0.147500X-0.172500X0.147500X0.172500X-0.147500X0.172500X0*%
%ADD39RoundRect,0.062500X-0.062500X0.117500X-0.062500X-0.117500X0.062500X-0.117500X0.062500X0.117500X0*%
%ADD40RoundRect,0.140000X0.140000X0.170000X-0.140000X0.170000X-0.140000X-0.170000X0.140000X-0.170000X0*%
%ADD41RoundRect,0.135000X-0.135000X-0.185000X0.135000X-0.185000X0.135000X0.185000X-0.135000X0.185000X0*%
%ADD42R,0.300000X1.150000*%
%ADD43O,1.000000X2.100000*%
%ADD44O,1.000000X1.600000*%
%ADD45FreePoly0,180.000000*%
%ADD46FreePoly1,180.000000*%
%ADD47RoundRect,0.200000X0.275000X-0.200000X0.275000X0.200000X-0.275000X0.200000X-0.275000X-0.200000X0*%
%ADD48RoundRect,0.225000X-0.250000X0.225000X-0.250000X-0.225000X0.250000X-0.225000X0.250000X0.225000X0*%
%ADD49C,3.450000*%
%ADD50R,2.000000X2.000000*%
%ADD51C,2.000000*%
G04 #@! TA.AperFunction,Profile*
%ADD52C,0.100000*%
G04 #@! TD*
G04 APERTURE END LIST*
D10*
X153735691Y-92416032D02*
X153929215Y-92416032D01*
X153929215Y-92416032D02*
X154025977Y-92464413D01*
X154025977Y-92464413D02*
X154122739Y-92561175D01*
X154122739Y-92561175D02*
X154171120Y-92754699D01*
X154171120Y-92754699D02*
X154171120Y-93093366D01*
X154171120Y-93093366D02*
X154122739Y-93286890D01*
X154122739Y-93286890D02*
X154025977Y-93383652D01*
X154025977Y-93383652D02*
X153929215Y-93432032D01*
X153929215Y-93432032D02*
X153735691Y-93432032D01*
X153735691Y-93432032D02*
X153638929Y-93383652D01*
X153638929Y-93383652D02*
X153542167Y-93286890D01*
X153542167Y-93286890D02*
X153493786Y-93093366D01*
X153493786Y-93093366D02*
X153493786Y-92754699D01*
X153493786Y-92754699D02*
X153542167Y-92561175D01*
X153542167Y-92561175D02*
X153638929Y-92464413D01*
X153638929Y-92464413D02*
X153735691Y-92416032D01*
X154945215Y-92899842D02*
X154606548Y-92899842D01*
X154606548Y-93432032D02*
X154606548Y-92416032D01*
X154606548Y-92416032D02*
X155090358Y-92416032D01*
X155816072Y-92899842D02*
X155477405Y-92899842D01*
X155477405Y-93432032D02*
X155477405Y-92416032D01*
X155477405Y-92416032D02*
X155961215Y-92416032D01*
X156348262Y-93335271D02*
X156396643Y-93383652D01*
X156396643Y-93383652D02*
X156348262Y-93432032D01*
X156348262Y-93432032D02*
X156299881Y-93383652D01*
X156299881Y-93383652D02*
X156348262Y-93335271D01*
X156348262Y-93335271D02*
X156348262Y-93432032D01*
X156348262Y-92803080D02*
X156396643Y-92851461D01*
X156396643Y-92851461D02*
X156348262Y-92899842D01*
X156348262Y-92899842D02*
X156299881Y-92851461D01*
X156299881Y-92851461D02*
X156348262Y-92803080D01*
X156348262Y-92803080D02*
X156348262Y-92899842D01*
X158138358Y-93432032D02*
X157557786Y-93432032D01*
X157848072Y-93432032D02*
X157848072Y-92416032D01*
X157848072Y-92416032D02*
X157751310Y-92561175D01*
X157751310Y-92561175D02*
X157654548Y-92657937D01*
X157654548Y-92657937D02*
X157557786Y-92706318D01*
X158622167Y-93383652D02*
X158622167Y-93432032D01*
X158622167Y-93432032D02*
X158573786Y-93528794D01*
X158573786Y-93528794D02*
X158525405Y-93577175D01*
X159493025Y-92754699D02*
X159493025Y-93432032D01*
X159251120Y-92367652D02*
X159009215Y-93093366D01*
X159009215Y-93093366D02*
X159638168Y-93093366D01*
X160073596Y-93383652D02*
X160073596Y-93432032D01*
X160073596Y-93432032D02*
X160025215Y-93528794D01*
X160025215Y-93528794D02*
X159976834Y-93577175D01*
X160944454Y-92416032D02*
X160750930Y-92416032D01*
X160750930Y-92416032D02*
X160654168Y-92464413D01*
X160654168Y-92464413D02*
X160605787Y-92512794D01*
X160605787Y-92512794D02*
X160509025Y-92657937D01*
X160509025Y-92657937D02*
X160460644Y-92851461D01*
X160460644Y-92851461D02*
X160460644Y-93238509D01*
X160460644Y-93238509D02*
X160509025Y-93335271D01*
X160509025Y-93335271D02*
X160557406Y-93383652D01*
X160557406Y-93383652D02*
X160654168Y-93432032D01*
X160654168Y-93432032D02*
X160847692Y-93432032D01*
X160847692Y-93432032D02*
X160944454Y-93383652D01*
X160944454Y-93383652D02*
X160992835Y-93335271D01*
X160992835Y-93335271D02*
X161041216Y-93238509D01*
X161041216Y-93238509D02*
X161041216Y-92996604D01*
X161041216Y-92996604D02*
X160992835Y-92899842D01*
X160992835Y-92899842D02*
X160944454Y-92851461D01*
X160944454Y-92851461D02*
X160847692Y-92803080D01*
X160847692Y-92803080D02*
X160654168Y-92803080D01*
X160654168Y-92803080D02*
X160557406Y-92851461D01*
X160557406Y-92851461D02*
X160509025Y-92899842D01*
X160509025Y-92899842D02*
X160460644Y-92996604D01*
X161766930Y-93819080D02*
X161718549Y-93770699D01*
X161718549Y-93770699D02*
X161621787Y-93625556D01*
X161621787Y-93625556D02*
X161573406Y-93528794D01*
X161573406Y-93528794D02*
X161525025Y-93383652D01*
X161525025Y-93383652D02*
X161476644Y-93141747D01*
X161476644Y-93141747D02*
X161476644Y-92948223D01*
X161476644Y-92948223D02*
X161525025Y-92706318D01*
X161525025Y-92706318D02*
X161573406Y-92561175D01*
X161573406Y-92561175D02*
X161621787Y-92464413D01*
X161621787Y-92464413D02*
X161718549Y-92319271D01*
X161718549Y-92319271D02*
X161766930Y-92270890D01*
X162686168Y-93432032D02*
X162105596Y-93432032D01*
X162395882Y-93432032D02*
X162395882Y-92416032D01*
X162395882Y-92416032D02*
X162299120Y-92561175D01*
X162299120Y-92561175D02*
X162202358Y-92657937D01*
X162202358Y-92657937D02*
X162105596Y-92706318D01*
X163024834Y-93819080D02*
X163073215Y-93770699D01*
X163073215Y-93770699D02*
X163169977Y-93625556D01*
X163169977Y-93625556D02*
X163218358Y-93528794D01*
X163218358Y-93528794D02*
X163266739Y-93383652D01*
X163266739Y-93383652D02*
X163315120Y-93141747D01*
X163315120Y-93141747D02*
X163315120Y-92948223D01*
X163315120Y-92948223D02*
X163266739Y-92706318D01*
X163266739Y-92706318D02*
X163218358Y-92561175D01*
X163218358Y-92561175D02*
X163169977Y-92464413D01*
X163169977Y-92464413D02*
X163073215Y-92319271D01*
X163073215Y-92319271D02*
X163024834Y-92270890D01*
X164476262Y-92416032D02*
X165105215Y-92416032D01*
X165105215Y-92416032D02*
X164766548Y-92803080D01*
X164766548Y-92803080D02*
X164911691Y-92803080D01*
X164911691Y-92803080D02*
X165008453Y-92851461D01*
X165008453Y-92851461D02*
X165056834Y-92899842D01*
X165056834Y-92899842D02*
X165105215Y-92996604D01*
X165105215Y-92996604D02*
X165105215Y-93238509D01*
X165105215Y-93238509D02*
X165056834Y-93335271D01*
X165056834Y-93335271D02*
X165008453Y-93383652D01*
X165008453Y-93383652D02*
X164911691Y-93432032D01*
X164911691Y-93432032D02*
X164621405Y-93432032D01*
X164621405Y-93432032D02*
X164524643Y-93383652D01*
X164524643Y-93383652D02*
X164476262Y-93335271D01*
X165589024Y-93383652D02*
X165589024Y-93432032D01*
X165589024Y-93432032D02*
X165540643Y-93528794D01*
X165540643Y-93528794D02*
X165492262Y-93577175D01*
X166508263Y-92416032D02*
X166024453Y-92416032D01*
X166024453Y-92416032D02*
X165976072Y-92899842D01*
X165976072Y-92899842D02*
X166024453Y-92851461D01*
X166024453Y-92851461D02*
X166121215Y-92803080D01*
X166121215Y-92803080D02*
X166363120Y-92803080D01*
X166363120Y-92803080D02*
X166459882Y-92851461D01*
X166459882Y-92851461D02*
X166508263Y-92899842D01*
X166508263Y-92899842D02*
X166556644Y-92996604D01*
X166556644Y-92996604D02*
X166556644Y-93238509D01*
X166556644Y-93238509D02*
X166508263Y-93335271D01*
X166508263Y-93335271D02*
X166459882Y-93383652D01*
X166459882Y-93383652D02*
X166363120Y-93432032D01*
X166363120Y-93432032D02*
X166121215Y-93432032D01*
X166121215Y-93432032D02*
X166024453Y-93383652D01*
X166024453Y-93383652D02*
X165976072Y-93335271D01*
X167282358Y-93819080D02*
X167233977Y-93770699D01*
X167233977Y-93770699D02*
X167137215Y-93625556D01*
X167137215Y-93625556D02*
X167088834Y-93528794D01*
X167088834Y-93528794D02*
X167040453Y-93383652D01*
X167040453Y-93383652D02*
X166992072Y-93141747D01*
X166992072Y-93141747D02*
X166992072Y-92948223D01*
X166992072Y-92948223D02*
X167040453Y-92706318D01*
X167040453Y-92706318D02*
X167088834Y-92561175D01*
X167088834Y-92561175D02*
X167137215Y-92464413D01*
X167137215Y-92464413D02*
X167233977Y-92319271D01*
X167233977Y-92319271D02*
X167282358Y-92270890D01*
X167862929Y-92416032D02*
X167959691Y-92416032D01*
X167959691Y-92416032D02*
X168056453Y-92464413D01*
X168056453Y-92464413D02*
X168104834Y-92512794D01*
X168104834Y-92512794D02*
X168153215Y-92609556D01*
X168153215Y-92609556D02*
X168201596Y-92803080D01*
X168201596Y-92803080D02*
X168201596Y-93044985D01*
X168201596Y-93044985D02*
X168153215Y-93238509D01*
X168153215Y-93238509D02*
X168104834Y-93335271D01*
X168104834Y-93335271D02*
X168056453Y-93383652D01*
X168056453Y-93383652D02*
X167959691Y-93432032D01*
X167959691Y-93432032D02*
X167862929Y-93432032D01*
X167862929Y-93432032D02*
X167766167Y-93383652D01*
X167766167Y-93383652D02*
X167717786Y-93335271D01*
X167717786Y-93335271D02*
X167669405Y-93238509D01*
X167669405Y-93238509D02*
X167621024Y-93044985D01*
X167621024Y-93044985D02*
X167621024Y-92803080D01*
X167621024Y-92803080D02*
X167669405Y-92609556D01*
X167669405Y-92609556D02*
X167717786Y-92512794D01*
X167717786Y-92512794D02*
X167766167Y-92464413D01*
X167766167Y-92464413D02*
X167862929Y-92416032D01*
X168540262Y-93819080D02*
X168588643Y-93770699D01*
X168588643Y-93770699D02*
X168685405Y-93625556D01*
X168685405Y-93625556D02*
X168733786Y-93528794D01*
X168733786Y-93528794D02*
X168782167Y-93383652D01*
X168782167Y-93383652D02*
X168830548Y-93141747D01*
X168830548Y-93141747D02*
X168830548Y-92948223D01*
X168830548Y-92948223D02*
X168782167Y-92706318D01*
X168782167Y-92706318D02*
X168733786Y-92561175D01*
X168733786Y-92561175D02*
X168685405Y-92464413D01*
X168685405Y-92464413D02*
X168588643Y-92319271D01*
X168588643Y-92319271D02*
X168540262Y-92270890D01*
X153493786Y-95019355D02*
X153638929Y-95067735D01*
X153638929Y-95067735D02*
X153880834Y-95067735D01*
X153880834Y-95067735D02*
X153977596Y-95019355D01*
X153977596Y-95019355D02*
X154025977Y-94970974D01*
X154025977Y-94970974D02*
X154074358Y-94874212D01*
X154074358Y-94874212D02*
X154074358Y-94777450D01*
X154074358Y-94777450D02*
X154025977Y-94680688D01*
X154025977Y-94680688D02*
X153977596Y-94632307D01*
X153977596Y-94632307D02*
X153880834Y-94583926D01*
X153880834Y-94583926D02*
X153687310Y-94535545D01*
X153687310Y-94535545D02*
X153590548Y-94487164D01*
X153590548Y-94487164D02*
X153542167Y-94438783D01*
X153542167Y-94438783D02*
X153493786Y-94342021D01*
X153493786Y-94342021D02*
X153493786Y-94245259D01*
X153493786Y-94245259D02*
X153542167Y-94148497D01*
X153542167Y-94148497D02*
X153590548Y-94100116D01*
X153590548Y-94100116D02*
X153687310Y-94051735D01*
X153687310Y-94051735D02*
X153929215Y-94051735D01*
X153929215Y-94051735D02*
X154074358Y-94100116D01*
X154993596Y-95067735D02*
X154509786Y-95067735D01*
X154509786Y-95067735D02*
X154509786Y-94051735D01*
X155332262Y-95067735D02*
X155332262Y-94051735D01*
X155332262Y-94051735D02*
X155719310Y-94051735D01*
X155719310Y-94051735D02*
X155816072Y-94100116D01*
X155816072Y-94100116D02*
X155864453Y-94148497D01*
X155864453Y-94148497D02*
X155912834Y-94245259D01*
X155912834Y-94245259D02*
X155912834Y-94390402D01*
X155912834Y-94390402D02*
X155864453Y-94487164D01*
X155864453Y-94487164D02*
X155816072Y-94535545D01*
X155816072Y-94535545D02*
X155719310Y-94583926D01*
X155719310Y-94583926D02*
X155332262Y-94583926D01*
X156348262Y-94970974D02*
X156396643Y-95019355D01*
X156396643Y-95019355D02*
X156348262Y-95067735D01*
X156348262Y-95067735D02*
X156299881Y-95019355D01*
X156299881Y-95019355D02*
X156348262Y-94970974D01*
X156348262Y-94970974D02*
X156348262Y-95067735D01*
X156348262Y-94438783D02*
X156396643Y-94487164D01*
X156396643Y-94487164D02*
X156348262Y-94535545D01*
X156348262Y-94535545D02*
X156299881Y-94487164D01*
X156299881Y-94487164D02*
X156348262Y-94438783D01*
X156348262Y-94438783D02*
X156348262Y-94535545D01*
X158138358Y-95067735D02*
X157557786Y-95067735D01*
X157848072Y-95067735D02*
X157848072Y-94051735D01*
X157848072Y-94051735D02*
X157751310Y-94196878D01*
X157751310Y-94196878D02*
X157654548Y-94293640D01*
X157654548Y-94293640D02*
X157557786Y-94342021D01*
X158622167Y-95019355D02*
X158622167Y-95067735D01*
X158622167Y-95067735D02*
X158573786Y-95164497D01*
X158573786Y-95164497D02*
X158525405Y-95212878D01*
X159493025Y-94390402D02*
X159493025Y-95067735D01*
X159251120Y-94003355D02*
X159009215Y-94729069D01*
X159009215Y-94729069D02*
X159638168Y-94729069D01*
X160073596Y-95019355D02*
X160073596Y-95067735D01*
X160073596Y-95067735D02*
X160025215Y-95164497D01*
X160025215Y-95164497D02*
X159976834Y-95212878D01*
X160944454Y-94051735D02*
X160750930Y-94051735D01*
X160750930Y-94051735D02*
X160654168Y-94100116D01*
X160654168Y-94100116D02*
X160605787Y-94148497D01*
X160605787Y-94148497D02*
X160509025Y-94293640D01*
X160509025Y-94293640D02*
X160460644Y-94487164D01*
X160460644Y-94487164D02*
X160460644Y-94874212D01*
X160460644Y-94874212D02*
X160509025Y-94970974D01*
X160509025Y-94970974D02*
X160557406Y-95019355D01*
X160557406Y-95019355D02*
X160654168Y-95067735D01*
X160654168Y-95067735D02*
X160847692Y-95067735D01*
X160847692Y-95067735D02*
X160944454Y-95019355D01*
X160944454Y-95019355D02*
X160992835Y-94970974D01*
X160992835Y-94970974D02*
X161041216Y-94874212D01*
X161041216Y-94874212D02*
X161041216Y-94632307D01*
X161041216Y-94632307D02*
X160992835Y-94535545D01*
X160992835Y-94535545D02*
X160944454Y-94487164D01*
X160944454Y-94487164D02*
X160847692Y-94438783D01*
X160847692Y-94438783D02*
X160654168Y-94438783D01*
X160654168Y-94438783D02*
X160557406Y-94487164D01*
X160557406Y-94487164D02*
X160509025Y-94535545D01*
X160509025Y-94535545D02*
X160460644Y-94632307D01*
X161766930Y-95454783D02*
X161718549Y-95406402D01*
X161718549Y-95406402D02*
X161621787Y-95261259D01*
X161621787Y-95261259D02*
X161573406Y-95164497D01*
X161573406Y-95164497D02*
X161525025Y-95019355D01*
X161525025Y-95019355D02*
X161476644Y-94777450D01*
X161476644Y-94777450D02*
X161476644Y-94583926D01*
X161476644Y-94583926D02*
X161525025Y-94342021D01*
X161525025Y-94342021D02*
X161573406Y-94196878D01*
X161573406Y-94196878D02*
X161621787Y-94100116D01*
X161621787Y-94100116D02*
X161718549Y-93954974D01*
X161718549Y-93954974D02*
X161766930Y-93906593D01*
X162347501Y-94051735D02*
X162444263Y-94051735D01*
X162444263Y-94051735D02*
X162541025Y-94100116D01*
X162541025Y-94100116D02*
X162589406Y-94148497D01*
X162589406Y-94148497D02*
X162637787Y-94245259D01*
X162637787Y-94245259D02*
X162686168Y-94438783D01*
X162686168Y-94438783D02*
X162686168Y-94680688D01*
X162686168Y-94680688D02*
X162637787Y-94874212D01*
X162637787Y-94874212D02*
X162589406Y-94970974D01*
X162589406Y-94970974D02*
X162541025Y-95019355D01*
X162541025Y-95019355D02*
X162444263Y-95067735D01*
X162444263Y-95067735D02*
X162347501Y-95067735D01*
X162347501Y-95067735D02*
X162250739Y-95019355D01*
X162250739Y-95019355D02*
X162202358Y-94970974D01*
X162202358Y-94970974D02*
X162153977Y-94874212D01*
X162153977Y-94874212D02*
X162105596Y-94680688D01*
X162105596Y-94680688D02*
X162105596Y-94438783D01*
X162105596Y-94438783D02*
X162153977Y-94245259D01*
X162153977Y-94245259D02*
X162202358Y-94148497D01*
X162202358Y-94148497D02*
X162250739Y-94100116D01*
X162250739Y-94100116D02*
X162347501Y-94051735D01*
X163024834Y-95454783D02*
X163073215Y-95406402D01*
X163073215Y-95406402D02*
X163169977Y-95261259D01*
X163169977Y-95261259D02*
X163218358Y-95164497D01*
X163218358Y-95164497D02*
X163266739Y-95019355D01*
X163266739Y-95019355D02*
X163315120Y-94777450D01*
X163315120Y-94777450D02*
X163315120Y-94583926D01*
X163315120Y-94583926D02*
X163266739Y-94342021D01*
X163266739Y-94342021D02*
X163218358Y-94196878D01*
X163218358Y-94196878D02*
X163169977Y-94100116D01*
X163169977Y-94100116D02*
X163073215Y-93954974D01*
X163073215Y-93954974D02*
X163024834Y-93906593D01*
X164476262Y-94051735D02*
X165105215Y-94051735D01*
X165105215Y-94051735D02*
X164766548Y-94438783D01*
X164766548Y-94438783D02*
X164911691Y-94438783D01*
X164911691Y-94438783D02*
X165008453Y-94487164D01*
X165008453Y-94487164D02*
X165056834Y-94535545D01*
X165056834Y-94535545D02*
X165105215Y-94632307D01*
X165105215Y-94632307D02*
X165105215Y-94874212D01*
X165105215Y-94874212D02*
X165056834Y-94970974D01*
X165056834Y-94970974D02*
X165008453Y-95019355D01*
X165008453Y-95019355D02*
X164911691Y-95067735D01*
X164911691Y-95067735D02*
X164621405Y-95067735D01*
X164621405Y-95067735D02*
X164524643Y-95019355D01*
X164524643Y-95019355D02*
X164476262Y-94970974D01*
X165589024Y-95019355D02*
X165589024Y-95067735D01*
X165589024Y-95067735D02*
X165540643Y-95164497D01*
X165540643Y-95164497D02*
X165492262Y-95212878D01*
X166508263Y-94051735D02*
X166024453Y-94051735D01*
X166024453Y-94051735D02*
X165976072Y-94535545D01*
X165976072Y-94535545D02*
X166024453Y-94487164D01*
X166024453Y-94487164D02*
X166121215Y-94438783D01*
X166121215Y-94438783D02*
X166363120Y-94438783D01*
X166363120Y-94438783D02*
X166459882Y-94487164D01*
X166459882Y-94487164D02*
X166508263Y-94535545D01*
X166508263Y-94535545D02*
X166556644Y-94632307D01*
X166556644Y-94632307D02*
X166556644Y-94874212D01*
X166556644Y-94874212D02*
X166508263Y-94970974D01*
X166508263Y-94970974D02*
X166459882Y-95019355D01*
X166459882Y-95019355D02*
X166363120Y-95067735D01*
X166363120Y-95067735D02*
X166121215Y-95067735D01*
X166121215Y-95067735D02*
X166024453Y-95019355D01*
X166024453Y-95019355D02*
X165976072Y-94970974D01*
X167282358Y-95454783D02*
X167233977Y-95406402D01*
X167233977Y-95406402D02*
X167137215Y-95261259D01*
X167137215Y-95261259D02*
X167088834Y-95164497D01*
X167088834Y-95164497D02*
X167040453Y-95019355D01*
X167040453Y-95019355D02*
X166992072Y-94777450D01*
X166992072Y-94777450D02*
X166992072Y-94583926D01*
X166992072Y-94583926D02*
X167040453Y-94342021D01*
X167040453Y-94342021D02*
X167088834Y-94196878D01*
X167088834Y-94196878D02*
X167137215Y-94100116D01*
X167137215Y-94100116D02*
X167233977Y-93954974D01*
X167233977Y-93954974D02*
X167282358Y-93906593D01*
X168201596Y-95067735D02*
X167621024Y-95067735D01*
X167911310Y-95067735D02*
X167911310Y-94051735D01*
X167911310Y-94051735D02*
X167814548Y-94196878D01*
X167814548Y-94196878D02*
X167717786Y-94293640D01*
X167717786Y-94293640D02*
X167621024Y-94342021D01*
X168540262Y-95454783D02*
X168588643Y-95406402D01*
X168588643Y-95406402D02*
X168685405Y-95261259D01*
X168685405Y-95261259D02*
X168733786Y-95164497D01*
X168733786Y-95164497D02*
X168782167Y-95019355D01*
X168782167Y-95019355D02*
X168830548Y-94777450D01*
X168830548Y-94777450D02*
X168830548Y-94583926D01*
X168830548Y-94583926D02*
X168782167Y-94342021D01*
X168782167Y-94342021D02*
X168733786Y-94196878D01*
X168733786Y-94196878D02*
X168685405Y-94100116D01*
X168685405Y-94100116D02*
X168588643Y-93954974D01*
X168588643Y-93954974D02*
X168540262Y-93906593D01*
D11*
X152550000Y-71500000D02*
X152550000Y-96000000D01*
D12*
X123650000Y-83000000D02*
X124600000Y-81800000D01*
X111250000Y-79950000D02*
X112950000Y-80250000D01*
D10*
X122008691Y-91880688D02*
X122995663Y-91880688D01*
X122502177Y-92267735D02*
X122502177Y-91493640D01*
X124044320Y-91735545D02*
X124229377Y-91783926D01*
X124229377Y-91783926D02*
X124291063Y-91832307D01*
X124291063Y-91832307D02*
X124352749Y-91929069D01*
X124352749Y-91929069D02*
X124352749Y-92074212D01*
X124352749Y-92074212D02*
X124291063Y-92170974D01*
X124291063Y-92170974D02*
X124229377Y-92219355D01*
X124229377Y-92219355D02*
X124106006Y-92267735D01*
X124106006Y-92267735D02*
X123612520Y-92267735D01*
X123612520Y-92267735D02*
X123612520Y-91251735D01*
X123612520Y-91251735D02*
X124044320Y-91251735D01*
X124044320Y-91251735D02*
X124167692Y-91300116D01*
X124167692Y-91300116D02*
X124229377Y-91348497D01*
X124229377Y-91348497D02*
X124291063Y-91445259D01*
X124291063Y-91445259D02*
X124291063Y-91542021D01*
X124291063Y-91542021D02*
X124229377Y-91638783D01*
X124229377Y-91638783D02*
X124167692Y-91687164D01*
X124167692Y-91687164D02*
X124044320Y-91735545D01*
X124044320Y-91735545D02*
X123612520Y-91735545D01*
X125586463Y-91300116D02*
X125463092Y-91251735D01*
X125463092Y-91251735D02*
X125278034Y-91251735D01*
X125278034Y-91251735D02*
X125092977Y-91300116D01*
X125092977Y-91300116D02*
X124969606Y-91396878D01*
X124969606Y-91396878D02*
X124907920Y-91493640D01*
X124907920Y-91493640D02*
X124846234Y-91687164D01*
X124846234Y-91687164D02*
X124846234Y-91832307D01*
X124846234Y-91832307D02*
X124907920Y-92025831D01*
X124907920Y-92025831D02*
X124969606Y-92122593D01*
X124969606Y-92122593D02*
X125092977Y-92219355D01*
X125092977Y-92219355D02*
X125278034Y-92267735D01*
X125278034Y-92267735D02*
X125401406Y-92267735D01*
X125401406Y-92267735D02*
X125586463Y-92219355D01*
X125586463Y-92219355D02*
X125648149Y-92170974D01*
X125648149Y-92170974D02*
X125648149Y-91832307D01*
X125648149Y-91832307D02*
X125401406Y-91832307D01*
X126943549Y-92267735D02*
X126511749Y-91783926D01*
X126203320Y-92267735D02*
X126203320Y-91251735D01*
X126203320Y-91251735D02*
X126696806Y-91251735D01*
X126696806Y-91251735D02*
X126820177Y-91300116D01*
X126820177Y-91300116D02*
X126881863Y-91348497D01*
X126881863Y-91348497D02*
X126943549Y-91445259D01*
X126943549Y-91445259D02*
X126943549Y-91590402D01*
X126943549Y-91590402D02*
X126881863Y-91687164D01*
X126881863Y-91687164D02*
X126820177Y-91735545D01*
X126820177Y-91735545D02*
X126696806Y-91783926D01*
X126696806Y-91783926D02*
X126203320Y-91783926D01*
X127745463Y-91251735D02*
X127992206Y-91251735D01*
X127992206Y-91251735D02*
X128115577Y-91300116D01*
X128115577Y-91300116D02*
X128238949Y-91396878D01*
X128238949Y-91396878D02*
X128300634Y-91590402D01*
X128300634Y-91590402D02*
X128300634Y-91929069D01*
X128300634Y-91929069D02*
X128238949Y-92122593D01*
X128238949Y-92122593D02*
X128115577Y-92219355D01*
X128115577Y-92219355D02*
X127992206Y-92267735D01*
X127992206Y-92267735D02*
X127745463Y-92267735D01*
X127745463Y-92267735D02*
X127622092Y-92219355D01*
X127622092Y-92219355D02*
X127498720Y-92122593D01*
X127498720Y-92122593D02*
X127437034Y-91929069D01*
X127437034Y-91929069D02*
X127437034Y-91590402D01*
X127437034Y-91590402D02*
X127498720Y-91396878D01*
X127498720Y-91396878D02*
X127622092Y-91300116D01*
X127622092Y-91300116D02*
X127745463Y-91251735D01*
X128855806Y-92267735D02*
X128855806Y-91251735D01*
X126476053Y-74401735D02*
X127230796Y-74401735D01*
X126853424Y-75417735D02*
X126853424Y-74401735D01*
X128425806Y-75417735D02*
X127985539Y-74933926D01*
X127671063Y-75417735D02*
X127671063Y-74401735D01*
X127671063Y-74401735D02*
X128174225Y-74401735D01*
X128174225Y-74401735D02*
X128300015Y-74450116D01*
X128300015Y-74450116D02*
X128362910Y-74498497D01*
X128362910Y-74498497D02*
X128425806Y-74595259D01*
X128425806Y-74595259D02*
X128425806Y-74740402D01*
X128425806Y-74740402D02*
X128362910Y-74837164D01*
X128362910Y-74837164D02*
X128300015Y-74885545D01*
X128300015Y-74885545D02*
X128174225Y-74933926D01*
X128174225Y-74933926D02*
X127671063Y-74933926D01*
X129683710Y-74450116D02*
X129557920Y-74401735D01*
X129557920Y-74401735D02*
X129369234Y-74401735D01*
X129369234Y-74401735D02*
X129180548Y-74450116D01*
X129180548Y-74450116D02*
X129054758Y-74546878D01*
X129054758Y-74546878D02*
X128991863Y-74643640D01*
X128991863Y-74643640D02*
X128928967Y-74837164D01*
X128928967Y-74837164D02*
X128928967Y-74982307D01*
X128928967Y-74982307D02*
X128991863Y-75175831D01*
X128991863Y-75175831D02*
X129054758Y-75272593D01*
X129054758Y-75272593D02*
X129180548Y-75369355D01*
X129180548Y-75369355D02*
X129369234Y-75417735D01*
X129369234Y-75417735D02*
X129495025Y-75417735D01*
X129495025Y-75417735D02*
X129683710Y-75369355D01*
X129683710Y-75369355D02*
X129746606Y-75320974D01*
X129746606Y-75320974D02*
X129746606Y-74982307D01*
X129746606Y-74982307D02*
X129495025Y-74982307D01*
X130312663Y-75030688D02*
X131318987Y-75030688D01*
X130815825Y-75417735D02*
X130815825Y-74643640D01*
X155042167Y-73467735D02*
X155042167Y-72451735D01*
X155042167Y-72451735D02*
X155380834Y-73177450D01*
X155380834Y-73177450D02*
X155719501Y-72451735D01*
X155719501Y-72451735D02*
X155719501Y-73467735D01*
X156203310Y-72935545D02*
X156541977Y-72935545D01*
X156687120Y-73467735D02*
X156203310Y-73467735D01*
X156203310Y-73467735D02*
X156203310Y-72451735D01*
X156203310Y-72451735D02*
X156687120Y-72451735D01*
X157122548Y-73467735D02*
X157122548Y-72451735D01*
X157122548Y-72451735D02*
X157461215Y-73177450D01*
X157461215Y-73177450D02*
X157799882Y-72451735D01*
X157799882Y-72451735D02*
X157799882Y-73467735D01*
X158477215Y-72451735D02*
X158670739Y-72451735D01*
X158670739Y-72451735D02*
X158767501Y-72500116D01*
X158767501Y-72500116D02*
X158864263Y-72596878D01*
X158864263Y-72596878D02*
X158912644Y-72790402D01*
X158912644Y-72790402D02*
X158912644Y-73129069D01*
X158912644Y-73129069D02*
X158864263Y-73322593D01*
X158864263Y-73322593D02*
X158767501Y-73419355D01*
X158767501Y-73419355D02*
X158670739Y-73467735D01*
X158670739Y-73467735D02*
X158477215Y-73467735D01*
X158477215Y-73467735D02*
X158380453Y-73419355D01*
X158380453Y-73419355D02*
X158283691Y-73322593D01*
X158283691Y-73322593D02*
X158235310Y-73129069D01*
X158235310Y-73129069D02*
X158235310Y-72790402D01*
X158235310Y-72790402D02*
X158283691Y-72596878D01*
X158283691Y-72596878D02*
X158380453Y-72500116D01*
X158380453Y-72500116D02*
X158477215Y-72451735D01*
X159977024Y-72451735D02*
X160315691Y-73467735D01*
X160315691Y-73467735D02*
X160654358Y-72451735D01*
X161525215Y-73467735D02*
X160944643Y-73467735D01*
X161234929Y-73467735D02*
X161234929Y-72451735D01*
X161234929Y-72451735D02*
X161138167Y-72596878D01*
X161138167Y-72596878D02*
X161041405Y-72693640D01*
X161041405Y-72693640D02*
X160944643Y-72742021D01*
X161960643Y-73370974D02*
X162009024Y-73419355D01*
X162009024Y-73419355D02*
X161960643Y-73467735D01*
X161960643Y-73467735D02*
X161912262Y-73419355D01*
X161912262Y-73419355D02*
X161960643Y-73370974D01*
X161960643Y-73370974D02*
X161960643Y-73467735D01*
X162637977Y-72451735D02*
X162734739Y-72451735D01*
X162734739Y-72451735D02*
X162831501Y-72500116D01*
X162831501Y-72500116D02*
X162879882Y-72548497D01*
X162879882Y-72548497D02*
X162928263Y-72645259D01*
X162928263Y-72645259D02*
X162976644Y-72838783D01*
X162976644Y-72838783D02*
X162976644Y-73080688D01*
X162976644Y-73080688D02*
X162928263Y-73274212D01*
X162928263Y-73274212D02*
X162879882Y-73370974D01*
X162879882Y-73370974D02*
X162831501Y-73419355D01*
X162831501Y-73419355D02*
X162734739Y-73467735D01*
X162734739Y-73467735D02*
X162637977Y-73467735D01*
X162637977Y-73467735D02*
X162541215Y-73419355D01*
X162541215Y-73419355D02*
X162492834Y-73370974D01*
X162492834Y-73370974D02*
X162444453Y-73274212D01*
X162444453Y-73274212D02*
X162396072Y-73080688D01*
X162396072Y-73080688D02*
X162396072Y-72838783D01*
X162396072Y-72838783D02*
X162444453Y-72645259D01*
X162444453Y-72645259D02*
X162492834Y-72548497D01*
X162492834Y-72548497D02*
X162541215Y-72500116D01*
X162541215Y-72500116D02*
X162637977Y-72451735D01*
X164137787Y-72403355D02*
X163266929Y-73709640D01*
X164476453Y-72451735D02*
X164476453Y-73274212D01*
X164476453Y-73274212D02*
X164524834Y-73370974D01*
X164524834Y-73370974D02*
X164573215Y-73419355D01*
X164573215Y-73419355D02*
X164669977Y-73467735D01*
X164669977Y-73467735D02*
X164863501Y-73467735D01*
X164863501Y-73467735D02*
X164960263Y-73419355D01*
X164960263Y-73419355D02*
X165008644Y-73370974D01*
X165008644Y-73370974D02*
X165057025Y-73274212D01*
X165057025Y-73274212D02*
X165057025Y-72451735D01*
X165879501Y-72935545D02*
X165540834Y-72935545D01*
X165540834Y-73467735D02*
X165540834Y-72451735D01*
X165540834Y-72451735D02*
X166024644Y-72451735D01*
X166411691Y-72451735D02*
X166411691Y-73274212D01*
X166411691Y-73274212D02*
X166460072Y-73370974D01*
X166460072Y-73370974D02*
X166508453Y-73419355D01*
X166508453Y-73419355D02*
X166605215Y-73467735D01*
X166605215Y-73467735D02*
X166798739Y-73467735D01*
X166798739Y-73467735D02*
X166895501Y-73419355D01*
X166895501Y-73419355D02*
X166943882Y-73370974D01*
X166943882Y-73370974D02*
X166992263Y-73274212D01*
X166992263Y-73274212D02*
X166992263Y-72451735D01*
X168201787Y-72403355D02*
X167330929Y-73709640D01*
X168540453Y-73467735D02*
X168540453Y-72451735D01*
X168540453Y-72451735D02*
X168879120Y-73177450D01*
X168879120Y-73177450D02*
X169217787Y-72451735D01*
X169217787Y-72451735D02*
X169217787Y-73467735D01*
X170040263Y-72935545D02*
X170185406Y-72983926D01*
X170185406Y-72983926D02*
X170233787Y-73032307D01*
X170233787Y-73032307D02*
X170282168Y-73129069D01*
X170282168Y-73129069D02*
X170282168Y-73274212D01*
X170282168Y-73274212D02*
X170233787Y-73370974D01*
X170233787Y-73370974D02*
X170185406Y-73419355D01*
X170185406Y-73419355D02*
X170088644Y-73467735D01*
X170088644Y-73467735D02*
X169701596Y-73467735D01*
X169701596Y-73467735D02*
X169701596Y-72451735D01*
X169701596Y-72451735D02*
X170040263Y-72451735D01*
X170040263Y-72451735D02*
X170137025Y-72500116D01*
X170137025Y-72500116D02*
X170185406Y-72548497D01*
X170185406Y-72548497D02*
X170233787Y-72645259D01*
X170233787Y-72645259D02*
X170233787Y-72742021D01*
X170233787Y-72742021D02*
X170185406Y-72838783D01*
X170185406Y-72838783D02*
X170137025Y-72887164D01*
X170137025Y-72887164D02*
X170040263Y-72935545D01*
X170040263Y-72935545D02*
X169701596Y-72935545D01*
X170669215Y-73177450D02*
X171153025Y-73177450D01*
X170572453Y-73467735D02*
X170911120Y-72451735D01*
X170911120Y-72451735D02*
X171249787Y-73467735D01*
X151442167Y-77980688D02*
X152216263Y-77980688D01*
X151829215Y-78367735D02*
X151829215Y-77593640D01*
X107822739Y-90767735D02*
X107484072Y-90283926D01*
X107242167Y-90767735D02*
X107242167Y-89751735D01*
X107242167Y-89751735D02*
X107629215Y-89751735D01*
X107629215Y-89751735D02*
X107725977Y-89800116D01*
X107725977Y-89800116D02*
X107774358Y-89848497D01*
X107774358Y-89848497D02*
X107822739Y-89945259D01*
X107822739Y-89945259D02*
X107822739Y-90090402D01*
X107822739Y-90090402D02*
X107774358Y-90187164D01*
X107774358Y-90187164D02*
X107725977Y-90235545D01*
X107725977Y-90235545D02*
X107629215Y-90283926D01*
X107629215Y-90283926D02*
X107242167Y-90283926D01*
X108209786Y-90719355D02*
X108354929Y-90767735D01*
X108354929Y-90767735D02*
X108596834Y-90767735D01*
X108596834Y-90767735D02*
X108693596Y-90719355D01*
X108693596Y-90719355D02*
X108741977Y-90670974D01*
X108741977Y-90670974D02*
X108790358Y-90574212D01*
X108790358Y-90574212D02*
X108790358Y-90477450D01*
X108790358Y-90477450D02*
X108741977Y-90380688D01*
X108741977Y-90380688D02*
X108693596Y-90332307D01*
X108693596Y-90332307D02*
X108596834Y-90283926D01*
X108596834Y-90283926D02*
X108403310Y-90235545D01*
X108403310Y-90235545D02*
X108306548Y-90187164D01*
X108306548Y-90187164D02*
X108258167Y-90138783D01*
X108258167Y-90138783D02*
X108209786Y-90042021D01*
X108209786Y-90042021D02*
X108209786Y-89945259D01*
X108209786Y-89945259D02*
X108258167Y-89848497D01*
X108258167Y-89848497D02*
X108306548Y-89800116D01*
X108306548Y-89800116D02*
X108403310Y-89751735D01*
X108403310Y-89751735D02*
X108645215Y-89751735D01*
X108645215Y-89751735D02*
X108790358Y-89800116D01*
X109080643Y-89751735D02*
X109661215Y-89751735D01*
X109370929Y-90767735D02*
X109370929Y-89751735D01*
X151442167Y-89530688D02*
X152216263Y-89530688D01*
X120235545Y-95019165D02*
X120283926Y-94874022D01*
X120283926Y-94874022D02*
X120332307Y-94825641D01*
X120332307Y-94825641D02*
X120429069Y-94777260D01*
X120429069Y-94777260D02*
X120574212Y-94777260D01*
X120574212Y-94777260D02*
X120670974Y-94825641D01*
X120670974Y-94825641D02*
X120719355Y-94874022D01*
X120719355Y-94874022D02*
X120767735Y-94970784D01*
X120767735Y-94970784D02*
X120767735Y-95357832D01*
X120767735Y-95357832D02*
X119751735Y-95357832D01*
X119751735Y-95357832D02*
X119751735Y-95019165D01*
X119751735Y-95019165D02*
X119800116Y-94922403D01*
X119800116Y-94922403D02*
X119848497Y-94874022D01*
X119848497Y-94874022D02*
X119945259Y-94825641D01*
X119945259Y-94825641D02*
X120042021Y-94825641D01*
X120042021Y-94825641D02*
X120138783Y-94874022D01*
X120138783Y-94874022D02*
X120187164Y-94922403D01*
X120187164Y-94922403D02*
X120235545Y-95019165D01*
X120235545Y-95019165D02*
X120235545Y-95357832D01*
X119751735Y-94148308D02*
X119751735Y-93954784D01*
X119751735Y-93954784D02*
X119800116Y-93858022D01*
X119800116Y-93858022D02*
X119896878Y-93761260D01*
X119896878Y-93761260D02*
X120090402Y-93712879D01*
X120090402Y-93712879D02*
X120429069Y-93712879D01*
X120429069Y-93712879D02*
X120622593Y-93761260D01*
X120622593Y-93761260D02*
X120719355Y-93858022D01*
X120719355Y-93858022D02*
X120767735Y-93954784D01*
X120767735Y-93954784D02*
X120767735Y-94148308D01*
X120767735Y-94148308D02*
X120719355Y-94245070D01*
X120719355Y-94245070D02*
X120622593Y-94341832D01*
X120622593Y-94341832D02*
X120429069Y-94390213D01*
X120429069Y-94390213D02*
X120090402Y-94390213D01*
X120090402Y-94390213D02*
X119896878Y-94341832D01*
X119896878Y-94341832D02*
X119800116Y-94245070D01*
X119800116Y-94245070D02*
X119751735Y-94148308D01*
X119751735Y-93083927D02*
X119751735Y-92890403D01*
X119751735Y-92890403D02*
X119800116Y-92793641D01*
X119800116Y-92793641D02*
X119896878Y-92696879D01*
X119896878Y-92696879D02*
X120090402Y-92648498D01*
X120090402Y-92648498D02*
X120429069Y-92648498D01*
X120429069Y-92648498D02*
X120622593Y-92696879D01*
X120622593Y-92696879D02*
X120719355Y-92793641D01*
X120719355Y-92793641D02*
X120767735Y-92890403D01*
X120767735Y-92890403D02*
X120767735Y-93083927D01*
X120767735Y-93083927D02*
X120719355Y-93180689D01*
X120719355Y-93180689D02*
X120622593Y-93277451D01*
X120622593Y-93277451D02*
X120429069Y-93325832D01*
X120429069Y-93325832D02*
X120090402Y-93325832D01*
X120090402Y-93325832D02*
X119896878Y-93277451D01*
X119896878Y-93277451D02*
X119800116Y-93180689D01*
X119800116Y-93180689D02*
X119751735Y-93083927D01*
X119751735Y-92358213D02*
X119751735Y-91777641D01*
X120767735Y-92067927D02*
X119751735Y-92067927D01*
X125146857Y-81265334D02*
X125098476Y-81313715D01*
X125098476Y-81313715D02*
X124953333Y-81362095D01*
X124953333Y-81362095D02*
X124856571Y-81362095D01*
X124856571Y-81362095D02*
X124711428Y-81313715D01*
X124711428Y-81313715D02*
X124614666Y-81216953D01*
X124614666Y-81216953D02*
X124566285Y-81120191D01*
X124566285Y-81120191D02*
X124517904Y-80926667D01*
X124517904Y-80926667D02*
X124517904Y-80781524D01*
X124517904Y-80781524D02*
X124566285Y-80588000D01*
X124566285Y-80588000D02*
X124614666Y-80491238D01*
X124614666Y-80491238D02*
X124711428Y-80394476D01*
X124711428Y-80394476D02*
X124856571Y-80346095D01*
X124856571Y-80346095D02*
X124953333Y-80346095D01*
X124953333Y-80346095D02*
X125098476Y-80394476D01*
X125098476Y-80394476D02*
X125146857Y-80442857D01*
X126114476Y-81362095D02*
X125533904Y-81362095D01*
X125824190Y-81362095D02*
X125824190Y-80346095D01*
X125824190Y-80346095D02*
X125727428Y-80491238D01*
X125727428Y-80491238D02*
X125630666Y-80588000D01*
X125630666Y-80588000D02*
X125533904Y-80636381D01*
X127082095Y-81362095D02*
X126501523Y-81362095D01*
X126791809Y-81362095D02*
X126791809Y-80346095D01*
X126791809Y-80346095D02*
X126695047Y-80491238D01*
X126695047Y-80491238D02*
X126598285Y-80588000D01*
X126598285Y-80588000D02*
X126501523Y-80636381D01*
D12*
X149366666Y-93454819D02*
X149366666Y-94169104D01*
X149366666Y-94169104D02*
X149319047Y-94311961D01*
X149319047Y-94311961D02*
X149223809Y-94407200D01*
X149223809Y-94407200D02*
X149080952Y-94454819D01*
X149080952Y-94454819D02*
X148985714Y-94454819D01*
X149842857Y-94454819D02*
X149842857Y-93454819D01*
X149842857Y-93454819D02*
X150223809Y-93454819D01*
X150223809Y-93454819D02*
X150319047Y-93502438D01*
X150319047Y-93502438D02*
X150366666Y-93550057D01*
X150366666Y-93550057D02*
X150414285Y-93645295D01*
X150414285Y-93645295D02*
X150414285Y-93788152D01*
X150414285Y-93788152D02*
X150366666Y-93883390D01*
X150366666Y-93883390D02*
X150319047Y-93931009D01*
X150319047Y-93931009D02*
X150223809Y-93978628D01*
X150223809Y-93978628D02*
X149842857Y-93978628D01*
X151319047Y-93454819D02*
X150842857Y-93454819D01*
X150842857Y-93454819D02*
X150795238Y-93931009D01*
X150795238Y-93931009D02*
X150842857Y-93883390D01*
X150842857Y-93883390D02*
X150938095Y-93835771D01*
X150938095Y-93835771D02*
X151176190Y-93835771D01*
X151176190Y-93835771D02*
X151271428Y-93883390D01*
X151271428Y-93883390D02*
X151319047Y-93931009D01*
X151319047Y-93931009D02*
X151366666Y-94026247D01*
X151366666Y-94026247D02*
X151366666Y-94264342D01*
X151366666Y-94264342D02*
X151319047Y-94359580D01*
X151319047Y-94359580D02*
X151271428Y-94407200D01*
X151271428Y-94407200D02*
X151176190Y-94454819D01*
X151176190Y-94454819D02*
X150938095Y-94454819D01*
X150938095Y-94454819D02*
X150842857Y-94407200D01*
X150842857Y-94407200D02*
X150795238Y-94359580D01*
D10*
X114280667Y-93365334D02*
X114232286Y-93413715D01*
X114232286Y-93413715D02*
X114087143Y-93462095D01*
X114087143Y-93462095D02*
X113990381Y-93462095D01*
X113990381Y-93462095D02*
X113845238Y-93413715D01*
X113845238Y-93413715D02*
X113748476Y-93316953D01*
X113748476Y-93316953D02*
X113700095Y-93220191D01*
X113700095Y-93220191D02*
X113651714Y-93026667D01*
X113651714Y-93026667D02*
X113651714Y-92881524D01*
X113651714Y-92881524D02*
X113700095Y-92688000D01*
X113700095Y-92688000D02*
X113748476Y-92591238D01*
X113748476Y-92591238D02*
X113845238Y-92494476D01*
X113845238Y-92494476D02*
X113990381Y-92446095D01*
X113990381Y-92446095D02*
X114087143Y-92446095D01*
X114087143Y-92446095D02*
X114232286Y-92494476D01*
X114232286Y-92494476D02*
X114280667Y-92542857D01*
X114667714Y-92542857D02*
X114716095Y-92494476D01*
X114716095Y-92494476D02*
X114812857Y-92446095D01*
X114812857Y-92446095D02*
X115054762Y-92446095D01*
X115054762Y-92446095D02*
X115151524Y-92494476D01*
X115151524Y-92494476D02*
X115199905Y-92542857D01*
X115199905Y-92542857D02*
X115248286Y-92639619D01*
X115248286Y-92639619D02*
X115248286Y-92736381D01*
X115248286Y-92736381D02*
X115199905Y-92881524D01*
X115199905Y-92881524D02*
X114619333Y-93462095D01*
X114619333Y-93462095D02*
X115248286Y-93462095D01*
X129561333Y-94246095D02*
X129561333Y-94971810D01*
X129561333Y-94971810D02*
X129512952Y-95116953D01*
X129512952Y-95116953D02*
X129416190Y-95213715D01*
X129416190Y-95213715D02*
X129271047Y-95262095D01*
X129271047Y-95262095D02*
X129174285Y-95262095D01*
X129948380Y-94246095D02*
X130577333Y-94246095D01*
X130577333Y-94246095D02*
X130238666Y-94633143D01*
X130238666Y-94633143D02*
X130383809Y-94633143D01*
X130383809Y-94633143D02*
X130480571Y-94681524D01*
X130480571Y-94681524D02*
X130528952Y-94729905D01*
X130528952Y-94729905D02*
X130577333Y-94826667D01*
X130577333Y-94826667D02*
X130577333Y-95068572D01*
X130577333Y-95068572D02*
X130528952Y-95165334D01*
X130528952Y-95165334D02*
X130480571Y-95213715D01*
X130480571Y-95213715D02*
X130383809Y-95262095D01*
X130383809Y-95262095D02*
X130093523Y-95262095D01*
X130093523Y-95262095D02*
X129996761Y-95213715D01*
X129996761Y-95213715D02*
X129948380Y-95165334D01*
X148862095Y-73599904D02*
X147846095Y-73599904D01*
X147846095Y-73599904D02*
X147846095Y-73357999D01*
X147846095Y-73357999D02*
X147894476Y-73212856D01*
X147894476Y-73212856D02*
X147991238Y-73116094D01*
X147991238Y-73116094D02*
X148088000Y-73067713D01*
X148088000Y-73067713D02*
X148281524Y-73019332D01*
X148281524Y-73019332D02*
X148426667Y-73019332D01*
X148426667Y-73019332D02*
X148620191Y-73067713D01*
X148620191Y-73067713D02*
X148716953Y-73116094D01*
X148716953Y-73116094D02*
X148813715Y-73212856D01*
X148813715Y-73212856D02*
X148862095Y-73357999D01*
X148862095Y-73357999D02*
X148862095Y-73599904D01*
X148184762Y-72148475D02*
X148862095Y-72148475D01*
X147797715Y-72390380D02*
X148523429Y-72632285D01*
X148523429Y-72632285D02*
X148523429Y-72003332D01*
X121530667Y-90962095D02*
X121192000Y-90478286D01*
X120950095Y-90962095D02*
X120950095Y-89946095D01*
X120950095Y-89946095D02*
X121337143Y-89946095D01*
X121337143Y-89946095D02*
X121433905Y-89994476D01*
X121433905Y-89994476D02*
X121482286Y-90042857D01*
X121482286Y-90042857D02*
X121530667Y-90139619D01*
X121530667Y-90139619D02*
X121530667Y-90284762D01*
X121530667Y-90284762D02*
X121482286Y-90381524D01*
X121482286Y-90381524D02*
X121433905Y-90429905D01*
X121433905Y-90429905D02*
X121337143Y-90478286D01*
X121337143Y-90478286D02*
X120950095Y-90478286D01*
X121917714Y-90042857D02*
X121966095Y-89994476D01*
X121966095Y-89994476D02*
X122062857Y-89946095D01*
X122062857Y-89946095D02*
X122304762Y-89946095D01*
X122304762Y-89946095D02*
X122401524Y-89994476D01*
X122401524Y-89994476D02*
X122449905Y-90042857D01*
X122449905Y-90042857D02*
X122498286Y-90139619D01*
X122498286Y-90139619D02*
X122498286Y-90236381D01*
X122498286Y-90236381D02*
X122449905Y-90381524D01*
X122449905Y-90381524D02*
X121869333Y-90962095D01*
X121869333Y-90962095D02*
X122498286Y-90962095D01*
X138915334Y-83553142D02*
X138963715Y-83601523D01*
X138963715Y-83601523D02*
X139012095Y-83746666D01*
X139012095Y-83746666D02*
X139012095Y-83843428D01*
X139012095Y-83843428D02*
X138963715Y-83988571D01*
X138963715Y-83988571D02*
X138866953Y-84085333D01*
X138866953Y-84085333D02*
X138770191Y-84133714D01*
X138770191Y-84133714D02*
X138576667Y-84182095D01*
X138576667Y-84182095D02*
X138431524Y-84182095D01*
X138431524Y-84182095D02*
X138238000Y-84133714D01*
X138238000Y-84133714D02*
X138141238Y-84085333D01*
X138141238Y-84085333D02*
X138044476Y-83988571D01*
X138044476Y-83988571D02*
X137996095Y-83843428D01*
X137996095Y-83843428D02*
X137996095Y-83746666D01*
X137996095Y-83746666D02*
X138044476Y-83601523D01*
X138044476Y-83601523D02*
X138092857Y-83553142D01*
X139012095Y-82585523D02*
X139012095Y-83166095D01*
X139012095Y-82875809D02*
X137996095Y-82875809D01*
X137996095Y-82875809D02*
X138141238Y-82972571D01*
X138141238Y-82972571D02*
X138238000Y-83069333D01*
X138238000Y-83069333D02*
X138286381Y-83166095D01*
X137996095Y-81666285D02*
X137996095Y-82150095D01*
X137996095Y-82150095D02*
X138479905Y-82198476D01*
X138479905Y-82198476D02*
X138431524Y-82150095D01*
X138431524Y-82150095D02*
X138383143Y-82053333D01*
X138383143Y-82053333D02*
X138383143Y-81811428D01*
X138383143Y-81811428D02*
X138431524Y-81714666D01*
X138431524Y-81714666D02*
X138479905Y-81666285D01*
X138479905Y-81666285D02*
X138576667Y-81617904D01*
X138576667Y-81617904D02*
X138818572Y-81617904D01*
X138818572Y-81617904D02*
X138915334Y-81666285D01*
X138915334Y-81666285D02*
X138963715Y-81714666D01*
X138963715Y-81714666D02*
X139012095Y-81811428D01*
X139012095Y-81811428D02*
X139012095Y-82053333D01*
X139012095Y-82053333D02*
X138963715Y-82150095D01*
X138963715Y-82150095D02*
X138915334Y-82198476D01*
X114680667Y-74762095D02*
X114342000Y-74278286D01*
X114100095Y-74762095D02*
X114100095Y-73746095D01*
X114100095Y-73746095D02*
X114487143Y-73746095D01*
X114487143Y-73746095D02*
X114583905Y-73794476D01*
X114583905Y-73794476D02*
X114632286Y-73842857D01*
X114632286Y-73842857D02*
X114680667Y-73939619D01*
X114680667Y-73939619D02*
X114680667Y-74084762D01*
X114680667Y-74084762D02*
X114632286Y-74181524D01*
X114632286Y-74181524D02*
X114583905Y-74229905D01*
X114583905Y-74229905D02*
X114487143Y-74278286D01*
X114487143Y-74278286D02*
X114100095Y-74278286D01*
X115551524Y-74084762D02*
X115551524Y-74762095D01*
X115309619Y-73697715D02*
X115067714Y-74423429D01*
X115067714Y-74423429D02*
X115696667Y-74423429D01*
X109096857Y-80065334D02*
X109048476Y-80113715D01*
X109048476Y-80113715D02*
X108903333Y-80162095D01*
X108903333Y-80162095D02*
X108806571Y-80162095D01*
X108806571Y-80162095D02*
X108661428Y-80113715D01*
X108661428Y-80113715D02*
X108564666Y-80016953D01*
X108564666Y-80016953D02*
X108516285Y-79920191D01*
X108516285Y-79920191D02*
X108467904Y-79726667D01*
X108467904Y-79726667D02*
X108467904Y-79581524D01*
X108467904Y-79581524D02*
X108516285Y-79388000D01*
X108516285Y-79388000D02*
X108564666Y-79291238D01*
X108564666Y-79291238D02*
X108661428Y-79194476D01*
X108661428Y-79194476D02*
X108806571Y-79146095D01*
X108806571Y-79146095D02*
X108903333Y-79146095D01*
X108903333Y-79146095D02*
X109048476Y-79194476D01*
X109048476Y-79194476D02*
X109096857Y-79242857D01*
X110064476Y-80162095D02*
X109483904Y-80162095D01*
X109774190Y-80162095D02*
X109774190Y-79146095D01*
X109774190Y-79146095D02*
X109677428Y-79291238D01*
X109677428Y-79291238D02*
X109580666Y-79388000D01*
X109580666Y-79388000D02*
X109483904Y-79436381D01*
X110693428Y-79146095D02*
X110790190Y-79146095D01*
X110790190Y-79146095D02*
X110886952Y-79194476D01*
X110886952Y-79194476D02*
X110935333Y-79242857D01*
X110935333Y-79242857D02*
X110983714Y-79339619D01*
X110983714Y-79339619D02*
X111032095Y-79533143D01*
X111032095Y-79533143D02*
X111032095Y-79775048D01*
X111032095Y-79775048D02*
X110983714Y-79968572D01*
X110983714Y-79968572D02*
X110935333Y-80065334D01*
X110935333Y-80065334D02*
X110886952Y-80113715D01*
X110886952Y-80113715D02*
X110790190Y-80162095D01*
X110790190Y-80162095D02*
X110693428Y-80162095D01*
X110693428Y-80162095D02*
X110596666Y-80113715D01*
X110596666Y-80113715D02*
X110548285Y-80065334D01*
X110548285Y-80065334D02*
X110499904Y-79968572D01*
X110499904Y-79968572D02*
X110451523Y-79775048D01*
X110451523Y-79775048D02*
X110451523Y-79533143D01*
X110451523Y-79533143D02*
X110499904Y-79339619D01*
X110499904Y-79339619D02*
X110548285Y-79242857D01*
X110548285Y-79242857D02*
X110596666Y-79194476D01*
X110596666Y-79194476D02*
X110693428Y-79146095D01*
X131775904Y-81796095D02*
X131775904Y-82618572D01*
X131775904Y-82618572D02*
X131824285Y-82715334D01*
X131824285Y-82715334D02*
X131872666Y-82763715D01*
X131872666Y-82763715D02*
X131969428Y-82812095D01*
X131969428Y-82812095D02*
X132162952Y-82812095D01*
X132162952Y-82812095D02*
X132259714Y-82763715D01*
X132259714Y-82763715D02*
X132308095Y-82715334D01*
X132308095Y-82715334D02*
X132356476Y-82618572D01*
X132356476Y-82618572D02*
X132356476Y-81796095D01*
X132743523Y-81796095D02*
X133372476Y-81796095D01*
X133372476Y-81796095D02*
X133033809Y-82183143D01*
X133033809Y-82183143D02*
X133178952Y-82183143D01*
X133178952Y-82183143D02*
X133275714Y-82231524D01*
X133275714Y-82231524D02*
X133324095Y-82279905D01*
X133324095Y-82279905D02*
X133372476Y-82376667D01*
X133372476Y-82376667D02*
X133372476Y-82618572D01*
X133372476Y-82618572D02*
X133324095Y-82715334D01*
X133324095Y-82715334D02*
X133275714Y-82763715D01*
X133275714Y-82763715D02*
X133178952Y-82812095D01*
X133178952Y-82812095D02*
X132888666Y-82812095D01*
X132888666Y-82812095D02*
X132791904Y-82763715D01*
X132791904Y-82763715D02*
X132743523Y-82715334D01*
X126312095Y-88053142D02*
X125828286Y-88391809D01*
X126312095Y-88633714D02*
X125296095Y-88633714D01*
X125296095Y-88633714D02*
X125296095Y-88246666D01*
X125296095Y-88246666D02*
X125344476Y-88149904D01*
X125344476Y-88149904D02*
X125392857Y-88101523D01*
X125392857Y-88101523D02*
X125489619Y-88053142D01*
X125489619Y-88053142D02*
X125634762Y-88053142D01*
X125634762Y-88053142D02*
X125731524Y-88101523D01*
X125731524Y-88101523D02*
X125779905Y-88149904D01*
X125779905Y-88149904D02*
X125828286Y-88246666D01*
X125828286Y-88246666D02*
X125828286Y-88633714D01*
X126312095Y-87085523D02*
X126312095Y-87666095D01*
X126312095Y-87375809D02*
X125296095Y-87375809D01*
X125296095Y-87375809D02*
X125441238Y-87472571D01*
X125441238Y-87472571D02*
X125538000Y-87569333D01*
X125538000Y-87569333D02*
X125586381Y-87666095D01*
X125296095Y-86746857D02*
X125296095Y-86117904D01*
X125296095Y-86117904D02*
X125683143Y-86456571D01*
X125683143Y-86456571D02*
X125683143Y-86311428D01*
X125683143Y-86311428D02*
X125731524Y-86214666D01*
X125731524Y-86214666D02*
X125779905Y-86166285D01*
X125779905Y-86166285D02*
X125876667Y-86117904D01*
X125876667Y-86117904D02*
X126118572Y-86117904D01*
X126118572Y-86117904D02*
X126215334Y-86166285D01*
X126215334Y-86166285D02*
X126263715Y-86214666D01*
X126263715Y-86214666D02*
X126312095Y-86311428D01*
X126312095Y-86311428D02*
X126312095Y-86601714D01*
X126312095Y-86601714D02*
X126263715Y-86698476D01*
X126263715Y-86698476D02*
X126215334Y-86746857D01*
X147012095Y-74199904D02*
X145996095Y-74199904D01*
X145996095Y-74199904D02*
X145996095Y-73957999D01*
X145996095Y-73957999D02*
X146044476Y-73812856D01*
X146044476Y-73812856D02*
X146141238Y-73716094D01*
X146141238Y-73716094D02*
X146238000Y-73667713D01*
X146238000Y-73667713D02*
X146431524Y-73619332D01*
X146431524Y-73619332D02*
X146576667Y-73619332D01*
X146576667Y-73619332D02*
X146770191Y-73667713D01*
X146770191Y-73667713D02*
X146866953Y-73716094D01*
X146866953Y-73716094D02*
X146963715Y-73812856D01*
X146963715Y-73812856D02*
X147012095Y-73957999D01*
X147012095Y-73957999D02*
X147012095Y-74199904D01*
X146092857Y-73232285D02*
X146044476Y-73183904D01*
X146044476Y-73183904D02*
X145996095Y-73087142D01*
X145996095Y-73087142D02*
X145996095Y-72845237D01*
X145996095Y-72845237D02*
X146044476Y-72748475D01*
X146044476Y-72748475D02*
X146092857Y-72700094D01*
X146092857Y-72700094D02*
X146189619Y-72651713D01*
X146189619Y-72651713D02*
X146286381Y-72651713D01*
X146286381Y-72651713D02*
X146431524Y-72700094D01*
X146431524Y-72700094D02*
X147012095Y-73280666D01*
X147012095Y-73280666D02*
X147012095Y-72651713D01*
X120675904Y-78846095D02*
X120675904Y-79668572D01*
X120675904Y-79668572D02*
X120724285Y-79765334D01*
X120724285Y-79765334D02*
X120772666Y-79813715D01*
X120772666Y-79813715D02*
X120869428Y-79862095D01*
X120869428Y-79862095D02*
X121062952Y-79862095D01*
X121062952Y-79862095D02*
X121159714Y-79813715D01*
X121159714Y-79813715D02*
X121208095Y-79765334D01*
X121208095Y-79765334D02*
X121256476Y-79668572D01*
X121256476Y-79668572D02*
X121256476Y-78846095D01*
X122272476Y-79862095D02*
X121691904Y-79862095D01*
X121982190Y-79862095D02*
X121982190Y-78846095D01*
X121982190Y-78846095D02*
X121885428Y-78991238D01*
X121885428Y-78991238D02*
X121788666Y-79088000D01*
X121788666Y-79088000D02*
X121691904Y-79136381D01*
X120516190Y-74478286D02*
X120516190Y-74962095D01*
X120177523Y-73946095D02*
X120516190Y-74478286D01*
X120516190Y-74478286D02*
X120854857Y-73946095D01*
X121725714Y-74962095D02*
X121145142Y-74962095D01*
X121435428Y-74962095D02*
X121435428Y-73946095D01*
X121435428Y-73946095D02*
X121338666Y-74091238D01*
X121338666Y-74091238D02*
X121241904Y-74188000D01*
X121241904Y-74188000D02*
X121145142Y-74236381D01*
X150700095Y-80962095D02*
X150700095Y-79946095D01*
X150700095Y-79946095D02*
X150942000Y-79946095D01*
X150942000Y-79946095D02*
X151087143Y-79994476D01*
X151087143Y-79994476D02*
X151183905Y-80091238D01*
X151183905Y-80091238D02*
X151232286Y-80188000D01*
X151232286Y-80188000D02*
X151280667Y-80381524D01*
X151280667Y-80381524D02*
X151280667Y-80526667D01*
X151280667Y-80526667D02*
X151232286Y-80720191D01*
X151232286Y-80720191D02*
X151183905Y-80816953D01*
X151183905Y-80816953D02*
X151087143Y-80913715D01*
X151087143Y-80913715D02*
X150942000Y-80962095D01*
X150942000Y-80962095D02*
X150700095Y-80962095D01*
X151619333Y-79946095D02*
X152296667Y-79946095D01*
X152296667Y-79946095D02*
X151861238Y-80962095D01*
D12*
X149366666Y-90854819D02*
X149366666Y-91569104D01*
X149366666Y-91569104D02*
X149319047Y-91711961D01*
X149319047Y-91711961D02*
X149223809Y-91807200D01*
X149223809Y-91807200D02*
X149080952Y-91854819D01*
X149080952Y-91854819D02*
X148985714Y-91854819D01*
X149842857Y-91854819D02*
X149842857Y-90854819D01*
X149842857Y-90854819D02*
X150223809Y-90854819D01*
X150223809Y-90854819D02*
X150319047Y-90902438D01*
X150319047Y-90902438D02*
X150366666Y-90950057D01*
X150366666Y-90950057D02*
X150414285Y-91045295D01*
X150414285Y-91045295D02*
X150414285Y-91188152D01*
X150414285Y-91188152D02*
X150366666Y-91283390D01*
X150366666Y-91283390D02*
X150319047Y-91331009D01*
X150319047Y-91331009D02*
X150223809Y-91378628D01*
X150223809Y-91378628D02*
X149842857Y-91378628D01*
X150747619Y-90854819D02*
X151366666Y-90854819D01*
X151366666Y-90854819D02*
X151033333Y-91235771D01*
X151033333Y-91235771D02*
X151176190Y-91235771D01*
X151176190Y-91235771D02*
X151271428Y-91283390D01*
X151271428Y-91283390D02*
X151319047Y-91331009D01*
X151319047Y-91331009D02*
X151366666Y-91426247D01*
X151366666Y-91426247D02*
X151366666Y-91664342D01*
X151366666Y-91664342D02*
X151319047Y-91759580D01*
X151319047Y-91759580D02*
X151271428Y-91807200D01*
X151271428Y-91807200D02*
X151176190Y-91854819D01*
X151176190Y-91854819D02*
X150890476Y-91854819D01*
X150890476Y-91854819D02*
X150795238Y-91807200D01*
X150795238Y-91807200D02*
X150747619Y-91759580D01*
D10*
X115880667Y-73415334D02*
X115832286Y-73463715D01*
X115832286Y-73463715D02*
X115687143Y-73512095D01*
X115687143Y-73512095D02*
X115590381Y-73512095D01*
X115590381Y-73512095D02*
X115445238Y-73463715D01*
X115445238Y-73463715D02*
X115348476Y-73366953D01*
X115348476Y-73366953D02*
X115300095Y-73270191D01*
X115300095Y-73270191D02*
X115251714Y-73076667D01*
X115251714Y-73076667D02*
X115251714Y-72931524D01*
X115251714Y-72931524D02*
X115300095Y-72738000D01*
X115300095Y-72738000D02*
X115348476Y-72641238D01*
X115348476Y-72641238D02*
X115445238Y-72544476D01*
X115445238Y-72544476D02*
X115590381Y-72496095D01*
X115590381Y-72496095D02*
X115687143Y-72496095D01*
X115687143Y-72496095D02*
X115832286Y-72544476D01*
X115832286Y-72544476D02*
X115880667Y-72592857D01*
X116751524Y-72834762D02*
X116751524Y-73512095D01*
X116509619Y-72447715D02*
X116267714Y-73173429D01*
X116267714Y-73173429D02*
X116896667Y-73173429D01*
X141925904Y-77096095D02*
X141925904Y-77918572D01*
X141925904Y-77918572D02*
X141974285Y-78015334D01*
X141974285Y-78015334D02*
X142022666Y-78063715D01*
X142022666Y-78063715D02*
X142119428Y-78112095D01*
X142119428Y-78112095D02*
X142312952Y-78112095D01*
X142312952Y-78112095D02*
X142409714Y-78063715D01*
X142409714Y-78063715D02*
X142458095Y-78015334D01*
X142458095Y-78015334D02*
X142506476Y-77918572D01*
X142506476Y-77918572D02*
X142506476Y-77096095D01*
X142941904Y-77192857D02*
X142990285Y-77144476D01*
X142990285Y-77144476D02*
X143087047Y-77096095D01*
X143087047Y-77096095D02*
X143328952Y-77096095D01*
X143328952Y-77096095D02*
X143425714Y-77144476D01*
X143425714Y-77144476D02*
X143474095Y-77192857D01*
X143474095Y-77192857D02*
X143522476Y-77289619D01*
X143522476Y-77289619D02*
X143522476Y-77386381D01*
X143522476Y-77386381D02*
X143474095Y-77531524D01*
X143474095Y-77531524D02*
X142893523Y-78112095D01*
X142893523Y-78112095D02*
X143522476Y-78112095D01*
X132461333Y-72146095D02*
X132461333Y-72871810D01*
X132461333Y-72871810D02*
X132412952Y-73016953D01*
X132412952Y-73016953D02*
X132316190Y-73113715D01*
X132316190Y-73113715D02*
X132171047Y-73162095D01*
X132171047Y-73162095D02*
X132074285Y-73162095D01*
X133477333Y-73162095D02*
X132896761Y-73162095D01*
X133187047Y-73162095D02*
X133187047Y-72146095D01*
X133187047Y-72146095D02*
X133090285Y-72291238D01*
X133090285Y-72291238D02*
X132993523Y-72388000D01*
X132993523Y-72388000D02*
X132896761Y-72436381D01*
X109280667Y-81315334D02*
X109232286Y-81363715D01*
X109232286Y-81363715D02*
X109087143Y-81412095D01*
X109087143Y-81412095D02*
X108990381Y-81412095D01*
X108990381Y-81412095D02*
X108845238Y-81363715D01*
X108845238Y-81363715D02*
X108748476Y-81266953D01*
X108748476Y-81266953D02*
X108700095Y-81170191D01*
X108700095Y-81170191D02*
X108651714Y-80976667D01*
X108651714Y-80976667D02*
X108651714Y-80831524D01*
X108651714Y-80831524D02*
X108700095Y-80638000D01*
X108700095Y-80638000D02*
X108748476Y-80541238D01*
X108748476Y-80541238D02*
X108845238Y-80444476D01*
X108845238Y-80444476D02*
X108990381Y-80396095D01*
X108990381Y-80396095D02*
X109087143Y-80396095D01*
X109087143Y-80396095D02*
X109232286Y-80444476D01*
X109232286Y-80444476D02*
X109280667Y-80492857D01*
X109764476Y-81412095D02*
X109958000Y-81412095D01*
X109958000Y-81412095D02*
X110054762Y-81363715D01*
X110054762Y-81363715D02*
X110103143Y-81315334D01*
X110103143Y-81315334D02*
X110199905Y-81170191D01*
X110199905Y-81170191D02*
X110248286Y-80976667D01*
X110248286Y-80976667D02*
X110248286Y-80589619D01*
X110248286Y-80589619D02*
X110199905Y-80492857D01*
X110199905Y-80492857D02*
X110151524Y-80444476D01*
X110151524Y-80444476D02*
X110054762Y-80396095D01*
X110054762Y-80396095D02*
X109861238Y-80396095D01*
X109861238Y-80396095D02*
X109764476Y-80444476D01*
X109764476Y-80444476D02*
X109716095Y-80492857D01*
X109716095Y-80492857D02*
X109667714Y-80589619D01*
X109667714Y-80589619D02*
X109667714Y-80831524D01*
X109667714Y-80831524D02*
X109716095Y-80928286D01*
X109716095Y-80928286D02*
X109764476Y-80976667D01*
X109764476Y-80976667D02*
X109861238Y-81025048D01*
X109861238Y-81025048D02*
X110054762Y-81025048D01*
X110054762Y-81025048D02*
X110151524Y-80976667D01*
X110151524Y-80976667D02*
X110199905Y-80928286D01*
X110199905Y-80928286D02*
X110248286Y-80831524D01*
D12*
X142916666Y-89054819D02*
X142916666Y-89769104D01*
X142916666Y-89769104D02*
X142869047Y-89911961D01*
X142869047Y-89911961D02*
X142773809Y-90007200D01*
X142773809Y-90007200D02*
X142630952Y-90054819D01*
X142630952Y-90054819D02*
X142535714Y-90054819D01*
X143392857Y-90054819D02*
X143392857Y-89054819D01*
X143392857Y-89054819D02*
X143773809Y-89054819D01*
X143773809Y-89054819D02*
X143869047Y-89102438D01*
X143869047Y-89102438D02*
X143916666Y-89150057D01*
X143916666Y-89150057D02*
X143964285Y-89245295D01*
X143964285Y-89245295D02*
X143964285Y-89388152D01*
X143964285Y-89388152D02*
X143916666Y-89483390D01*
X143916666Y-89483390D02*
X143869047Y-89531009D01*
X143869047Y-89531009D02*
X143773809Y-89578628D01*
X143773809Y-89578628D02*
X143392857Y-89578628D01*
X144821428Y-89054819D02*
X144630952Y-89054819D01*
X144630952Y-89054819D02*
X144535714Y-89102438D01*
X144535714Y-89102438D02*
X144488095Y-89150057D01*
X144488095Y-89150057D02*
X144392857Y-89292914D01*
X144392857Y-89292914D02*
X144345238Y-89483390D01*
X144345238Y-89483390D02*
X144345238Y-89864342D01*
X144345238Y-89864342D02*
X144392857Y-89959580D01*
X144392857Y-89959580D02*
X144440476Y-90007200D01*
X144440476Y-90007200D02*
X144535714Y-90054819D01*
X144535714Y-90054819D02*
X144726190Y-90054819D01*
X144726190Y-90054819D02*
X144821428Y-90007200D01*
X144821428Y-90007200D02*
X144869047Y-89959580D01*
X144869047Y-89959580D02*
X144916666Y-89864342D01*
X144916666Y-89864342D02*
X144916666Y-89626247D01*
X144916666Y-89626247D02*
X144869047Y-89531009D01*
X144869047Y-89531009D02*
X144821428Y-89483390D01*
X144821428Y-89483390D02*
X144726190Y-89435771D01*
X144726190Y-89435771D02*
X144535714Y-89435771D01*
X144535714Y-89435771D02*
X144440476Y-89483390D01*
X144440476Y-89483390D02*
X144392857Y-89531009D01*
X144392857Y-89531009D02*
X144345238Y-89626247D01*
D10*
X137330667Y-74662095D02*
X136846857Y-74662095D01*
X136846857Y-74662095D02*
X136846857Y-73646095D01*
X137572571Y-73646095D02*
X138201524Y-73646095D01*
X138201524Y-73646095D02*
X137862857Y-74033143D01*
X137862857Y-74033143D02*
X138008000Y-74033143D01*
X138008000Y-74033143D02*
X138104762Y-74081524D01*
X138104762Y-74081524D02*
X138153143Y-74129905D01*
X138153143Y-74129905D02*
X138201524Y-74226667D01*
X138201524Y-74226667D02*
X138201524Y-74468572D01*
X138201524Y-74468572D02*
X138153143Y-74565334D01*
X138153143Y-74565334D02*
X138104762Y-74613715D01*
X138104762Y-74613715D02*
X138008000Y-74662095D01*
X138008000Y-74662095D02*
X137717714Y-74662095D01*
X137717714Y-74662095D02*
X137620952Y-74613715D01*
X137620952Y-74613715D02*
X137572571Y-74565334D01*
X110295333Y-89563715D02*
X110440476Y-89612095D01*
X110440476Y-89612095D02*
X110682381Y-89612095D01*
X110682381Y-89612095D02*
X110779143Y-89563715D01*
X110779143Y-89563715D02*
X110827524Y-89515334D01*
X110827524Y-89515334D02*
X110875905Y-89418572D01*
X110875905Y-89418572D02*
X110875905Y-89321810D01*
X110875905Y-89321810D02*
X110827524Y-89225048D01*
X110827524Y-89225048D02*
X110779143Y-89176667D01*
X110779143Y-89176667D02*
X110682381Y-89128286D01*
X110682381Y-89128286D02*
X110488857Y-89079905D01*
X110488857Y-89079905D02*
X110392095Y-89031524D01*
X110392095Y-89031524D02*
X110343714Y-88983143D01*
X110343714Y-88983143D02*
X110295333Y-88886381D01*
X110295333Y-88886381D02*
X110295333Y-88789619D01*
X110295333Y-88789619D02*
X110343714Y-88692857D01*
X110343714Y-88692857D02*
X110392095Y-88644476D01*
X110392095Y-88644476D02*
X110488857Y-88596095D01*
X110488857Y-88596095D02*
X110730762Y-88596095D01*
X110730762Y-88596095D02*
X110875905Y-88644476D01*
X111214571Y-88596095D02*
X111456476Y-89612095D01*
X111456476Y-89612095D02*
X111650000Y-88886381D01*
X111650000Y-88886381D02*
X111843524Y-89612095D01*
X111843524Y-89612095D02*
X112085429Y-88596095D01*
X113004667Y-89612095D02*
X112424095Y-89612095D01*
X112714381Y-89612095D02*
X112714381Y-88596095D01*
X112714381Y-88596095D02*
X112617619Y-88741238D01*
X112617619Y-88741238D02*
X112520857Y-88838000D01*
X112520857Y-88838000D02*
X112424095Y-88886381D01*
X140965334Y-83503142D02*
X141013715Y-83551523D01*
X141013715Y-83551523D02*
X141062095Y-83696666D01*
X141062095Y-83696666D02*
X141062095Y-83793428D01*
X141062095Y-83793428D02*
X141013715Y-83938571D01*
X141013715Y-83938571D02*
X140916953Y-84035333D01*
X140916953Y-84035333D02*
X140820191Y-84083714D01*
X140820191Y-84083714D02*
X140626667Y-84132095D01*
X140626667Y-84132095D02*
X140481524Y-84132095D01*
X140481524Y-84132095D02*
X140288000Y-84083714D01*
X140288000Y-84083714D02*
X140191238Y-84035333D01*
X140191238Y-84035333D02*
X140094476Y-83938571D01*
X140094476Y-83938571D02*
X140046095Y-83793428D01*
X140046095Y-83793428D02*
X140046095Y-83696666D01*
X140046095Y-83696666D02*
X140094476Y-83551523D01*
X140094476Y-83551523D02*
X140142857Y-83503142D01*
X141062095Y-82535523D02*
X141062095Y-83116095D01*
X141062095Y-82825809D02*
X140046095Y-82825809D01*
X140046095Y-82825809D02*
X140191238Y-82922571D01*
X140191238Y-82922571D02*
X140288000Y-83019333D01*
X140288000Y-83019333D02*
X140336381Y-83116095D01*
X140384762Y-81664666D02*
X141062095Y-81664666D01*
X139997715Y-81906571D02*
X140723429Y-82148476D01*
X140723429Y-82148476D02*
X140723429Y-81519523D01*
X114046857Y-87415334D02*
X113998476Y-87463715D01*
X113998476Y-87463715D02*
X113853333Y-87512095D01*
X113853333Y-87512095D02*
X113756571Y-87512095D01*
X113756571Y-87512095D02*
X113611428Y-87463715D01*
X113611428Y-87463715D02*
X113514666Y-87366953D01*
X113514666Y-87366953D02*
X113466285Y-87270191D01*
X113466285Y-87270191D02*
X113417904Y-87076667D01*
X113417904Y-87076667D02*
X113417904Y-86931524D01*
X113417904Y-86931524D02*
X113466285Y-86738000D01*
X113466285Y-86738000D02*
X113514666Y-86641238D01*
X113514666Y-86641238D02*
X113611428Y-86544476D01*
X113611428Y-86544476D02*
X113756571Y-86496095D01*
X113756571Y-86496095D02*
X113853333Y-86496095D01*
X113853333Y-86496095D02*
X113998476Y-86544476D01*
X113998476Y-86544476D02*
X114046857Y-86592857D01*
X115014476Y-87512095D02*
X114433904Y-87512095D01*
X114724190Y-87512095D02*
X114724190Y-86496095D01*
X114724190Y-86496095D02*
X114627428Y-86641238D01*
X114627428Y-86641238D02*
X114530666Y-86738000D01*
X114530666Y-86738000D02*
X114433904Y-86786381D01*
X115353142Y-86496095D02*
X115982095Y-86496095D01*
X115982095Y-86496095D02*
X115643428Y-86883143D01*
X115643428Y-86883143D02*
X115788571Y-86883143D01*
X115788571Y-86883143D02*
X115885333Y-86931524D01*
X115885333Y-86931524D02*
X115933714Y-86979905D01*
X115933714Y-86979905D02*
X115982095Y-87076667D01*
X115982095Y-87076667D02*
X115982095Y-87318572D01*
X115982095Y-87318572D02*
X115933714Y-87415334D01*
X115933714Y-87415334D02*
X115885333Y-87463715D01*
X115885333Y-87463715D02*
X115788571Y-87512095D01*
X115788571Y-87512095D02*
X115498285Y-87512095D01*
X115498285Y-87512095D02*
X115401523Y-87463715D01*
X115401523Y-87463715D02*
X115353142Y-87415334D01*
X109380667Y-82662095D02*
X108896857Y-82662095D01*
X108896857Y-82662095D02*
X108896857Y-81646095D01*
X109670952Y-81742857D02*
X109719333Y-81694476D01*
X109719333Y-81694476D02*
X109816095Y-81646095D01*
X109816095Y-81646095D02*
X110058000Y-81646095D01*
X110058000Y-81646095D02*
X110154762Y-81694476D01*
X110154762Y-81694476D02*
X110203143Y-81742857D01*
X110203143Y-81742857D02*
X110251524Y-81839619D01*
X110251524Y-81839619D02*
X110251524Y-81936381D01*
X110251524Y-81936381D02*
X110203143Y-82081524D01*
X110203143Y-82081524D02*
X109622571Y-82662095D01*
X109622571Y-82662095D02*
X110251524Y-82662095D01*
X112980667Y-85712095D02*
X112642000Y-85228286D01*
X112400095Y-85712095D02*
X112400095Y-84696095D01*
X112400095Y-84696095D02*
X112787143Y-84696095D01*
X112787143Y-84696095D02*
X112883905Y-84744476D01*
X112883905Y-84744476D02*
X112932286Y-84792857D01*
X112932286Y-84792857D02*
X112980667Y-84889619D01*
X112980667Y-84889619D02*
X112980667Y-85034762D01*
X112980667Y-85034762D02*
X112932286Y-85131524D01*
X112932286Y-85131524D02*
X112883905Y-85179905D01*
X112883905Y-85179905D02*
X112787143Y-85228286D01*
X112787143Y-85228286D02*
X112400095Y-85228286D01*
X113561238Y-85131524D02*
X113464476Y-85083143D01*
X113464476Y-85083143D02*
X113416095Y-85034762D01*
X113416095Y-85034762D02*
X113367714Y-84938000D01*
X113367714Y-84938000D02*
X113367714Y-84889619D01*
X113367714Y-84889619D02*
X113416095Y-84792857D01*
X113416095Y-84792857D02*
X113464476Y-84744476D01*
X113464476Y-84744476D02*
X113561238Y-84696095D01*
X113561238Y-84696095D02*
X113754762Y-84696095D01*
X113754762Y-84696095D02*
X113851524Y-84744476D01*
X113851524Y-84744476D02*
X113899905Y-84792857D01*
X113899905Y-84792857D02*
X113948286Y-84889619D01*
X113948286Y-84889619D02*
X113948286Y-84938000D01*
X113948286Y-84938000D02*
X113899905Y-85034762D01*
X113899905Y-85034762D02*
X113851524Y-85083143D01*
X113851524Y-85083143D02*
X113754762Y-85131524D01*
X113754762Y-85131524D02*
X113561238Y-85131524D01*
X113561238Y-85131524D02*
X113464476Y-85179905D01*
X113464476Y-85179905D02*
X113416095Y-85228286D01*
X113416095Y-85228286D02*
X113367714Y-85325048D01*
X113367714Y-85325048D02*
X113367714Y-85518572D01*
X113367714Y-85518572D02*
X113416095Y-85615334D01*
X113416095Y-85615334D02*
X113464476Y-85663715D01*
X113464476Y-85663715D02*
X113561238Y-85712095D01*
X113561238Y-85712095D02*
X113754762Y-85712095D01*
X113754762Y-85712095D02*
X113851524Y-85663715D01*
X113851524Y-85663715D02*
X113899905Y-85615334D01*
X113899905Y-85615334D02*
X113948286Y-85518572D01*
X113948286Y-85518572D02*
X113948286Y-85325048D01*
X113948286Y-85325048D02*
X113899905Y-85228286D01*
X113899905Y-85228286D02*
X113851524Y-85179905D01*
X113851524Y-85179905D02*
X113754762Y-85131524D01*
X132700095Y-76512095D02*
X132700095Y-75496095D01*
X132700095Y-75496095D02*
X132942000Y-75496095D01*
X132942000Y-75496095D02*
X133087143Y-75544476D01*
X133087143Y-75544476D02*
X133183905Y-75641238D01*
X133183905Y-75641238D02*
X133232286Y-75738000D01*
X133232286Y-75738000D02*
X133280667Y-75931524D01*
X133280667Y-75931524D02*
X133280667Y-76076667D01*
X133280667Y-76076667D02*
X133232286Y-76270191D01*
X133232286Y-76270191D02*
X133183905Y-76366953D01*
X133183905Y-76366953D02*
X133087143Y-76463715D01*
X133087143Y-76463715D02*
X132942000Y-76512095D01*
X132942000Y-76512095D02*
X132700095Y-76512095D01*
X134248286Y-76512095D02*
X133667714Y-76512095D01*
X133958000Y-76512095D02*
X133958000Y-75496095D01*
X133958000Y-75496095D02*
X133861238Y-75641238D01*
X133861238Y-75641238D02*
X133764476Y-75738000D01*
X133764476Y-75738000D02*
X133667714Y-75786381D01*
X116445333Y-89613715D02*
X116590476Y-89662095D01*
X116590476Y-89662095D02*
X116832381Y-89662095D01*
X116832381Y-89662095D02*
X116929143Y-89613715D01*
X116929143Y-89613715D02*
X116977524Y-89565334D01*
X116977524Y-89565334D02*
X117025905Y-89468572D01*
X117025905Y-89468572D02*
X117025905Y-89371810D01*
X117025905Y-89371810D02*
X116977524Y-89275048D01*
X116977524Y-89275048D02*
X116929143Y-89226667D01*
X116929143Y-89226667D02*
X116832381Y-89178286D01*
X116832381Y-89178286D02*
X116638857Y-89129905D01*
X116638857Y-89129905D02*
X116542095Y-89081524D01*
X116542095Y-89081524D02*
X116493714Y-89033143D01*
X116493714Y-89033143D02*
X116445333Y-88936381D01*
X116445333Y-88936381D02*
X116445333Y-88839619D01*
X116445333Y-88839619D02*
X116493714Y-88742857D01*
X116493714Y-88742857D02*
X116542095Y-88694476D01*
X116542095Y-88694476D02*
X116638857Y-88646095D01*
X116638857Y-88646095D02*
X116880762Y-88646095D01*
X116880762Y-88646095D02*
X117025905Y-88694476D01*
X117364571Y-88646095D02*
X117606476Y-89662095D01*
X117606476Y-89662095D02*
X117800000Y-88936381D01*
X117800000Y-88936381D02*
X117993524Y-89662095D01*
X117993524Y-89662095D02*
X118235429Y-88646095D01*
X118525714Y-88646095D02*
X119154667Y-88646095D01*
X119154667Y-88646095D02*
X118816000Y-89033143D01*
X118816000Y-89033143D02*
X118961143Y-89033143D01*
X118961143Y-89033143D02*
X119057905Y-89081524D01*
X119057905Y-89081524D02*
X119106286Y-89129905D01*
X119106286Y-89129905D02*
X119154667Y-89226667D01*
X119154667Y-89226667D02*
X119154667Y-89468572D01*
X119154667Y-89468572D02*
X119106286Y-89565334D01*
X119106286Y-89565334D02*
X119057905Y-89613715D01*
X119057905Y-89613715D02*
X118961143Y-89662095D01*
X118961143Y-89662095D02*
X118670857Y-89662095D01*
X118670857Y-89662095D02*
X118574095Y-89613715D01*
X118574095Y-89613715D02*
X118525714Y-89565334D01*
X121696857Y-85965334D02*
X121648476Y-86013715D01*
X121648476Y-86013715D02*
X121503333Y-86062095D01*
X121503333Y-86062095D02*
X121406571Y-86062095D01*
X121406571Y-86062095D02*
X121261428Y-86013715D01*
X121261428Y-86013715D02*
X121164666Y-85916953D01*
X121164666Y-85916953D02*
X121116285Y-85820191D01*
X121116285Y-85820191D02*
X121067904Y-85626667D01*
X121067904Y-85626667D02*
X121067904Y-85481524D01*
X121067904Y-85481524D02*
X121116285Y-85288000D01*
X121116285Y-85288000D02*
X121164666Y-85191238D01*
X121164666Y-85191238D02*
X121261428Y-85094476D01*
X121261428Y-85094476D02*
X121406571Y-85046095D01*
X121406571Y-85046095D02*
X121503333Y-85046095D01*
X121503333Y-85046095D02*
X121648476Y-85094476D01*
X121648476Y-85094476D02*
X121696857Y-85142857D01*
X122664476Y-86062095D02*
X122083904Y-86062095D01*
X122374190Y-86062095D02*
X122374190Y-85046095D01*
X122374190Y-85046095D02*
X122277428Y-85191238D01*
X122277428Y-85191238D02*
X122180666Y-85288000D01*
X122180666Y-85288000D02*
X122083904Y-85336381D01*
X123051523Y-85142857D02*
X123099904Y-85094476D01*
X123099904Y-85094476D02*
X123196666Y-85046095D01*
X123196666Y-85046095D02*
X123438571Y-85046095D01*
X123438571Y-85046095D02*
X123535333Y-85094476D01*
X123535333Y-85094476D02*
X123583714Y-85142857D01*
X123583714Y-85142857D02*
X123632095Y-85239619D01*
X123632095Y-85239619D02*
X123632095Y-85336381D01*
X123632095Y-85336381D02*
X123583714Y-85481524D01*
X123583714Y-85481524D02*
X123003142Y-86062095D01*
X123003142Y-86062095D02*
X123632095Y-86062095D01*
X145665334Y-75353142D02*
X145713715Y-75401523D01*
X145713715Y-75401523D02*
X145762095Y-75546666D01*
X145762095Y-75546666D02*
X145762095Y-75643428D01*
X145762095Y-75643428D02*
X145713715Y-75788571D01*
X145713715Y-75788571D02*
X145616953Y-75885333D01*
X145616953Y-75885333D02*
X145520191Y-75933714D01*
X145520191Y-75933714D02*
X145326667Y-75982095D01*
X145326667Y-75982095D02*
X145181524Y-75982095D01*
X145181524Y-75982095D02*
X144988000Y-75933714D01*
X144988000Y-75933714D02*
X144891238Y-75885333D01*
X144891238Y-75885333D02*
X144794476Y-75788571D01*
X144794476Y-75788571D02*
X144746095Y-75643428D01*
X144746095Y-75643428D02*
X144746095Y-75546666D01*
X144746095Y-75546666D02*
X144794476Y-75401523D01*
X144794476Y-75401523D02*
X144842857Y-75353142D01*
X145762095Y-74385523D02*
X145762095Y-74966095D01*
X145762095Y-74675809D02*
X144746095Y-74675809D01*
X144746095Y-74675809D02*
X144891238Y-74772571D01*
X144891238Y-74772571D02*
X144988000Y-74869333D01*
X144988000Y-74869333D02*
X145036381Y-74966095D01*
X144746095Y-73514666D02*
X144746095Y-73708190D01*
X144746095Y-73708190D02*
X144794476Y-73804952D01*
X144794476Y-73804952D02*
X144842857Y-73853333D01*
X144842857Y-73853333D02*
X144988000Y-73950095D01*
X144988000Y-73950095D02*
X145181524Y-73998476D01*
X145181524Y-73998476D02*
X145568572Y-73998476D01*
X145568572Y-73998476D02*
X145665334Y-73950095D01*
X145665334Y-73950095D02*
X145713715Y-73901714D01*
X145713715Y-73901714D02*
X145762095Y-73804952D01*
X145762095Y-73804952D02*
X145762095Y-73611428D01*
X145762095Y-73611428D02*
X145713715Y-73514666D01*
X145713715Y-73514666D02*
X145665334Y-73466285D01*
X145665334Y-73466285D02*
X145568572Y-73417904D01*
X145568572Y-73417904D02*
X145326667Y-73417904D01*
X145326667Y-73417904D02*
X145229905Y-73466285D01*
X145229905Y-73466285D02*
X145181524Y-73514666D01*
X145181524Y-73514666D02*
X145133143Y-73611428D01*
X145133143Y-73611428D02*
X145133143Y-73804952D01*
X145133143Y-73804952D02*
X145181524Y-73901714D01*
X145181524Y-73901714D02*
X145229905Y-73950095D01*
X145229905Y-73950095D02*
X145326667Y-73998476D01*
X114780667Y-76265334D02*
X114732286Y-76313715D01*
X114732286Y-76313715D02*
X114587143Y-76362095D01*
X114587143Y-76362095D02*
X114490381Y-76362095D01*
X114490381Y-76362095D02*
X114345238Y-76313715D01*
X114345238Y-76313715D02*
X114248476Y-76216953D01*
X114248476Y-76216953D02*
X114200095Y-76120191D01*
X114200095Y-76120191D02*
X114151714Y-75926667D01*
X114151714Y-75926667D02*
X114151714Y-75781524D01*
X114151714Y-75781524D02*
X114200095Y-75588000D01*
X114200095Y-75588000D02*
X114248476Y-75491238D01*
X114248476Y-75491238D02*
X114345238Y-75394476D01*
X114345238Y-75394476D02*
X114490381Y-75346095D01*
X114490381Y-75346095D02*
X114587143Y-75346095D01*
X114587143Y-75346095D02*
X114732286Y-75394476D01*
X114732286Y-75394476D02*
X114780667Y-75442857D01*
X115651524Y-75346095D02*
X115458000Y-75346095D01*
X115458000Y-75346095D02*
X115361238Y-75394476D01*
X115361238Y-75394476D02*
X115312857Y-75442857D01*
X115312857Y-75442857D02*
X115216095Y-75588000D01*
X115216095Y-75588000D02*
X115167714Y-75781524D01*
X115167714Y-75781524D02*
X115167714Y-76168572D01*
X115167714Y-76168572D02*
X115216095Y-76265334D01*
X115216095Y-76265334D02*
X115264476Y-76313715D01*
X115264476Y-76313715D02*
X115361238Y-76362095D01*
X115361238Y-76362095D02*
X115554762Y-76362095D01*
X115554762Y-76362095D02*
X115651524Y-76313715D01*
X115651524Y-76313715D02*
X115699905Y-76265334D01*
X115699905Y-76265334D02*
X115748286Y-76168572D01*
X115748286Y-76168572D02*
X115748286Y-75926667D01*
X115748286Y-75926667D02*
X115699905Y-75829905D01*
X115699905Y-75829905D02*
X115651524Y-75781524D01*
X115651524Y-75781524D02*
X115554762Y-75733143D01*
X115554762Y-75733143D02*
X115361238Y-75733143D01*
X115361238Y-75733143D02*
X115264476Y-75781524D01*
X115264476Y-75781524D02*
X115216095Y-75829905D01*
X115216095Y-75829905D02*
X115167714Y-75926667D01*
X117930667Y-86862095D02*
X117592000Y-86378286D01*
X117350095Y-86862095D02*
X117350095Y-85846095D01*
X117350095Y-85846095D02*
X117737143Y-85846095D01*
X117737143Y-85846095D02*
X117833905Y-85894476D01*
X117833905Y-85894476D02*
X117882286Y-85942857D01*
X117882286Y-85942857D02*
X117930667Y-86039619D01*
X117930667Y-86039619D02*
X117930667Y-86184762D01*
X117930667Y-86184762D02*
X117882286Y-86281524D01*
X117882286Y-86281524D02*
X117833905Y-86329905D01*
X117833905Y-86329905D02*
X117737143Y-86378286D01*
X117737143Y-86378286D02*
X117350095Y-86378286D01*
X118269333Y-85846095D02*
X118946667Y-85846095D01*
X118946667Y-85846095D02*
X118511238Y-86862095D01*
X110280667Y-78862095D02*
X109796857Y-78862095D01*
X109796857Y-78862095D02*
X109796857Y-77846095D01*
X111151524Y-78862095D02*
X110570952Y-78862095D01*
X110861238Y-78862095D02*
X110861238Y-77846095D01*
X110861238Y-77846095D02*
X110764476Y-77991238D01*
X110764476Y-77991238D02*
X110667714Y-78088000D01*
X110667714Y-78088000D02*
X110570952Y-78136381D01*
X150650095Y-85962095D02*
X150650095Y-84946095D01*
X150650095Y-84946095D02*
X150892000Y-84946095D01*
X150892000Y-84946095D02*
X151037143Y-84994476D01*
X151037143Y-84994476D02*
X151133905Y-85091238D01*
X151133905Y-85091238D02*
X151182286Y-85188000D01*
X151182286Y-85188000D02*
X151230667Y-85381524D01*
X151230667Y-85381524D02*
X151230667Y-85526667D01*
X151230667Y-85526667D02*
X151182286Y-85720191D01*
X151182286Y-85720191D02*
X151133905Y-85816953D01*
X151133905Y-85816953D02*
X151037143Y-85913715D01*
X151037143Y-85913715D02*
X150892000Y-85962095D01*
X150892000Y-85962095D02*
X150650095Y-85962095D01*
X152149905Y-84946095D02*
X151666095Y-84946095D01*
X151666095Y-84946095D02*
X151617714Y-85429905D01*
X151617714Y-85429905D02*
X151666095Y-85381524D01*
X151666095Y-85381524D02*
X151762857Y-85333143D01*
X151762857Y-85333143D02*
X152004762Y-85333143D01*
X152004762Y-85333143D02*
X152101524Y-85381524D01*
X152101524Y-85381524D02*
X152149905Y-85429905D01*
X152149905Y-85429905D02*
X152198286Y-85526667D01*
X152198286Y-85526667D02*
X152198286Y-85768572D01*
X152198286Y-85768572D02*
X152149905Y-85865334D01*
X152149905Y-85865334D02*
X152101524Y-85913715D01*
X152101524Y-85913715D02*
X152004762Y-85962095D01*
X152004762Y-85962095D02*
X151762857Y-85962095D01*
X151762857Y-85962095D02*
X151666095Y-85913715D01*
X151666095Y-85913715D02*
X151617714Y-85865334D01*
X150550095Y-83462095D02*
X150550095Y-82446095D01*
X150550095Y-82446095D02*
X150792000Y-82446095D01*
X150792000Y-82446095D02*
X150937143Y-82494476D01*
X150937143Y-82494476D02*
X151033905Y-82591238D01*
X151033905Y-82591238D02*
X151082286Y-82688000D01*
X151082286Y-82688000D02*
X151130667Y-82881524D01*
X151130667Y-82881524D02*
X151130667Y-83026667D01*
X151130667Y-83026667D02*
X151082286Y-83220191D01*
X151082286Y-83220191D02*
X151033905Y-83316953D01*
X151033905Y-83316953D02*
X150937143Y-83413715D01*
X150937143Y-83413715D02*
X150792000Y-83462095D01*
X150792000Y-83462095D02*
X150550095Y-83462095D01*
X152001524Y-82446095D02*
X151808000Y-82446095D01*
X151808000Y-82446095D02*
X151711238Y-82494476D01*
X151711238Y-82494476D02*
X151662857Y-82542857D01*
X151662857Y-82542857D02*
X151566095Y-82688000D01*
X151566095Y-82688000D02*
X151517714Y-82881524D01*
X151517714Y-82881524D02*
X151517714Y-83268572D01*
X151517714Y-83268572D02*
X151566095Y-83365334D01*
X151566095Y-83365334D02*
X151614476Y-83413715D01*
X151614476Y-83413715D02*
X151711238Y-83462095D01*
X151711238Y-83462095D02*
X151904762Y-83462095D01*
X151904762Y-83462095D02*
X152001524Y-83413715D01*
X152001524Y-83413715D02*
X152049905Y-83365334D01*
X152049905Y-83365334D02*
X152098286Y-83268572D01*
X152098286Y-83268572D02*
X152098286Y-83026667D01*
X152098286Y-83026667D02*
X152049905Y-82929905D01*
X152049905Y-82929905D02*
X152001524Y-82881524D01*
X152001524Y-82881524D02*
X151904762Y-82833143D01*
X151904762Y-82833143D02*
X151711238Y-82833143D01*
X151711238Y-82833143D02*
X151614476Y-82881524D01*
X151614476Y-82881524D02*
X151566095Y-82929905D01*
X151566095Y-82929905D02*
X151517714Y-83026667D01*
X114080667Y-89562095D02*
X113742000Y-89078286D01*
X113500095Y-89562095D02*
X113500095Y-88546095D01*
X113500095Y-88546095D02*
X113887143Y-88546095D01*
X113887143Y-88546095D02*
X113983905Y-88594476D01*
X113983905Y-88594476D02*
X114032286Y-88642857D01*
X114032286Y-88642857D02*
X114080667Y-88739619D01*
X114080667Y-88739619D02*
X114080667Y-88884762D01*
X114080667Y-88884762D02*
X114032286Y-88981524D01*
X114032286Y-88981524D02*
X113983905Y-89029905D01*
X113983905Y-89029905D02*
X113887143Y-89078286D01*
X113887143Y-89078286D02*
X113500095Y-89078286D01*
X114419333Y-88546095D02*
X115048286Y-88546095D01*
X115048286Y-88546095D02*
X114709619Y-88933143D01*
X114709619Y-88933143D02*
X114854762Y-88933143D01*
X114854762Y-88933143D02*
X114951524Y-88981524D01*
X114951524Y-88981524D02*
X114999905Y-89029905D01*
X114999905Y-89029905D02*
X115048286Y-89126667D01*
X115048286Y-89126667D02*
X115048286Y-89368572D01*
X115048286Y-89368572D02*
X114999905Y-89465334D01*
X114999905Y-89465334D02*
X114951524Y-89513715D01*
X114951524Y-89513715D02*
X114854762Y-89562095D01*
X114854762Y-89562095D02*
X114564476Y-89562095D01*
X114564476Y-89562095D02*
X114467714Y-89513715D01*
X114467714Y-89513715D02*
X114419333Y-89465334D01*
X116880667Y-78565334D02*
X116832286Y-78613715D01*
X116832286Y-78613715D02*
X116687143Y-78662095D01*
X116687143Y-78662095D02*
X116590381Y-78662095D01*
X116590381Y-78662095D02*
X116445238Y-78613715D01*
X116445238Y-78613715D02*
X116348476Y-78516953D01*
X116348476Y-78516953D02*
X116300095Y-78420191D01*
X116300095Y-78420191D02*
X116251714Y-78226667D01*
X116251714Y-78226667D02*
X116251714Y-78081524D01*
X116251714Y-78081524D02*
X116300095Y-77888000D01*
X116300095Y-77888000D02*
X116348476Y-77791238D01*
X116348476Y-77791238D02*
X116445238Y-77694476D01*
X116445238Y-77694476D02*
X116590381Y-77646095D01*
X116590381Y-77646095D02*
X116687143Y-77646095D01*
X116687143Y-77646095D02*
X116832286Y-77694476D01*
X116832286Y-77694476D02*
X116880667Y-77742857D01*
X117461238Y-78081524D02*
X117364476Y-78033143D01*
X117364476Y-78033143D02*
X117316095Y-77984762D01*
X117316095Y-77984762D02*
X117267714Y-77888000D01*
X117267714Y-77888000D02*
X117267714Y-77839619D01*
X117267714Y-77839619D02*
X117316095Y-77742857D01*
X117316095Y-77742857D02*
X117364476Y-77694476D01*
X117364476Y-77694476D02*
X117461238Y-77646095D01*
X117461238Y-77646095D02*
X117654762Y-77646095D01*
X117654762Y-77646095D02*
X117751524Y-77694476D01*
X117751524Y-77694476D02*
X117799905Y-77742857D01*
X117799905Y-77742857D02*
X117848286Y-77839619D01*
X117848286Y-77839619D02*
X117848286Y-77888000D01*
X117848286Y-77888000D02*
X117799905Y-77984762D01*
X117799905Y-77984762D02*
X117751524Y-78033143D01*
X117751524Y-78033143D02*
X117654762Y-78081524D01*
X117654762Y-78081524D02*
X117461238Y-78081524D01*
X117461238Y-78081524D02*
X117364476Y-78129905D01*
X117364476Y-78129905D02*
X117316095Y-78178286D01*
X117316095Y-78178286D02*
X117267714Y-78275048D01*
X117267714Y-78275048D02*
X117267714Y-78468572D01*
X117267714Y-78468572D02*
X117316095Y-78565334D01*
X117316095Y-78565334D02*
X117364476Y-78613715D01*
X117364476Y-78613715D02*
X117461238Y-78662095D01*
X117461238Y-78662095D02*
X117654762Y-78662095D01*
X117654762Y-78662095D02*
X117751524Y-78613715D01*
X117751524Y-78613715D02*
X117799905Y-78565334D01*
X117799905Y-78565334D02*
X117848286Y-78468572D01*
X117848286Y-78468572D02*
X117848286Y-78275048D01*
X117848286Y-78275048D02*
X117799905Y-78178286D01*
X117799905Y-78178286D02*
X117751524Y-78129905D01*
X117751524Y-78129905D02*
X117654762Y-78081524D01*
X127562095Y-88053142D02*
X127078286Y-88391809D01*
X127562095Y-88633714D02*
X126546095Y-88633714D01*
X126546095Y-88633714D02*
X126546095Y-88246666D01*
X126546095Y-88246666D02*
X126594476Y-88149904D01*
X126594476Y-88149904D02*
X126642857Y-88101523D01*
X126642857Y-88101523D02*
X126739619Y-88053142D01*
X126739619Y-88053142D02*
X126884762Y-88053142D01*
X126884762Y-88053142D02*
X126981524Y-88101523D01*
X126981524Y-88101523D02*
X127029905Y-88149904D01*
X127029905Y-88149904D02*
X127078286Y-88246666D01*
X127078286Y-88246666D02*
X127078286Y-88633714D01*
X127562095Y-87085523D02*
X127562095Y-87666095D01*
X127562095Y-87375809D02*
X126546095Y-87375809D01*
X126546095Y-87375809D02*
X126691238Y-87472571D01*
X126691238Y-87472571D02*
X126788000Y-87569333D01*
X126788000Y-87569333D02*
X126836381Y-87666095D01*
X127562095Y-86117904D02*
X127562095Y-86698476D01*
X127562095Y-86408190D02*
X126546095Y-86408190D01*
X126546095Y-86408190D02*
X126691238Y-86504952D01*
X126691238Y-86504952D02*
X126788000Y-86601714D01*
X126788000Y-86601714D02*
X126836381Y-86698476D01*
X122530667Y-81262095D02*
X122192000Y-80778286D01*
X121950095Y-81262095D02*
X121950095Y-80246095D01*
X121950095Y-80246095D02*
X122337143Y-80246095D01*
X122337143Y-80246095D02*
X122433905Y-80294476D01*
X122433905Y-80294476D02*
X122482286Y-80342857D01*
X122482286Y-80342857D02*
X122530667Y-80439619D01*
X122530667Y-80439619D02*
X122530667Y-80584762D01*
X122530667Y-80584762D02*
X122482286Y-80681524D01*
X122482286Y-80681524D02*
X122433905Y-80729905D01*
X122433905Y-80729905D02*
X122337143Y-80778286D01*
X122337143Y-80778286D02*
X121950095Y-80778286D01*
X123401524Y-80246095D02*
X123208000Y-80246095D01*
X123208000Y-80246095D02*
X123111238Y-80294476D01*
X123111238Y-80294476D02*
X123062857Y-80342857D01*
X123062857Y-80342857D02*
X122966095Y-80488000D01*
X122966095Y-80488000D02*
X122917714Y-80681524D01*
X122917714Y-80681524D02*
X122917714Y-81068572D01*
X122917714Y-81068572D02*
X122966095Y-81165334D01*
X122966095Y-81165334D02*
X123014476Y-81213715D01*
X123014476Y-81213715D02*
X123111238Y-81262095D01*
X123111238Y-81262095D02*
X123304762Y-81262095D01*
X123304762Y-81262095D02*
X123401524Y-81213715D01*
X123401524Y-81213715D02*
X123449905Y-81165334D01*
X123449905Y-81165334D02*
X123498286Y-81068572D01*
X123498286Y-81068572D02*
X123498286Y-80826667D01*
X123498286Y-80826667D02*
X123449905Y-80729905D01*
X123449905Y-80729905D02*
X123401524Y-80681524D01*
X123401524Y-80681524D02*
X123304762Y-80633143D01*
X123304762Y-80633143D02*
X123111238Y-80633143D01*
X123111238Y-80633143D02*
X123014476Y-80681524D01*
X123014476Y-80681524D02*
X122966095Y-80729905D01*
X122966095Y-80729905D02*
X122917714Y-80826667D01*
X140146857Y-86562095D02*
X139808190Y-86078286D01*
X139566285Y-86562095D02*
X139566285Y-85546095D01*
X139566285Y-85546095D02*
X139953333Y-85546095D01*
X139953333Y-85546095D02*
X140050095Y-85594476D01*
X140050095Y-85594476D02*
X140098476Y-85642857D01*
X140098476Y-85642857D02*
X140146857Y-85739619D01*
X140146857Y-85739619D02*
X140146857Y-85884762D01*
X140146857Y-85884762D02*
X140098476Y-85981524D01*
X140098476Y-85981524D02*
X140050095Y-86029905D01*
X140050095Y-86029905D02*
X139953333Y-86078286D01*
X139953333Y-86078286D02*
X139566285Y-86078286D01*
X141114476Y-86562095D02*
X140533904Y-86562095D01*
X140824190Y-86562095D02*
X140824190Y-85546095D01*
X140824190Y-85546095D02*
X140727428Y-85691238D01*
X140727428Y-85691238D02*
X140630666Y-85788000D01*
X140630666Y-85788000D02*
X140533904Y-85836381D01*
X141453142Y-85546095D02*
X142130476Y-85546095D01*
X142130476Y-85546095D02*
X141695047Y-86562095D01*
X144162095Y-85153142D02*
X143678286Y-85491809D01*
X144162095Y-85733714D02*
X143146095Y-85733714D01*
X143146095Y-85733714D02*
X143146095Y-85346666D01*
X143146095Y-85346666D02*
X143194476Y-85249904D01*
X143194476Y-85249904D02*
X143242857Y-85201523D01*
X143242857Y-85201523D02*
X143339619Y-85153142D01*
X143339619Y-85153142D02*
X143484762Y-85153142D01*
X143484762Y-85153142D02*
X143581524Y-85201523D01*
X143581524Y-85201523D02*
X143629905Y-85249904D01*
X143629905Y-85249904D02*
X143678286Y-85346666D01*
X143678286Y-85346666D02*
X143678286Y-85733714D01*
X144162095Y-84185523D02*
X144162095Y-84766095D01*
X144162095Y-84475809D02*
X143146095Y-84475809D01*
X143146095Y-84475809D02*
X143291238Y-84572571D01*
X143291238Y-84572571D02*
X143388000Y-84669333D01*
X143388000Y-84669333D02*
X143436381Y-84766095D01*
X143484762Y-83314666D02*
X144162095Y-83314666D01*
X143097715Y-83556571D02*
X143823429Y-83798476D01*
X143823429Y-83798476D02*
X143823429Y-83169523D01*
X113465334Y-76019332D02*
X113513715Y-76067713D01*
X113513715Y-76067713D02*
X113562095Y-76212856D01*
X113562095Y-76212856D02*
X113562095Y-76309618D01*
X113562095Y-76309618D02*
X113513715Y-76454761D01*
X113513715Y-76454761D02*
X113416953Y-76551523D01*
X113416953Y-76551523D02*
X113320191Y-76599904D01*
X113320191Y-76599904D02*
X113126667Y-76648285D01*
X113126667Y-76648285D02*
X112981524Y-76648285D01*
X112981524Y-76648285D02*
X112788000Y-76599904D01*
X112788000Y-76599904D02*
X112691238Y-76551523D01*
X112691238Y-76551523D02*
X112594476Y-76454761D01*
X112594476Y-76454761D02*
X112546095Y-76309618D01*
X112546095Y-76309618D02*
X112546095Y-76212856D01*
X112546095Y-76212856D02*
X112594476Y-76067713D01*
X112594476Y-76067713D02*
X112642857Y-76019332D01*
X112546095Y-75100094D02*
X112546095Y-75583904D01*
X112546095Y-75583904D02*
X113029905Y-75632285D01*
X113029905Y-75632285D02*
X112981524Y-75583904D01*
X112981524Y-75583904D02*
X112933143Y-75487142D01*
X112933143Y-75487142D02*
X112933143Y-75245237D01*
X112933143Y-75245237D02*
X112981524Y-75148475D01*
X112981524Y-75148475D02*
X113029905Y-75100094D01*
X113029905Y-75100094D02*
X113126667Y-75051713D01*
X113126667Y-75051713D02*
X113368572Y-75051713D01*
X113368572Y-75051713D02*
X113465334Y-75100094D01*
X113465334Y-75100094D02*
X113513715Y-75148475D01*
X113513715Y-75148475D02*
X113562095Y-75245237D01*
X113562095Y-75245237D02*
X113562095Y-75487142D01*
X113562095Y-75487142D02*
X113513715Y-75583904D01*
X113513715Y-75583904D02*
X113465334Y-75632285D01*
X124962095Y-88003142D02*
X124478286Y-88341809D01*
X124962095Y-88583714D02*
X123946095Y-88583714D01*
X123946095Y-88583714D02*
X123946095Y-88196666D01*
X123946095Y-88196666D02*
X123994476Y-88099904D01*
X123994476Y-88099904D02*
X124042857Y-88051523D01*
X124042857Y-88051523D02*
X124139619Y-88003142D01*
X124139619Y-88003142D02*
X124284762Y-88003142D01*
X124284762Y-88003142D02*
X124381524Y-88051523D01*
X124381524Y-88051523D02*
X124429905Y-88099904D01*
X124429905Y-88099904D02*
X124478286Y-88196666D01*
X124478286Y-88196666D02*
X124478286Y-88583714D01*
X124962095Y-87035523D02*
X124962095Y-87616095D01*
X124962095Y-87325809D02*
X123946095Y-87325809D01*
X123946095Y-87325809D02*
X124091238Y-87422571D01*
X124091238Y-87422571D02*
X124188000Y-87519333D01*
X124188000Y-87519333D02*
X124236381Y-87616095D01*
X124042857Y-86648476D02*
X123994476Y-86600095D01*
X123994476Y-86600095D02*
X123946095Y-86503333D01*
X123946095Y-86503333D02*
X123946095Y-86261428D01*
X123946095Y-86261428D02*
X123994476Y-86164666D01*
X123994476Y-86164666D02*
X124042857Y-86116285D01*
X124042857Y-86116285D02*
X124139619Y-86067904D01*
X124139619Y-86067904D02*
X124236381Y-86067904D01*
X124236381Y-86067904D02*
X124381524Y-86116285D01*
X124381524Y-86116285D02*
X124962095Y-86696857D01*
X124962095Y-86696857D02*
X124962095Y-86067904D01*
X130961333Y-85896095D02*
X130961333Y-86621810D01*
X130961333Y-86621810D02*
X130912952Y-86766953D01*
X130912952Y-86766953D02*
X130816190Y-86863715D01*
X130816190Y-86863715D02*
X130671047Y-86912095D01*
X130671047Y-86912095D02*
X130574285Y-86912095D01*
X131396761Y-85992857D02*
X131445142Y-85944476D01*
X131445142Y-85944476D02*
X131541904Y-85896095D01*
X131541904Y-85896095D02*
X131783809Y-85896095D01*
X131783809Y-85896095D02*
X131880571Y-85944476D01*
X131880571Y-85944476D02*
X131928952Y-85992857D01*
X131928952Y-85992857D02*
X131977333Y-86089619D01*
X131977333Y-86089619D02*
X131977333Y-86186381D01*
X131977333Y-86186381D02*
X131928952Y-86331524D01*
X131928952Y-86331524D02*
X131348380Y-86912095D01*
X131348380Y-86912095D02*
X131977333Y-86912095D01*
X135153333Y-74946095D02*
X135153333Y-75671810D01*
X135153333Y-75671810D02*
X135104952Y-75816953D01*
X135104952Y-75816953D02*
X135008190Y-75913715D01*
X135008190Y-75913715D02*
X134863047Y-75962095D01*
X134863047Y-75962095D02*
X134766285Y-75962095D01*
X135637142Y-75962095D02*
X135637142Y-74946095D01*
X135637142Y-74946095D02*
X136024190Y-74946095D01*
X136024190Y-74946095D02*
X136120952Y-74994476D01*
X136120952Y-74994476D02*
X136169333Y-75042857D01*
X136169333Y-75042857D02*
X136217714Y-75139619D01*
X136217714Y-75139619D02*
X136217714Y-75284762D01*
X136217714Y-75284762D02*
X136169333Y-75381524D01*
X136169333Y-75381524D02*
X136120952Y-75429905D01*
X136120952Y-75429905D02*
X136024190Y-75478286D01*
X136024190Y-75478286D02*
X135637142Y-75478286D01*
X136604761Y-75042857D02*
X136653142Y-74994476D01*
X136653142Y-74994476D02*
X136749904Y-74946095D01*
X136749904Y-74946095D02*
X136991809Y-74946095D01*
X136991809Y-74946095D02*
X137088571Y-74994476D01*
X137088571Y-74994476D02*
X137136952Y-75042857D01*
X137136952Y-75042857D02*
X137185333Y-75139619D01*
X137185333Y-75139619D02*
X137185333Y-75236381D01*
X137185333Y-75236381D02*
X137136952Y-75381524D01*
X137136952Y-75381524D02*
X136556380Y-75962095D01*
X136556380Y-75962095D02*
X137185333Y-75962095D01*
X122096857Y-73462095D02*
X121758190Y-72978286D01*
X121516285Y-73462095D02*
X121516285Y-72446095D01*
X121516285Y-72446095D02*
X121903333Y-72446095D01*
X121903333Y-72446095D02*
X122000095Y-72494476D01*
X122000095Y-72494476D02*
X122048476Y-72542857D01*
X122048476Y-72542857D02*
X122096857Y-72639619D01*
X122096857Y-72639619D02*
X122096857Y-72784762D01*
X122096857Y-72784762D02*
X122048476Y-72881524D01*
X122048476Y-72881524D02*
X122000095Y-72929905D01*
X122000095Y-72929905D02*
X121903333Y-72978286D01*
X121903333Y-72978286D02*
X121516285Y-72978286D01*
X123064476Y-73462095D02*
X122483904Y-73462095D01*
X122774190Y-73462095D02*
X122774190Y-72446095D01*
X122774190Y-72446095D02*
X122677428Y-72591238D01*
X122677428Y-72591238D02*
X122580666Y-72688000D01*
X122580666Y-72688000D02*
X122483904Y-72736381D01*
X123693428Y-72446095D02*
X123790190Y-72446095D01*
X123790190Y-72446095D02*
X123886952Y-72494476D01*
X123886952Y-72494476D02*
X123935333Y-72542857D01*
X123935333Y-72542857D02*
X123983714Y-72639619D01*
X123983714Y-72639619D02*
X124032095Y-72833143D01*
X124032095Y-72833143D02*
X124032095Y-73075048D01*
X124032095Y-73075048D02*
X123983714Y-73268572D01*
X123983714Y-73268572D02*
X123935333Y-73365334D01*
X123935333Y-73365334D02*
X123886952Y-73413715D01*
X123886952Y-73413715D02*
X123790190Y-73462095D01*
X123790190Y-73462095D02*
X123693428Y-73462095D01*
X123693428Y-73462095D02*
X123596666Y-73413715D01*
X123596666Y-73413715D02*
X123548285Y-73365334D01*
X123548285Y-73365334D02*
X123499904Y-73268572D01*
X123499904Y-73268572D02*
X123451523Y-73075048D01*
X123451523Y-73075048D02*
X123451523Y-72833143D01*
X123451523Y-72833143D02*
X123499904Y-72639619D01*
X123499904Y-72639619D02*
X123548285Y-72542857D01*
X123548285Y-72542857D02*
X123596666Y-72494476D01*
X123596666Y-72494476D02*
X123693428Y-72446095D01*
D12*
X141154819Y-94833333D02*
X141869104Y-94833333D01*
X141869104Y-94833333D02*
X142011961Y-94880952D01*
X142011961Y-94880952D02*
X142107200Y-94976190D01*
X142107200Y-94976190D02*
X142154819Y-95119047D01*
X142154819Y-95119047D02*
X142154819Y-95214285D01*
X142154819Y-94357142D02*
X141154819Y-94357142D01*
X141154819Y-94357142D02*
X141154819Y-93976190D01*
X141154819Y-93976190D02*
X141202438Y-93880952D01*
X141202438Y-93880952D02*
X141250057Y-93833333D01*
X141250057Y-93833333D02*
X141345295Y-93785714D01*
X141345295Y-93785714D02*
X141488152Y-93785714D01*
X141488152Y-93785714D02*
X141583390Y-93833333D01*
X141583390Y-93833333D02*
X141631009Y-93880952D01*
X141631009Y-93880952D02*
X141678628Y-93976190D01*
X141678628Y-93976190D02*
X141678628Y-94357142D01*
X141488152Y-92928571D02*
X142154819Y-92928571D01*
X141107200Y-93166666D02*
X141821485Y-93404761D01*
X141821485Y-93404761D02*
X141821485Y-92785714D01*
D10*
X145512095Y-84119332D02*
X145028286Y-84457999D01*
X145512095Y-84699904D02*
X144496095Y-84699904D01*
X144496095Y-84699904D02*
X144496095Y-84312856D01*
X144496095Y-84312856D02*
X144544476Y-84216094D01*
X144544476Y-84216094D02*
X144592857Y-84167713D01*
X144592857Y-84167713D02*
X144689619Y-84119332D01*
X144689619Y-84119332D02*
X144834762Y-84119332D01*
X144834762Y-84119332D02*
X144931524Y-84167713D01*
X144931524Y-84167713D02*
X144979905Y-84216094D01*
X144979905Y-84216094D02*
X145028286Y-84312856D01*
X145028286Y-84312856D02*
X145028286Y-84699904D01*
X144496095Y-83200094D02*
X144496095Y-83683904D01*
X144496095Y-83683904D02*
X144979905Y-83732285D01*
X144979905Y-83732285D02*
X144931524Y-83683904D01*
X144931524Y-83683904D02*
X144883143Y-83587142D01*
X144883143Y-83587142D02*
X144883143Y-83345237D01*
X144883143Y-83345237D02*
X144931524Y-83248475D01*
X144931524Y-83248475D02*
X144979905Y-83200094D01*
X144979905Y-83200094D02*
X145076667Y-83151713D01*
X145076667Y-83151713D02*
X145318572Y-83151713D01*
X145318572Y-83151713D02*
X145415334Y-83200094D01*
X145415334Y-83200094D02*
X145463715Y-83248475D01*
X145463715Y-83248475D02*
X145512095Y-83345237D01*
X145512095Y-83345237D02*
X145512095Y-83587142D01*
X145512095Y-83587142D02*
X145463715Y-83683904D01*
X145463715Y-83683904D02*
X145415334Y-83732285D01*
X111080667Y-86615334D02*
X111032286Y-86663715D01*
X111032286Y-86663715D02*
X110887143Y-86712095D01*
X110887143Y-86712095D02*
X110790381Y-86712095D01*
X110790381Y-86712095D02*
X110645238Y-86663715D01*
X110645238Y-86663715D02*
X110548476Y-86566953D01*
X110548476Y-86566953D02*
X110500095Y-86470191D01*
X110500095Y-86470191D02*
X110451714Y-86276667D01*
X110451714Y-86276667D02*
X110451714Y-86131524D01*
X110451714Y-86131524D02*
X110500095Y-85938000D01*
X110500095Y-85938000D02*
X110548476Y-85841238D01*
X110548476Y-85841238D02*
X110645238Y-85744476D01*
X110645238Y-85744476D02*
X110790381Y-85696095D01*
X110790381Y-85696095D02*
X110887143Y-85696095D01*
X110887143Y-85696095D02*
X111032286Y-85744476D01*
X111032286Y-85744476D02*
X111080667Y-85792857D01*
X111419333Y-85696095D02*
X112096667Y-85696095D01*
X112096667Y-85696095D02*
X111661238Y-86712095D01*
X121980667Y-77115334D02*
X121932286Y-77163715D01*
X121932286Y-77163715D02*
X121787143Y-77212095D01*
X121787143Y-77212095D02*
X121690381Y-77212095D01*
X121690381Y-77212095D02*
X121545238Y-77163715D01*
X121545238Y-77163715D02*
X121448476Y-77066953D01*
X121448476Y-77066953D02*
X121400095Y-76970191D01*
X121400095Y-76970191D02*
X121351714Y-76776667D01*
X121351714Y-76776667D02*
X121351714Y-76631524D01*
X121351714Y-76631524D02*
X121400095Y-76438000D01*
X121400095Y-76438000D02*
X121448476Y-76341238D01*
X121448476Y-76341238D02*
X121545238Y-76244476D01*
X121545238Y-76244476D02*
X121690381Y-76196095D01*
X121690381Y-76196095D02*
X121787143Y-76196095D01*
X121787143Y-76196095D02*
X121932286Y-76244476D01*
X121932286Y-76244476D02*
X121980667Y-76292857D01*
X122319333Y-76196095D02*
X122948286Y-76196095D01*
X122948286Y-76196095D02*
X122609619Y-76583143D01*
X122609619Y-76583143D02*
X122754762Y-76583143D01*
X122754762Y-76583143D02*
X122851524Y-76631524D01*
X122851524Y-76631524D02*
X122899905Y-76679905D01*
X122899905Y-76679905D02*
X122948286Y-76776667D01*
X122948286Y-76776667D02*
X122948286Y-77018572D01*
X122948286Y-77018572D02*
X122899905Y-77115334D01*
X122899905Y-77115334D02*
X122851524Y-77163715D01*
X122851524Y-77163715D02*
X122754762Y-77212095D01*
X122754762Y-77212095D02*
X122464476Y-77212095D01*
X122464476Y-77212095D02*
X122367714Y-77163715D01*
X122367714Y-77163715D02*
X122319333Y-77115334D01*
X142862095Y-84169332D02*
X142378286Y-84507999D01*
X142862095Y-84749904D02*
X141846095Y-84749904D01*
X141846095Y-84749904D02*
X141846095Y-84362856D01*
X141846095Y-84362856D02*
X141894476Y-84266094D01*
X141894476Y-84266094D02*
X141942857Y-84217713D01*
X141942857Y-84217713D02*
X142039619Y-84169332D01*
X142039619Y-84169332D02*
X142184762Y-84169332D01*
X142184762Y-84169332D02*
X142281524Y-84217713D01*
X142281524Y-84217713D02*
X142329905Y-84266094D01*
X142329905Y-84266094D02*
X142378286Y-84362856D01*
X142378286Y-84362856D02*
X142378286Y-84749904D01*
X142862095Y-83685523D02*
X142862095Y-83491999D01*
X142862095Y-83491999D02*
X142813715Y-83395237D01*
X142813715Y-83395237D02*
X142765334Y-83346856D01*
X142765334Y-83346856D02*
X142620191Y-83250094D01*
X142620191Y-83250094D02*
X142426667Y-83201713D01*
X142426667Y-83201713D02*
X142039619Y-83201713D01*
X142039619Y-83201713D02*
X141942857Y-83250094D01*
X141942857Y-83250094D02*
X141894476Y-83298475D01*
X141894476Y-83298475D02*
X141846095Y-83395237D01*
X141846095Y-83395237D02*
X141846095Y-83588761D01*
X141846095Y-83588761D02*
X141894476Y-83685523D01*
X141894476Y-83685523D02*
X141942857Y-83733904D01*
X141942857Y-83733904D02*
X142039619Y-83782285D01*
X142039619Y-83782285D02*
X142281524Y-83782285D01*
X142281524Y-83782285D02*
X142378286Y-83733904D01*
X142378286Y-83733904D02*
X142426667Y-83685523D01*
X142426667Y-83685523D02*
X142475048Y-83588761D01*
X142475048Y-83588761D02*
X142475048Y-83395237D01*
X142475048Y-83395237D02*
X142426667Y-83298475D01*
X142426667Y-83298475D02*
X142378286Y-83250094D01*
X142378286Y-83250094D02*
X142281524Y-83201713D01*
X149253333Y-87046095D02*
X149253333Y-87771810D01*
X149253333Y-87771810D02*
X149204952Y-87916953D01*
X149204952Y-87916953D02*
X149108190Y-88013715D01*
X149108190Y-88013715D02*
X148963047Y-88062095D01*
X148963047Y-88062095D02*
X148866285Y-88062095D01*
X149737142Y-88062095D02*
X149737142Y-87046095D01*
X149737142Y-87046095D02*
X150124190Y-87046095D01*
X150124190Y-87046095D02*
X150220952Y-87094476D01*
X150220952Y-87094476D02*
X150269333Y-87142857D01*
X150269333Y-87142857D02*
X150317714Y-87239619D01*
X150317714Y-87239619D02*
X150317714Y-87384762D01*
X150317714Y-87384762D02*
X150269333Y-87481524D01*
X150269333Y-87481524D02*
X150220952Y-87529905D01*
X150220952Y-87529905D02*
X150124190Y-87578286D01*
X150124190Y-87578286D02*
X149737142Y-87578286D01*
X151285333Y-88062095D02*
X150704761Y-88062095D01*
X150995047Y-88062095D02*
X150995047Y-87046095D01*
X150995047Y-87046095D02*
X150898285Y-87191238D01*
X150898285Y-87191238D02*
X150801523Y-87288000D01*
X150801523Y-87288000D02*
X150704761Y-87336381D01*
X108680667Y-92262095D02*
X108342000Y-91778286D01*
X108100095Y-92262095D02*
X108100095Y-91246095D01*
X108100095Y-91246095D02*
X108487143Y-91246095D01*
X108487143Y-91246095D02*
X108583905Y-91294476D01*
X108583905Y-91294476D02*
X108632286Y-91342857D01*
X108632286Y-91342857D02*
X108680667Y-91439619D01*
X108680667Y-91439619D02*
X108680667Y-91584762D01*
X108680667Y-91584762D02*
X108632286Y-91681524D01*
X108632286Y-91681524D02*
X108583905Y-91729905D01*
X108583905Y-91729905D02*
X108487143Y-91778286D01*
X108487143Y-91778286D02*
X108100095Y-91778286D01*
X109648286Y-92262095D02*
X109067714Y-92262095D01*
X109358000Y-92262095D02*
X109358000Y-91246095D01*
X109358000Y-91246095D02*
X109261238Y-91391238D01*
X109261238Y-91391238D02*
X109164476Y-91488000D01*
X109164476Y-91488000D02*
X109067714Y-91536381D01*
X112215334Y-76019332D02*
X112263715Y-76067713D01*
X112263715Y-76067713D02*
X112312095Y-76212856D01*
X112312095Y-76212856D02*
X112312095Y-76309618D01*
X112312095Y-76309618D02*
X112263715Y-76454761D01*
X112263715Y-76454761D02*
X112166953Y-76551523D01*
X112166953Y-76551523D02*
X112070191Y-76599904D01*
X112070191Y-76599904D02*
X111876667Y-76648285D01*
X111876667Y-76648285D02*
X111731524Y-76648285D01*
X111731524Y-76648285D02*
X111538000Y-76599904D01*
X111538000Y-76599904D02*
X111441238Y-76551523D01*
X111441238Y-76551523D02*
X111344476Y-76454761D01*
X111344476Y-76454761D02*
X111296095Y-76309618D01*
X111296095Y-76309618D02*
X111296095Y-76212856D01*
X111296095Y-76212856D02*
X111344476Y-76067713D01*
X111344476Y-76067713D02*
X111392857Y-76019332D01*
X112312095Y-75051713D02*
X112312095Y-75632285D01*
X112312095Y-75341999D02*
X111296095Y-75341999D01*
X111296095Y-75341999D02*
X111441238Y-75438761D01*
X111441238Y-75438761D02*
X111538000Y-75535523D01*
X111538000Y-75535523D02*
X111586381Y-75632285D01*
D13*
X122472164Y-82990000D02*
X122687836Y-82990000D01*
X122472164Y-83710000D02*
X122687836Y-83710000D01*
X145850000Y-94400000D02*
X145850000Y-93800000D01*
X146550000Y-93100000D02*
X147950000Y-93100000D01*
X147950000Y-95100000D02*
X146550000Y-95100000D01*
X148650000Y-93800000D02*
X148650000Y-94400000D01*
X145850000Y-93800000D02*
G75*
G02*
X146550000Y-93100000I699999J1D01*
G01*
X146550000Y-95100000D02*
G75*
G02*
X145850000Y-94400000I-1J699999D01*
G01*
X147950000Y-93100000D02*
G75*
G02*
X148650000Y-93800000I0J-700000D01*
G01*
X148650000Y-94400000D02*
G75*
G02*
X147950000Y-95100000I-700000J0D01*
G01*
X113840000Y-94727836D02*
X113840000Y-94512164D01*
X114560000Y-94727836D02*
X114560000Y-94512164D01*
X121580000Y-92890000D02*
X121580000Y-93692470D01*
X121580000Y-94307530D02*
X121580000Y-95110000D01*
X127865000Y-92890000D02*
X121580000Y-92890000D01*
X127865000Y-92890000D02*
X127865000Y-93436529D01*
X127865000Y-94563471D02*
X127865000Y-95110000D01*
X127865000Y-95110000D02*
X121580000Y-95110000D01*
X128625000Y-92890000D02*
X129385000Y-92890000D01*
X129385000Y-92890000D02*
X129385000Y-94000000D01*
X149150000Y-76610000D02*
X149150000Y-72600000D01*
X149150000Y-76610000D02*
X151150000Y-76610000D01*
X151150000Y-76610000D02*
X151150000Y-72600000D01*
X119870000Y-90596359D02*
X119870000Y-90903641D01*
X120630000Y-90596359D02*
X120630000Y-90903641D01*
X138040000Y-80040580D02*
X138040000Y-79759420D01*
X139060000Y-80040580D02*
X139060000Y-79759420D01*
X115950000Y-74646359D02*
X115950000Y-74953641D01*
X116710000Y-74646359D02*
X116710000Y-74953641D01*
X112740000Y-81407836D02*
X112740000Y-81192164D01*
X113460000Y-81407836D02*
X113460000Y-81192164D01*
D14*
X133938000Y-83300000D02*
X136862000Y-83300000D01*
X133938000Y-83900000D02*
X133938000Y-83300000D01*
X136862000Y-83300000D02*
X136862000Y-83900000D01*
X136862000Y-83900000D02*
X133938000Y-83900000D01*
X137000000Y-81750000D02*
X137000000Y-82950000D01*
D13*
X125420000Y-89913641D02*
X125420000Y-89606359D01*
X126180000Y-89913641D02*
X126180000Y-89606359D01*
X146450000Y-79160000D02*
X146450000Y-75150000D01*
X146450000Y-79160000D02*
X148450000Y-79160000D01*
X148450000Y-79160000D02*
X148450000Y-75150000D01*
D15*
X114825000Y-79600000D02*
G75*
G02*
X114575000Y-79600000I-125000J0D01*
G01*
X114575000Y-79600000D02*
G75*
G02*
X114825000Y-79600000I125000J0D01*
G01*
D13*
X117103744Y-73886307D02*
X117103744Y-77186307D01*
X119903744Y-73886307D02*
X117103744Y-73886307D01*
X145740000Y-79500000D02*
X145740000Y-81500000D01*
X145740000Y-79500000D02*
X149750000Y-79500000D01*
X145740000Y-81500000D02*
X149750000Y-81500000D01*
X145850000Y-91700000D02*
X145850000Y-91100000D01*
X146550000Y-90400000D02*
X147950000Y-90400000D01*
X147950000Y-92400000D02*
X146550000Y-92400000D01*
X148650000Y-91100000D02*
X148650000Y-91700000D01*
X145850000Y-91100000D02*
G75*
G02*
X146550000Y-90400000I699999J1D01*
G01*
X146550000Y-92400000D02*
G75*
G02*
X145850000Y-91700000I-1J699999D01*
G01*
X147950000Y-90400000D02*
G75*
G02*
X148650000Y-91100000I0J-700000D01*
G01*
X148650000Y-91700000D02*
G75*
G02*
X147950000Y-92400000I-700000J0D01*
G01*
X117822164Y-72790000D02*
X118037836Y-72790000D01*
X117822164Y-73510000D02*
X118037836Y-73510000D01*
X142400000Y-78585000D02*
X143700000Y-78585000D01*
X142400000Y-80385000D02*
X143500000Y-80385000D01*
X143750000Y-80665000D02*
X143750000Y-80385000D01*
X144030000Y-80385000D01*
X143750000Y-80665000D01*
G36*
X143750000Y-80665000D02*
G01*
X143750000Y-80385000D01*
X144030000Y-80385000D01*
X143750000Y-80665000D01*
G37*
X126240000Y-74160000D02*
X126240000Y-73050000D01*
X127000000Y-74160000D02*
X126240000Y-74160000D01*
X127760000Y-71940000D02*
X131505000Y-71940000D01*
X127760000Y-72486529D02*
X127760000Y-71940000D01*
X127760000Y-74160000D02*
X127760000Y-73613471D01*
X127760000Y-74160000D02*
X131505000Y-74160000D01*
X131505000Y-72742470D02*
X131505000Y-71940000D01*
X131505000Y-74160000D02*
X131505000Y-73357530D01*
X111392164Y-80440000D02*
X111607836Y-80440000D01*
X111392164Y-81160000D02*
X111607836Y-81160000D01*
X142350000Y-91725000D02*
X142350000Y-91125000D01*
X143050000Y-90425000D02*
X144450000Y-90425000D01*
X144450000Y-92425000D02*
X143050000Y-92425000D01*
X145150000Y-91125000D02*
X145150000Y-91725000D01*
X142350000Y-91125000D02*
G75*
G02*
X143050000Y-90425000I699999J1D01*
G01*
X143050000Y-92425000D02*
G75*
G02*
X142350000Y-91725000I-1J699999D01*
G01*
X144450000Y-90425000D02*
G75*
G02*
X145150000Y-91125000I0J-700000D01*
G01*
X145150000Y-91725000D02*
G75*
G02*
X144450000Y-92425000I-700000J0D01*
G01*
D16*
X139385000Y-72800000D02*
X143385000Y-72800000D01*
X139385000Y-76800000D02*
X139385000Y-72800000D01*
X143385000Y-72800000D02*
X143385000Y-76800000D01*
X143385000Y-76800000D02*
X139385000Y-76800000D01*
D13*
X109975000Y-90475000D02*
X109975000Y-94875000D01*
X109975000Y-94875000D02*
X110095000Y-94875000D01*
X110095000Y-90475000D02*
X109975000Y-90475000D01*
X111105000Y-94875000D02*
X112245000Y-94875000D01*
X112245000Y-90475000D02*
X111105000Y-90475000D01*
X113255000Y-94875000D02*
X113375000Y-94875000D01*
X113375000Y-90475000D02*
X113255000Y-90475000D01*
X113375000Y-94875000D02*
X113375000Y-90475000D01*
X139990000Y-80025580D02*
X139990000Y-79744420D01*
X141010000Y-80025580D02*
X141010000Y-79744420D01*
X116290000Y-86792164D02*
X116290000Y-87007836D01*
X117010000Y-86792164D02*
X117010000Y-87007836D01*
X112320000Y-83336359D02*
X112320000Y-83643641D01*
X113080000Y-83336359D02*
X113080000Y-83643641D01*
X133050000Y-77077500D02*
X133050000Y-78437500D01*
X133050000Y-78437500D02*
X133850000Y-78437500D01*
X133850000Y-77077500D02*
X133850000Y-78437500D01*
X116000000Y-90475000D02*
X116000000Y-94875000D01*
X116000000Y-94875000D02*
X116120000Y-94875000D01*
X116120000Y-90475000D02*
X116000000Y-90475000D01*
X117130000Y-94875000D02*
X118270000Y-94875000D01*
X118270000Y-90475000D02*
X117130000Y-90475000D01*
X119280000Y-94875000D02*
X119400000Y-94875000D01*
X119400000Y-90475000D02*
X119280000Y-90475000D01*
X119400000Y-94875000D02*
X119400000Y-90475000D01*
X122492164Y-83990000D02*
X122707836Y-83990000D01*
X122492164Y-84710000D02*
X122707836Y-84710000D01*
X144890000Y-77840580D02*
X144890000Y-77559420D01*
X145910000Y-77840580D02*
X145910000Y-77559420D01*
X115287836Y-76600000D02*
X115072164Y-76600000D01*
X115287836Y-77320000D02*
X115072164Y-77320000D01*
X120746359Y-86520000D02*
X121053641Y-86520000D01*
X120746359Y-87280000D02*
X121053641Y-87280000D01*
X145740000Y-84500000D02*
X145740000Y-86500000D01*
X145740000Y-84500000D02*
X149750000Y-84500000D01*
X145740000Y-86500000D02*
X149750000Y-86500000D01*
X145740000Y-82000000D02*
X145740000Y-84000000D01*
X145740000Y-82000000D02*
X149750000Y-82000000D01*
X145740000Y-84000000D02*
X149750000Y-84000000D01*
X113820000Y-90953641D02*
X113820000Y-90646359D01*
X114580000Y-90953641D02*
X114580000Y-90646359D01*
X115277836Y-77700000D02*
X115062164Y-77700000D01*
X115277836Y-78420000D02*
X115062164Y-78420000D01*
X126520000Y-89913641D02*
X126520000Y-89606359D01*
X127280000Y-89913641D02*
X127280000Y-89606359D01*
X122446359Y-81520000D02*
X122753641Y-81520000D01*
X122446359Y-82280000D02*
X122753641Y-82280000D01*
X138796359Y-84670000D02*
X139103641Y-84670000D01*
X138796359Y-85430000D02*
X139103641Y-85430000D01*
X143120000Y-81866359D02*
X143120000Y-82173641D01*
X143880000Y-81866359D02*
X143880000Y-82173641D01*
X112640000Y-77887836D02*
X112640000Y-77672164D01*
X113360000Y-77887836D02*
X113360000Y-77672164D01*
X124320000Y-89913641D02*
X124320000Y-89606359D01*
X125080000Y-89913641D02*
X125080000Y-89606359D01*
X131500000Y-90375000D02*
X131500000Y-92295000D01*
X131500000Y-96010000D02*
X131500000Y-94305000D01*
X140660000Y-92295000D02*
X140660000Y-90375000D01*
X140660000Y-94305000D02*
X140660000Y-96010000D01*
X140660000Y-96010000D02*
X131500000Y-96010000D01*
X134700000Y-77450000D02*
X134700000Y-76850000D01*
X135400000Y-76150000D02*
X136800000Y-76150000D01*
X136800000Y-78150000D02*
X135400000Y-78150000D01*
X137500000Y-76850000D02*
X137500000Y-77450000D01*
X134700000Y-76850000D02*
G75*
G02*
X135400000Y-76150000I700000J0D01*
G01*
X135400000Y-78150000D02*
G75*
G02*
X134700000Y-77450000I0J700000D01*
G01*
X136800000Y-76150000D02*
G75*
G02*
X137500000Y-76850000I1J-699999D01*
G01*
X137500000Y-77450000D02*
G75*
G02*
X136800000Y-78150000I-699999J-1D01*
G01*
X124427500Y-73387258D02*
X124427500Y-72912742D01*
X125472500Y-73387258D02*
X125472500Y-72912742D01*
X142350000Y-94400000D02*
X142350000Y-93800000D01*
X143050000Y-93100000D02*
X144450000Y-93100000D01*
X144450000Y-95100000D02*
X143050000Y-95100000D01*
X145150000Y-93800000D02*
X145150000Y-94400000D01*
X142350000Y-93800000D02*
G75*
G02*
X143050000Y-93100000I699999J1D01*
G01*
X143050000Y-95100000D02*
G75*
G02*
X142350000Y-94400000I-1J699999D01*
G01*
X144450000Y-93100000D02*
G75*
G02*
X145150000Y-93800000I0J-700000D01*
G01*
X145150000Y-94400000D02*
G75*
G02*
X144450000Y-95100000I-700000J0D01*
G01*
X144420000Y-81856359D02*
X144420000Y-82163641D01*
X145180000Y-81856359D02*
X145180000Y-82163641D01*
X110790000Y-83859420D02*
X110790000Y-84140580D01*
X111810000Y-83859420D02*
X111810000Y-84140580D01*
X120320000Y-76212164D02*
X120320000Y-76427836D01*
X121040000Y-76212164D02*
X121040000Y-76427836D01*
X141820000Y-82173641D02*
X141820000Y-81866359D01*
X142580000Y-82173641D02*
X142580000Y-81866359D01*
X145650000Y-88500000D02*
X145650000Y-87900000D01*
X146350000Y-87200000D02*
X147750000Y-87200000D01*
X147750000Y-89200000D02*
X146350000Y-89200000D01*
X148450000Y-87900000D02*
X148450000Y-88500000D01*
X145650000Y-87900000D02*
G75*
G02*
X146350000Y-87200000I699999J1D01*
G01*
X146350000Y-89200000D02*
G75*
G02*
X145650000Y-88500000I-1J699999D01*
G01*
X147750000Y-87200000D02*
G75*
G02*
X148450000Y-87900000I0J-700000D01*
G01*
X148450000Y-88500000D02*
G75*
G02*
X147750000Y-89200000I-700000J0D01*
G01*
X108377500Y-94287258D02*
X108377500Y-93812742D01*
X109422500Y-94287258D02*
X109422500Y-93812742D01*
X111640000Y-77887836D02*
X111640000Y-77672164D01*
X112360000Y-77887836D02*
X112360000Y-77672164D01*
%LPC*%
D17*
X122100000Y-83350000D03*
X123060000Y-83350000D03*
D18*
X146600000Y-94100000D03*
D19*
X147900000Y-94100000D03*
D20*
X114200000Y-95100000D03*
X114200000Y-94140000D03*
D21*
X128625000Y-94000000D03*
D22*
X127355000Y-94000000D03*
X126085000Y-94000000D03*
X124815000Y-94000000D03*
X123545000Y-94000000D03*
X122275000Y-94000000D03*
D23*
X150150000Y-75900000D03*
X150150000Y-72600000D03*
D24*
X120250000Y-90240000D03*
X120250000Y-91260000D03*
D25*
X138550000Y-80675000D03*
X138550000Y-79125000D03*
D24*
X116330000Y-74290000D03*
X116330000Y-75310000D03*
D26*
X106325000Y-76750000D03*
D20*
X113100000Y-81780000D03*
X113100000Y-80820000D03*
D27*
X136350000Y-82350000D03*
X135400000Y-82350000D03*
X134450000Y-82350000D03*
X134450000Y-84850000D03*
X135400000Y-84850000D03*
X136350000Y-84850000D03*
D28*
X125800000Y-90270000D03*
X125800000Y-89250000D03*
D23*
X147450000Y-78450000D03*
X147450000Y-75150000D03*
D29*
X115100000Y-80350000D03*
X115100000Y-80850000D03*
X115100000Y-81350000D03*
X115100000Y-81850000D03*
X115100000Y-82350000D03*
X115100000Y-82850000D03*
X115100000Y-83350000D03*
X115100000Y-83850000D03*
D30*
X115850000Y-84600000D03*
X116350000Y-84600000D03*
X116850000Y-84600000D03*
X117350000Y-84600000D03*
X117850000Y-84600000D03*
X118350000Y-84600000D03*
X118850000Y-84600000D03*
X119350000Y-84600000D03*
D29*
X120100000Y-83850000D03*
X120100000Y-83350000D03*
X120100000Y-82850000D03*
X120100000Y-82350000D03*
X120100000Y-81850000D03*
X120100000Y-81350000D03*
X120100000Y-80850000D03*
X120100000Y-80350000D03*
D30*
X119350000Y-79600000D03*
X118850000Y-79600000D03*
X118350000Y-79600000D03*
X117850000Y-79600000D03*
X117350000Y-79600000D03*
X116850000Y-79600000D03*
X116350000Y-79600000D03*
X115850000Y-79600000D03*
D31*
X117600000Y-82100000D03*
D32*
X117803744Y-74661307D03*
X117803744Y-76411307D03*
X119203744Y-76411307D03*
X119203744Y-74661307D03*
D33*
X146450000Y-80500000D03*
X149750000Y-80500000D03*
D18*
X146600000Y-91400000D03*
D19*
X147900000Y-91400000D03*
D17*
X117450000Y-73150000D03*
X118410000Y-73150000D03*
D34*
X143800000Y-79985000D03*
X143800000Y-79485000D03*
X143800000Y-78985000D03*
X142300000Y-78985000D03*
X142300000Y-79485000D03*
X142300000Y-79985000D03*
D21*
X127000000Y-73050000D03*
D22*
X128270000Y-73050000D03*
X129540000Y-73050000D03*
X130810000Y-73050000D03*
D17*
X111020000Y-80800000D03*
X111980000Y-80800000D03*
D18*
X143100000Y-91425000D03*
D19*
X144400000Y-91425000D03*
D35*
X142570000Y-74800000D03*
X140200000Y-74800000D03*
D36*
X110600000Y-94750000D03*
X110600000Y-90600000D03*
X112750000Y-94750000D03*
X112750000Y-90600000D03*
D25*
X140500000Y-80660000D03*
X140500000Y-79110000D03*
D37*
X116650000Y-86420000D03*
X116650000Y-87380000D03*
D38*
X111015000Y-81900000D03*
X111985000Y-81900000D03*
D24*
X112700000Y-82980000D03*
X112700000Y-84000000D03*
D39*
X133450000Y-77997500D03*
X133450000Y-77157500D03*
D36*
X118775000Y-90600000D03*
X118775000Y-94750000D03*
X116625000Y-90600000D03*
X116625000Y-94750000D03*
D17*
X122120000Y-84350000D03*
X123080000Y-84350000D03*
D25*
X145400000Y-78475000D03*
X145400000Y-76925000D03*
D40*
X115660000Y-76960000D03*
X114700000Y-76960000D03*
D41*
X120390000Y-86900000D03*
X121410000Y-86900000D03*
D38*
X112015000Y-79280000D03*
X112985000Y-79280000D03*
D33*
X146450000Y-85500000D03*
X149750000Y-85500000D03*
X146450000Y-83000000D03*
X149750000Y-83000000D03*
D28*
X114200000Y-91310000D03*
X114200000Y-90290000D03*
D40*
X115650000Y-78060000D03*
X114690000Y-78060000D03*
D28*
X126900000Y-90270000D03*
X126900000Y-89250000D03*
D41*
X122090000Y-81900000D03*
X123110000Y-81900000D03*
X138440000Y-85050000D03*
X139460000Y-85050000D03*
D24*
X143500000Y-81510000D03*
X143500000Y-82530000D03*
D20*
X113000000Y-78260000D03*
X113000000Y-77300000D03*
D28*
X124700000Y-90270000D03*
X124700000Y-89250000D03*
D42*
X132730000Y-88555000D03*
X133530000Y-88555000D03*
X134830000Y-88555000D03*
X135830000Y-88555000D03*
X136330000Y-88555000D03*
X137330000Y-88555000D03*
X138630000Y-88555000D03*
X139430000Y-88555000D03*
X139130000Y-88555000D03*
X138330000Y-88555000D03*
X137830000Y-88555000D03*
X136830000Y-88555000D03*
X135330000Y-88555000D03*
X134330000Y-88555000D03*
X133830000Y-88555000D03*
X133030000Y-88555000D03*
D43*
X131760000Y-89120000D03*
D44*
X131760000Y-93300000D03*
D43*
X140400000Y-89120000D03*
D44*
X140400000Y-93300000D03*
D45*
X136750000Y-77150000D03*
D46*
X135450000Y-77150000D03*
D47*
X124950000Y-73975000D03*
X124950000Y-72325000D03*
D18*
X143100000Y-94100000D03*
D19*
X144400000Y-94100000D03*
D24*
X144800000Y-81500000D03*
X144800000Y-82520000D03*
D48*
X111300000Y-83225000D03*
X111300000Y-84775000D03*
D37*
X120680000Y-75840000D03*
X120680000Y-76800000D03*
D28*
X142200000Y-82530000D03*
X142200000Y-81510000D03*
D18*
X146400000Y-88200000D03*
D19*
X147700000Y-88200000D03*
D47*
X108900000Y-94875000D03*
X108900000Y-93225000D03*
D20*
X112000000Y-78260000D03*
X112000000Y-77300000D03*
D49*
X126250000Y-83735000D03*
D50*
X150050000Y-77985000D03*
D51*
X150050000Y-89485000D03*
%LPD*%
D52*
X171500000Y-83500000D02*
G75*
G02*
X155500000Y-83500000I-8000000J0D01*
G01*
X155500000Y-83500000D02*
G75*
G02*
X171500000Y-83500000I8000000J0D01*
G01*
X99500000Y-71500000D02*
X173500000Y-71500000D01*
X173500000Y-96000000D01*
X99500000Y-96000000D01*
X99500000Y-71500000D01*
M02*
