M48
; DRILL file {KiCad 8.0.4} date 2024-08-27T21:07:47-0300
; FORMAT={-:-/ absolute / metric / decimal}
; #@! TF.CreationDate,2024-08-27T21:07:47-03:00
; #@! TF.GenerationSoftware,Kicad,Pcbnew,8.0.4
; #@! TF.FileFunction,Plated,1,4,PTH
FMAT,2
METRIC
; #@! TA.AperFunction,Plated,PTH,ViaDrill
T1C0.305
; #@! TA.AperFunction,Plated,PTH,ViaDrill
T2C0.381
; #@! TA.AperFunction,Plated,PTH,ComponentDrill
T3C0.600
; #@! TA.AperFunction,Plated,PTH,ComponentDrill
T4C0.650
; #@! TA.AperFunction,Plated,PTH,ComponentDrill
T5C1.020
%
G90
G05
T1
X106.6Y-72.0
X106.6Y-73.2
X106.6Y-74.4
X106.6Y-75.6
X106.6Y-79.8
X106.6Y-80.9
X106.6Y-82.1
X106.6Y-83.3
X106.6Y-84.5
X106.6Y-85.7
X106.6Y-86.9
X106.6Y-88.1
X106.6Y-89.3
X106.6Y-90.5
X106.6Y-91.7
X106.6Y-92.9
X106.6Y-94.1
X106.6Y-95.3
X106.7Y-77.9
X106.9Y-76.75
X107.8Y-72.0
X107.8Y-73.2
X107.8Y-74.4
X107.8Y-75.6
X107.8Y-76.8
X107.8Y-77.9
X107.8Y-79.7
X107.8Y-80.9
X107.8Y-82.1
X107.8Y-83.3
X107.8Y-84.5
X107.8Y-85.7
X107.8Y-86.9
X107.8Y-88.1
X107.8Y-89.3
X107.8Y-90.5
X107.8Y-91.7
X107.8Y-92.9
X107.8Y-94.1
X107.8Y-95.3
X109.0Y-72.0
X109.0Y-73.2
X109.0Y-74.4
X109.0Y-75.6
X109.0Y-76.8
X109.0Y-77.9
X109.0Y-79.9
X109.0Y-80.9
X109.0Y-82.1
X109.0Y-83.3
X109.0Y-84.5
X109.0Y-85.7
X109.0Y-86.9
X109.0Y-88.1
X109.0Y-89.3
X109.0Y-90.5
X109.0Y-91.7
X110.1Y-84.8
X110.2Y-78.4
X110.2Y-80.2
X110.9Y-77.3
X111.3Y-86.2
X111.3Y-88.15
X112.0Y-76.3
X112.5Y-80.2
X113.0Y-76.3
X113.8Y-77.0
X113.95Y-78.1
X114.0Y-82.2
X114.5Y-78.9
X114.65Y-86.15
X114.7Y-76.1
X114.8Y-85.3
X114.85Y-79.55
X115.15Y-74.65
X115.65Y-76.1
X115.7Y-87.95
X116.3Y-73.15
X116.7Y-88.15
X117.0Y-77.4
X117.6Y-77.4
X118.4Y-72.2
X118.775Y-89.65
X119.45Y-73.15
X120.0Y-86.0
X120.65Y-73.15
X120.65Y-74.65
X120.8Y-89.25
X120.95Y-85.95
X121.2Y-90.25
X121.3Y-80.75
X121.3Y-82.6
X121.4Y-91.5
X121.85Y-74.65
X121.85Y-75.85
X122.25Y-88.875
X123.4Y-89.225
X123.9Y-83.35
X123.9Y-84.35
X128.875Y-88.6
X128.9Y-92.2
X129.55Y-76.25
X129.55Y-82.2
X129.55Y-84.8
X134.8Y-73.3
X137.95Y-73.25
X137.95Y-75.05
X138.55Y-78.05
X139.7Y-82.2
X140.3Y-85.0
X140.5Y-78.15
X142.35Y-78.15
X142.7Y-84.8
X142.85Y-80.85
X143.2Y-90.0
X143.5Y-83.45
X143.7Y-88.4
X144.8Y-73.25
X144.8Y-83.45
X144.85Y-86.3
X145.4Y-75.55
X145.65Y-79.55
X150.075Y-92.2
X151.1Y-80.5
X151.15Y-83.0
T2
X112.7Y-85.1
X115.15Y-91.3
X116.35Y-80.85
X116.35Y-83.35
X117.6Y-82.05
X117.727Y-87.273
X118.85Y-80.85
X118.85Y-83.35
X123.1Y-86.9
X123.11Y-81.9
X130.8Y-77.2
X133.2Y-86.55
X135.1Y-80.975
X135.4Y-86.35
X138.9Y-86.55
X145.5Y-91.35
X145.5Y-94.05
X147.4Y-73.65
T4
X122.275Y-94.0
X123.545Y-94.0
X124.815Y-94.0
X126.085Y-94.0
X127.0Y-73.05
X127.355Y-94.0
X128.27Y-73.05
X128.625Y-94.0
X129.54Y-73.05
X130.81Y-73.05
T5
X150.05Y-77.985
X150.05Y-89.485
T3
X131.76Y-88.57G85X131.76Y-89.67
G05
X131.76Y-93.0G85X131.76Y-93.6
G05
X140.4Y-88.57G85X140.4Y-89.67
G05
X140.4Y-93.0G85X140.4Y-93.6
G05
M30
