G04 #@! TF.GenerationSoftware,KiCad,Pcbnew,8.0.4*
G04 #@! TF.CreationDate,2024-08-27T21:07:45-03:00*
G04 #@! TF.ProjectId,memo,6d656d6f-2e6b-4696-9361-645f70636258,rev?*
G04 #@! TF.SameCoordinates,Original*
G04 #@! TF.FileFunction,Paste,Top*
G04 #@! TF.FilePolarity,Positive*
%FSLAX46Y46*%
G04 Gerber Fmt 4.6, Leading zero omitted, Abs format (unit mm)*
G04 Created by KiCad (PCBNEW 8.0.4) date 2024-08-27 21:07:45*
%MOMM*%
%LPD*%
G01*
G04 APERTURE LIST*
G04 Aperture macros list*
%AMRoundRect*
0 Rectangle with rounded corners*
0 $1 Rounding radius*
0 $2 $3 $4 $5 $6 $7 $8 $9 X,Y pos of 4 corners*
0 Add a 4 corners polygon primitive as box body*
4,1,4,$2,$3,$4,$5,$6,$7,$8,$9,$2,$3,0*
0 Add four circle primitives for the rounded corners*
1,1,$1+$1,$2,$3*
1,1,$1+$1,$4,$5*
1,1,$1+$1,$6,$7*
1,1,$1+$1,$8,$9*
0 Add four rect primitives between the rounded corners*
20,1,$1+$1,$2,$3,$4,$5,0*
20,1,$1+$1,$4,$5,$6,$7,0*
20,1,$1+$1,$6,$7,$8,$9,0*
20,1,$1+$1,$8,$9,$2,$3,0*%
G04 Aperture macros list end*
%ADD10RoundRect,0.140000X-0.140000X-0.170000X0.140000X-0.170000X0.140000X0.170000X-0.140000X0.170000X0*%
%ADD11RoundRect,0.140000X0.170000X-0.140000X0.170000X0.140000X-0.170000X0.140000X-0.170000X-0.140000X0*%
%ADD12RoundRect,0.225000X0.375000X-0.225000X0.375000X0.225000X-0.375000X0.225000X-0.375000X-0.225000X0*%
%ADD13RoundRect,0.135000X-0.185000X0.135000X-0.185000X-0.135000X0.185000X-0.135000X0.185000X0.135000X0*%
%ADD14RoundRect,0.225000X0.250000X-0.225000X0.250000X0.225000X-0.250000X0.225000X-0.250000X-0.225000X0*%
%ADD15R,0.500000X0.900000*%
%ADD16R,0.600000X1.200000*%
%ADD17RoundRect,0.135000X0.185000X-0.135000X0.185000X0.135000X-0.185000X0.135000X-0.185000X-0.135000X0*%
%ADD18R,0.800000X0.300000*%
%ADD19R,0.300000X0.800000*%
%ADD20R,3.750000X3.750000*%
%ADD21R,1.000000X1.150000*%
%ADD22RoundRect,0.225000X-0.225000X-0.375000X0.225000X-0.375000X0.225000X0.375000X-0.225000X0.375000X0*%
%ADD23RoundRect,0.085000X0.265000X0.085000X-0.265000X0.085000X-0.265000X-0.085000X0.265000X-0.085000X0*%
%ADD24R,0.980000X3.400000*%
%ADD25R,0.650000X1.050000*%
%ADD26RoundRect,0.140000X-0.170000X0.140000X-0.170000X-0.140000X0.170000X-0.140000X0.170000X0.140000X0*%
%ADD27RoundRect,0.147500X-0.147500X-0.172500X0.147500X-0.172500X0.147500X0.172500X-0.147500X0.172500X0*%
%ADD28RoundRect,0.062500X-0.062500X0.117500X-0.062500X-0.117500X0.062500X-0.117500X0.062500X0.117500X0*%
%ADD29RoundRect,0.140000X0.140000X0.170000X-0.140000X0.170000X-0.140000X-0.170000X0.140000X-0.170000X0*%
%ADD30RoundRect,0.135000X-0.135000X-0.185000X0.135000X-0.185000X0.135000X0.185000X-0.135000X0.185000X0*%
%ADD31R,0.300000X1.150000*%
%ADD32RoundRect,0.200000X0.275000X-0.200000X0.275000X0.200000X-0.275000X0.200000X-0.275000X-0.200000X0*%
%ADD33RoundRect,0.225000X-0.250000X0.225000X-0.250000X-0.225000X0.250000X-0.225000X0.250000X0.225000X0*%
G04 #@! TA.AperFunction,Profile*
%ADD34C,0.100000*%
G04 #@! TD*
G04 APERTURE END LIST*
D10*
X122100000Y-83350000D03*
X123060000Y-83350000D03*
D11*
X114200000Y-95100000D03*
X114200000Y-94140000D03*
D12*
X150150000Y-75900000D03*
X150150000Y-72600000D03*
D13*
X120250000Y-90240000D03*
X120250000Y-91260000D03*
D14*
X138550000Y-80675000D03*
X138550000Y-79125000D03*
D13*
X116330000Y-74290000D03*
X116330000Y-75310000D03*
D15*
X106325000Y-76750000D03*
D11*
X113100000Y-81780000D03*
X113100000Y-80820000D03*
D16*
X136350000Y-82350000D03*
X135400000Y-82350000D03*
X134450000Y-82350000D03*
X134450000Y-84850000D03*
X135400000Y-84850000D03*
X136350000Y-84850000D03*
D17*
X125800000Y-90270000D03*
X125800000Y-89250000D03*
D12*
X147450000Y-78450000D03*
X147450000Y-75150000D03*
D18*
X115100000Y-80350000D03*
X115100000Y-80850000D03*
X115100000Y-81350000D03*
X115100000Y-81850000D03*
X115100000Y-82350000D03*
X115100000Y-82850000D03*
X115100000Y-83350000D03*
X115100000Y-83850000D03*
D19*
X115850000Y-84600000D03*
X116350000Y-84600000D03*
X116850000Y-84600000D03*
X117350000Y-84600000D03*
X117850000Y-84600000D03*
X118350000Y-84600000D03*
X118850000Y-84600000D03*
X119350000Y-84600000D03*
D18*
X120100000Y-83850000D03*
X120100000Y-83350000D03*
X120100000Y-82850000D03*
X120100000Y-82350000D03*
X120100000Y-81850000D03*
X120100000Y-81350000D03*
X120100000Y-80850000D03*
X120100000Y-80350000D03*
D19*
X119350000Y-79600000D03*
X118850000Y-79600000D03*
X118350000Y-79600000D03*
X117850000Y-79600000D03*
X117350000Y-79600000D03*
X116850000Y-79600000D03*
X116350000Y-79600000D03*
X115850000Y-79600000D03*
D20*
X117600000Y-82100000D03*
D21*
X117803744Y-74661307D03*
X117803744Y-76411307D03*
X119203744Y-76411307D03*
X119203744Y-74661307D03*
D22*
X146450000Y-80500000D03*
X149750000Y-80500000D03*
D10*
X117450000Y-73150000D03*
X118410000Y-73150000D03*
D23*
X143800000Y-79985000D03*
X143800000Y-79485000D03*
X143800000Y-78985000D03*
X142300000Y-78985000D03*
X142300000Y-79485000D03*
X142300000Y-79985000D03*
D10*
X111020000Y-80800000D03*
X111980000Y-80800000D03*
D24*
X142570000Y-74800000D03*
X140200000Y-74800000D03*
D25*
X110600000Y-94750000D03*
X110600000Y-90600000D03*
X112750000Y-94750000D03*
X112750000Y-90600000D03*
D14*
X140500000Y-80660000D03*
X140500000Y-79110000D03*
D26*
X116650000Y-86420000D03*
X116650000Y-87380000D03*
D27*
X111015000Y-81900000D03*
X111985000Y-81900000D03*
D13*
X112700000Y-82980000D03*
X112700000Y-84000000D03*
D28*
X133450000Y-77997500D03*
X133450000Y-77157500D03*
D25*
X118775000Y-90600000D03*
X118775000Y-94750000D03*
X116625000Y-90600000D03*
X116625000Y-94750000D03*
D10*
X122120000Y-84350000D03*
X123080000Y-84350000D03*
D14*
X145400000Y-78475000D03*
X145400000Y-76925000D03*
D29*
X115660000Y-76960000D03*
X114700000Y-76960000D03*
D30*
X120390000Y-86900000D03*
X121410000Y-86900000D03*
D27*
X112015000Y-79280000D03*
X112985000Y-79280000D03*
D22*
X146450000Y-85500000D03*
X149750000Y-85500000D03*
X146450000Y-83000000D03*
X149750000Y-83000000D03*
D17*
X114200000Y-91310000D03*
X114200000Y-90290000D03*
D29*
X115650000Y-78060000D03*
X114690000Y-78060000D03*
D17*
X126900000Y-90270000D03*
X126900000Y-89250000D03*
D30*
X122090000Y-81900000D03*
X123110000Y-81900000D03*
X138440000Y-85050000D03*
X139460000Y-85050000D03*
D13*
X143500000Y-81510000D03*
X143500000Y-82530000D03*
D11*
X113000000Y-78260000D03*
X113000000Y-77300000D03*
D17*
X124700000Y-90270000D03*
X124700000Y-89250000D03*
D31*
X132730000Y-88555000D03*
X133530000Y-88555000D03*
X134830000Y-88555000D03*
X135830000Y-88555000D03*
X136330000Y-88555000D03*
X137330000Y-88555000D03*
X138630000Y-88555000D03*
X139430000Y-88555000D03*
X139130000Y-88555000D03*
X138330000Y-88555000D03*
X137830000Y-88555000D03*
X136830000Y-88555000D03*
X135330000Y-88555000D03*
X134330000Y-88555000D03*
X133830000Y-88555000D03*
X133030000Y-88555000D03*
D32*
X124950000Y-73975000D03*
X124950000Y-72325000D03*
D13*
X144800000Y-81500000D03*
X144800000Y-82520000D03*
D33*
X111300000Y-83225000D03*
X111300000Y-84775000D03*
D26*
X120680000Y-75840000D03*
X120680000Y-76800000D03*
D17*
X142200000Y-82530000D03*
X142200000Y-81510000D03*
D32*
X108900000Y-94875000D03*
X108900000Y-93225000D03*
D11*
X112000000Y-78260000D03*
X112000000Y-77300000D03*
D34*
X171500000Y-83500000D02*
G75*
G02*
X155500000Y-83500000I-8000000J0D01*
G01*
X155500000Y-83500000D02*
G75*
G02*
X171500000Y-83500000I8000000J0D01*
G01*
X99500000Y-71500000D02*
X173500000Y-71500000D01*
X173500000Y-96000000D01*
X99500000Y-96000000D01*
X99500000Y-71500000D01*
M02*
