G04 #@! TF.GenerationSoftware,KiCad,Pcbnew,8.0.4*
G04 #@! TF.CreationDate,2024-08-27T21:07:45-03:00*
G04 #@! TF.ProjectId,memo,6d656d6f-2e6b-4696-9361-645f70636258,rev?*
G04 #@! TF.SameCoordinates,Original*
G04 #@! TF.FileFunction,Copper,L3,Inr*
G04 #@! TF.FilePolarity,Positive*
%FSLAX46Y46*%
G04 Gerber Fmt 4.6, Leading zero omitted, Abs format (unit mm)*
G04 Created by KiCad (PCBNEW 8.0.4) date 2024-08-27 21:07:45*
%MOMM*%
%LPD*%
G01*
G04 APERTURE LIST*
G04 #@! TA.AperFunction,ComponentPad*
%ADD10R,1.000000X1.000000*%
G04 #@! TD*
G04 #@! TA.AperFunction,ComponentPad*
%ADD11O,1.000000X1.000000*%
G04 #@! TD*
G04 #@! TA.AperFunction,ComponentPad*
%ADD12O,1.000000X2.100000*%
G04 #@! TD*
G04 #@! TA.AperFunction,ComponentPad*
%ADD13O,1.000000X1.600000*%
G04 #@! TD*
G04 #@! TA.AperFunction,ComponentPad*
%ADD14R,2.000000X2.000000*%
G04 #@! TD*
G04 #@! TA.AperFunction,ComponentPad*
%ADD15C,2.000000*%
G04 #@! TD*
G04 #@! TA.AperFunction,ViaPad*
%ADD16C,0.609600*%
G04 #@! TD*
G04 #@! TA.AperFunction,ViaPad*
%ADD17C,0.762000*%
G04 #@! TD*
G04 #@! TA.AperFunction,Profile*
%ADD18C,0.100000*%
G04 #@! TD*
G04 APERTURE END LIST*
D10*
X128625000Y-94000000D03*
D11*
X127355000Y-94000000D03*
X126085000Y-94000000D03*
X124815000Y-94000000D03*
X123545000Y-94000000D03*
X122275000Y-94000000D03*
D10*
X127000000Y-73050000D03*
D11*
X128270000Y-73050000D03*
X129540000Y-73050000D03*
X130810000Y-73050000D03*
D12*
X131760000Y-89120000D03*
D13*
X131760000Y-93300000D03*
D12*
X140400000Y-89120000D03*
D13*
X140400000Y-93300000D03*
D14*
X150050000Y-77985000D03*
D15*
X150050000Y-89485000D03*
D16*
X134800000Y-73300000D03*
X121400000Y-91500000D03*
X142700000Y-84800000D03*
X140300000Y-85000000D03*
X151100000Y-80500000D03*
X111300000Y-86200000D03*
X109000000Y-84500000D03*
X107800000Y-92900000D03*
X109000000Y-86900000D03*
X107800000Y-83300000D03*
X107800000Y-84500000D03*
X110200000Y-78400000D03*
X106600000Y-83300000D03*
X123900000Y-84350000D03*
X121850000Y-75850000D03*
X145650000Y-79550000D03*
X109000000Y-79900000D03*
X120650000Y-73150000D03*
D17*
X118850000Y-83350000D03*
D16*
X107800000Y-82100000D03*
X106700000Y-77900000D03*
X109000000Y-91700000D03*
X109000000Y-83300000D03*
X106600000Y-75600000D03*
X110200000Y-80200000D03*
X106600000Y-91700000D03*
X106600000Y-89300000D03*
X117600000Y-77400000D03*
X144850000Y-86300000D03*
X117000000Y-77400000D03*
X138550000Y-78050000D03*
X137950000Y-73250000D03*
X107800000Y-79700000D03*
D17*
X116350000Y-83350000D03*
D16*
X109000000Y-75600000D03*
X106600000Y-84500000D03*
X107800000Y-88100000D03*
X137950000Y-75050000D03*
X109000000Y-74400000D03*
X118400000Y-72200000D03*
X115150000Y-74650000D03*
X123900000Y-83350000D03*
X144800000Y-73250000D03*
X116300000Y-73150000D03*
X106600000Y-92900000D03*
X143500000Y-83450000D03*
X106900000Y-76750000D03*
X142850000Y-80850000D03*
X106600000Y-72000000D03*
X121300000Y-82600000D03*
X109000000Y-90500000D03*
X129550000Y-76250000D03*
X144800000Y-83450000D03*
X123400000Y-89225000D03*
X107800000Y-91700000D03*
X107800000Y-80900000D03*
X107800000Y-86900000D03*
X106600000Y-86900000D03*
X116700000Y-88150000D03*
X106600000Y-73200000D03*
X107800000Y-72000000D03*
X112000000Y-76300000D03*
X119450000Y-73150000D03*
X145400000Y-75550000D03*
X106600000Y-74400000D03*
X106600000Y-90500000D03*
X129550000Y-84800000D03*
X107800000Y-95300000D03*
X107800000Y-77900000D03*
X109000000Y-82100000D03*
X109000000Y-89300000D03*
X112500000Y-80200000D03*
D17*
X135100000Y-80975000D03*
D16*
X109000000Y-76800000D03*
X114650000Y-86150000D03*
X143700000Y-88400000D03*
X114850000Y-79550000D03*
X121850000Y-74650000D03*
X106600000Y-82100000D03*
X113800000Y-77000000D03*
X107800000Y-85700000D03*
D17*
X117600000Y-82050000D03*
D16*
X128875000Y-88600000D03*
X142350000Y-78150000D03*
X115700000Y-87950000D03*
D17*
X116350000Y-80850000D03*
D16*
X150075000Y-92200000D03*
X107800000Y-89300000D03*
X114000000Y-82200000D03*
D17*
X118850000Y-80850000D03*
D16*
X109000000Y-72000000D03*
X110900000Y-77300000D03*
X121300000Y-80750000D03*
X139700000Y-82200000D03*
X120950000Y-85950000D03*
X106600000Y-95300000D03*
X107800000Y-94100000D03*
X109000000Y-80900000D03*
X113950000Y-78100000D03*
X120800000Y-89250000D03*
X109000000Y-77900000D03*
X120650000Y-74650000D03*
X107800000Y-74400000D03*
X109000000Y-88100000D03*
X109000000Y-73200000D03*
X107800000Y-90500000D03*
X140500000Y-78150000D03*
X106600000Y-85700000D03*
X111300000Y-88150000D03*
X106600000Y-79800000D03*
X107800000Y-76800000D03*
X114500000Y-78900000D03*
X106600000Y-88100000D03*
X113000000Y-76300000D03*
X110100000Y-84800000D03*
X107800000Y-73200000D03*
X106600000Y-80900000D03*
X129550000Y-82200000D03*
X107800000Y-75600000D03*
X106600000Y-94100000D03*
X109000000Y-85700000D03*
X114700000Y-76100000D03*
X128900000Y-92200000D03*
D17*
X130800000Y-77200000D03*
X123100000Y-86900000D03*
D16*
X115650000Y-76100000D03*
X122250000Y-88875000D03*
D17*
X112700000Y-85100000D03*
X117726527Y-87273473D03*
X115150000Y-91300000D03*
X123110000Y-81900000D03*
X135400000Y-86350000D03*
X138900000Y-86550000D03*
X147400000Y-73650000D03*
X133200000Y-86550000D03*
D16*
X121200000Y-90250000D03*
X143200000Y-90000000D03*
X120000000Y-86000000D03*
X118775000Y-89650000D03*
X151150000Y-83000000D03*
X114800000Y-85300000D03*
D17*
X145500000Y-94050000D03*
X145500000Y-91350000D03*
G04 #@! TA.AperFunction,Conductor*
G36*
X173305631Y-71672113D02*
G01*
X173342176Y-71722413D01*
X173347100Y-71753500D01*
X173347100Y-95746500D01*
X173327887Y-95805631D01*
X173277587Y-95842176D01*
X173246500Y-95847100D01*
X106000600Y-95847100D01*
X105941469Y-95827887D01*
X105904924Y-95777587D01*
X105900000Y-95746500D01*
X105900000Y-94000000D01*
X121566132Y-94000000D01*
X121572202Y-94049996D01*
X121586730Y-94169642D01*
X121647329Y-94329427D01*
X121647329Y-94329428D01*
X121744404Y-94470065D01*
X121744408Y-94470069D01*
X121872314Y-94583385D01*
X121872315Y-94583386D01*
X121872317Y-94583387D01*
X122023628Y-94662801D01*
X122023629Y-94662801D01*
X122023632Y-94662803D01*
X122189555Y-94703700D01*
X122189559Y-94703700D01*
X122360441Y-94703700D01*
X122360445Y-94703700D01*
X122526368Y-94662803D01*
X122677683Y-94583387D01*
X122805595Y-94470066D01*
X122827209Y-94438752D01*
X122876609Y-94401003D01*
X122938765Y-94399500D01*
X122989934Y-94434819D01*
X122992771Y-94438723D01*
X123014405Y-94470066D01*
X123014406Y-94470067D01*
X123014408Y-94470069D01*
X123142314Y-94583385D01*
X123142315Y-94583386D01*
X123142317Y-94583387D01*
X123293628Y-94662801D01*
X123293629Y-94662801D01*
X123293632Y-94662803D01*
X123459555Y-94703700D01*
X123459559Y-94703700D01*
X123630441Y-94703700D01*
X123630445Y-94703700D01*
X123796368Y-94662803D01*
X123947683Y-94583387D01*
X124075595Y-94470066D01*
X124097209Y-94438752D01*
X124146609Y-94401003D01*
X124208765Y-94399500D01*
X124259934Y-94434819D01*
X124262771Y-94438723D01*
X124284405Y-94470066D01*
X124284406Y-94470067D01*
X124284408Y-94470069D01*
X124412314Y-94583385D01*
X124412315Y-94583386D01*
X124412317Y-94583387D01*
X124563628Y-94662801D01*
X124563629Y-94662801D01*
X124563632Y-94662803D01*
X124729555Y-94703700D01*
X124729559Y-94703700D01*
X124900441Y-94703700D01*
X124900445Y-94703700D01*
X125066368Y-94662803D01*
X125217683Y-94583387D01*
X125345595Y-94470066D01*
X125367209Y-94438752D01*
X125416609Y-94401003D01*
X125478765Y-94399500D01*
X125529934Y-94434819D01*
X125532771Y-94438723D01*
X125554405Y-94470066D01*
X125554406Y-94470067D01*
X125554408Y-94470069D01*
X125682314Y-94583385D01*
X125682315Y-94583386D01*
X125682317Y-94583387D01*
X125833628Y-94662801D01*
X125833629Y-94662801D01*
X125833632Y-94662803D01*
X125999555Y-94703700D01*
X125999559Y-94703700D01*
X126170441Y-94703700D01*
X126170445Y-94703700D01*
X126336368Y-94662803D01*
X126487683Y-94583387D01*
X126615595Y-94470066D01*
X126637209Y-94438752D01*
X126686609Y-94401003D01*
X126748765Y-94399500D01*
X126799934Y-94434819D01*
X126802771Y-94438723D01*
X126824405Y-94470066D01*
X126824406Y-94470067D01*
X126824408Y-94470069D01*
X126952314Y-94583385D01*
X126952315Y-94583386D01*
X126952317Y-94583387D01*
X127103628Y-94662801D01*
X127103629Y-94662801D01*
X127103632Y-94662803D01*
X127269555Y-94703700D01*
X127269559Y-94703700D01*
X127440441Y-94703700D01*
X127440445Y-94703700D01*
X127606368Y-94662803D01*
X127757683Y-94583387D01*
X127783223Y-94560759D01*
X127840222Y-94535930D01*
X127900931Y-94549345D01*
X127933578Y-94580169D01*
X127959959Y-94619650D01*
X127978140Y-94646860D01*
X128045520Y-94691881D01*
X128104936Y-94703700D01*
X128104937Y-94703700D01*
X129145063Y-94703700D01*
X129145064Y-94703700D01*
X129204480Y-94691881D01*
X129271860Y-94646860D01*
X129316881Y-94579480D01*
X129328700Y-94520064D01*
X129328700Y-94049996D01*
X144910255Y-94049996D01*
X144910255Y-94050003D01*
X144930349Y-94202637D01*
X144989263Y-94344868D01*
X144989267Y-94344875D01*
X145032336Y-94401003D01*
X145082987Y-94467013D01*
X145086966Y-94470066D01*
X145205124Y-94560732D01*
X145205131Y-94560736D01*
X145347362Y-94619650D01*
X145499997Y-94639745D01*
X145500000Y-94639745D01*
X145500003Y-94639745D01*
X145652637Y-94619650D01*
X145740186Y-94583386D01*
X145794873Y-94560734D01*
X145917013Y-94467013D01*
X146010734Y-94344873D01*
X146069650Y-94202637D01*
X146089745Y-94050000D01*
X146089745Y-94049996D01*
X146069650Y-93897363D01*
X146010734Y-93755128D01*
X145917013Y-93632987D01*
X145794870Y-93539264D01*
X145794868Y-93539263D01*
X145652637Y-93480349D01*
X145500003Y-93460255D01*
X145499997Y-93460255D01*
X145347363Y-93480349D01*
X145205128Y-93539265D01*
X145082987Y-93632987D01*
X144989265Y-93755128D01*
X144930349Y-93897363D01*
X144910255Y-94049996D01*
X129328700Y-94049996D01*
X129328700Y-93479936D01*
X129316881Y-93420520D01*
X129271860Y-93353140D01*
X129204480Y-93308119D01*
X129204479Y-93308118D01*
X129156882Y-93298650D01*
X129145064Y-93296300D01*
X128104936Y-93296300D01*
X128095078Y-93298260D01*
X128045520Y-93308118D01*
X127978139Y-93353141D01*
X127978138Y-93353142D01*
X127933578Y-93419830D01*
X127884751Y-93458321D01*
X127822625Y-93460762D01*
X127783223Y-93439239D01*
X127757685Y-93416614D01*
X127757684Y-93416613D01*
X127606370Y-93337198D01*
X127606372Y-93337198D01*
X127440445Y-93296300D01*
X127269555Y-93296300D01*
X127269554Y-93296300D01*
X127103628Y-93337198D01*
X126952315Y-93416613D01*
X126952314Y-93416614D01*
X126824408Y-93529930D01*
X126824406Y-93529933D01*
X126802791Y-93561247D01*
X126753389Y-93598996D01*
X126691232Y-93600497D01*
X126640065Y-93565177D01*
X126637209Y-93561247D01*
X126622036Y-93539266D01*
X126615595Y-93529934D01*
X126615591Y-93529931D01*
X126615591Y-93529930D01*
X126487685Y-93416614D01*
X126487684Y-93416613D01*
X126336370Y-93337198D01*
X126336372Y-93337198D01*
X126170445Y-93296300D01*
X125999555Y-93296300D01*
X125999554Y-93296300D01*
X125833628Y-93337198D01*
X125682315Y-93416613D01*
X125682314Y-93416614D01*
X125554408Y-93529930D01*
X125554406Y-93529933D01*
X125532791Y-93561247D01*
X125483389Y-93598996D01*
X125421232Y-93600497D01*
X125370065Y-93565177D01*
X125367209Y-93561247D01*
X125352036Y-93539266D01*
X125345595Y-93529934D01*
X125345591Y-93529931D01*
X125345591Y-93529930D01*
X125217685Y-93416614D01*
X125217684Y-93416613D01*
X125066370Y-93337198D01*
X125066372Y-93337198D01*
X124900445Y-93296300D01*
X124729555Y-93296300D01*
X124729554Y-93296300D01*
X124563628Y-93337198D01*
X124412315Y-93416613D01*
X124412314Y-93416614D01*
X124284408Y-93529930D01*
X124284406Y-93529933D01*
X124262791Y-93561247D01*
X124213389Y-93598996D01*
X124151232Y-93600497D01*
X124100065Y-93565177D01*
X124097209Y-93561247D01*
X124082036Y-93539266D01*
X124075595Y-93529934D01*
X124075591Y-93529931D01*
X124075591Y-93529930D01*
X123947685Y-93416614D01*
X123947684Y-93416613D01*
X123796370Y-93337198D01*
X123796372Y-93337198D01*
X123630445Y-93296300D01*
X123459555Y-93296300D01*
X123459554Y-93296300D01*
X123293628Y-93337198D01*
X123142315Y-93416613D01*
X123142314Y-93416614D01*
X123014408Y-93529930D01*
X123014406Y-93529933D01*
X122992791Y-93561247D01*
X122943389Y-93598996D01*
X122881232Y-93600497D01*
X122830065Y-93565177D01*
X122827209Y-93561247D01*
X122812036Y-93539266D01*
X122805595Y-93529934D01*
X122805591Y-93529931D01*
X122805591Y-93529930D01*
X122677685Y-93416614D01*
X122677684Y-93416613D01*
X122526370Y-93337198D01*
X122526372Y-93337198D01*
X122360445Y-93296300D01*
X122189555Y-93296300D01*
X122189554Y-93296300D01*
X122023628Y-93337198D01*
X121872315Y-93416613D01*
X121872314Y-93416614D01*
X121744408Y-93529930D01*
X121744404Y-93529934D01*
X121647329Y-93670571D01*
X121647329Y-93670572D01*
X121647329Y-93670573D01*
X121586730Y-93830357D01*
X121566132Y-94000000D01*
X105900000Y-94000000D01*
X105900000Y-91299996D01*
X114560255Y-91299996D01*
X114560255Y-91300003D01*
X114580349Y-91452637D01*
X114639263Y-91594868D01*
X114639267Y-91594875D01*
X114722230Y-91702995D01*
X114732987Y-91717013D01*
X114732990Y-91717015D01*
X114855124Y-91810732D01*
X114855131Y-91810736D01*
X114997362Y-91869650D01*
X115149997Y-91889745D01*
X115150000Y-91889745D01*
X115150003Y-91889745D01*
X115302637Y-91869650D01*
X115444868Y-91810736D01*
X115444867Y-91810736D01*
X115444873Y-91810734D01*
X115567013Y-91717013D01*
X115660734Y-91594873D01*
X115719650Y-91452637D01*
X115733162Y-91350003D01*
X115733163Y-91349996D01*
X144910255Y-91349996D01*
X144910255Y-91350003D01*
X144930349Y-91502637D01*
X144989263Y-91644868D01*
X144989267Y-91644875D01*
X144995425Y-91652900D01*
X145082987Y-91767013D01*
X145082990Y-91767015D01*
X145205124Y-91860732D01*
X145205131Y-91860736D01*
X145347362Y-91919650D01*
X145499997Y-91939745D01*
X145500000Y-91939745D01*
X145500003Y-91939745D01*
X145652637Y-91919650D01*
X145794868Y-91860736D01*
X145794867Y-91860736D01*
X145794873Y-91860734D01*
X145917013Y-91767013D01*
X146010734Y-91644873D01*
X146069650Y-91502637D01*
X146089745Y-91350000D01*
X146089745Y-91349996D01*
X146069650Y-91197363D01*
X146010734Y-91055128D01*
X145917013Y-90932987D01*
X145794873Y-90839266D01*
X145794872Y-90839265D01*
X145794870Y-90839264D01*
X145794868Y-90839263D01*
X145652637Y-90780349D01*
X145500003Y-90760255D01*
X145499997Y-90760255D01*
X145347363Y-90780349D01*
X145205128Y-90839265D01*
X145082987Y-90932987D01*
X144989265Y-91055128D01*
X144930349Y-91197363D01*
X144910255Y-91349996D01*
X115733163Y-91349996D01*
X115739745Y-91300003D01*
X115739745Y-91299996D01*
X115719650Y-91147363D01*
X115660734Y-91005128D01*
X115567013Y-90882987D01*
X115510032Y-90839264D01*
X115444873Y-90789266D01*
X115444872Y-90789265D01*
X115444870Y-90789264D01*
X115444868Y-90789263D01*
X115302637Y-90730349D01*
X115150003Y-90710255D01*
X115149997Y-90710255D01*
X114997363Y-90730349D01*
X114855128Y-90789265D01*
X114732987Y-90882987D01*
X114639265Y-91005128D01*
X114580349Y-91147363D01*
X114560255Y-91299996D01*
X105900000Y-91299996D01*
X105900000Y-90250000D01*
X120686271Y-90250000D01*
X120707080Y-90394733D01*
X120767822Y-90527740D01*
X120767823Y-90527741D01*
X120767824Y-90527743D01*
X120863579Y-90638250D01*
X120986589Y-90717304D01*
X121126889Y-90758500D01*
X121273111Y-90758500D01*
X121413411Y-90717304D01*
X121536421Y-90638250D01*
X121632176Y-90527743D01*
X121692919Y-90394734D01*
X121713729Y-90250000D01*
X121692919Y-90105266D01*
X121644846Y-90000000D01*
X142686271Y-90000000D01*
X142707080Y-90144733D01*
X142767822Y-90277740D01*
X142767823Y-90277741D01*
X142767824Y-90277743D01*
X142863579Y-90388250D01*
X142986589Y-90467304D01*
X143126889Y-90508500D01*
X143273111Y-90508500D01*
X143413411Y-90467304D01*
X143536421Y-90388250D01*
X143632176Y-90277743D01*
X143692919Y-90144734D01*
X143713729Y-90000000D01*
X143692919Y-89855266D01*
X143665275Y-89794733D01*
X143632177Y-89722259D01*
X143632176Y-89722258D01*
X143632176Y-89722257D01*
X143536421Y-89611750D01*
X143459767Y-89562487D01*
X143413410Y-89532695D01*
X143273111Y-89491500D01*
X143126889Y-89491500D01*
X142986590Y-89532695D01*
X142986589Y-89532695D01*
X142863577Y-89611751D01*
X142767822Y-89722259D01*
X142707080Y-89855266D01*
X142686271Y-90000000D01*
X121644846Y-90000000D01*
X121632176Y-89972257D01*
X121536421Y-89861750D01*
X121474916Y-89822223D01*
X121413410Y-89782695D01*
X121273111Y-89741500D01*
X121126889Y-89741500D01*
X120986590Y-89782695D01*
X120986589Y-89782695D01*
X120863577Y-89861751D01*
X120767822Y-89972259D01*
X120707080Y-90105266D01*
X120686271Y-90250000D01*
X105900000Y-90250000D01*
X105900000Y-89650000D01*
X118261271Y-89650000D01*
X118282080Y-89794733D01*
X118342822Y-89927740D01*
X118342823Y-89927741D01*
X118342824Y-89927743D01*
X118438579Y-90038250D01*
X118561589Y-90117304D01*
X118701889Y-90158500D01*
X118848111Y-90158500D01*
X118988411Y-90117304D01*
X119111421Y-90038250D01*
X119207176Y-89927743D01*
X119267919Y-89794734D01*
X119288729Y-89650000D01*
X119267919Y-89505266D01*
X119233748Y-89430442D01*
X119207177Y-89372259D01*
X119207176Y-89372258D01*
X119207176Y-89372257D01*
X119111421Y-89261750D01*
X119049916Y-89222223D01*
X118988410Y-89182695D01*
X118848111Y-89141500D01*
X118701889Y-89141500D01*
X118561590Y-89182695D01*
X118561589Y-89182695D01*
X118438577Y-89261751D01*
X118342822Y-89372259D01*
X118282080Y-89505266D01*
X118261271Y-89650000D01*
X105900000Y-89650000D01*
X105900000Y-88875000D01*
X121736271Y-88875000D01*
X121757080Y-89019733D01*
X121817822Y-89152740D01*
X121817823Y-89152741D01*
X121817824Y-89152743D01*
X121913579Y-89263250D01*
X122036589Y-89342304D01*
X122176889Y-89383500D01*
X122323111Y-89383500D01*
X122463411Y-89342304D01*
X122586421Y-89263250D01*
X122682176Y-89152743D01*
X122742919Y-89019734D01*
X122763729Y-88875000D01*
X122742919Y-88730266D01*
X122682176Y-88597257D01*
X122586421Y-88486750D01*
X122524916Y-88447223D01*
X122463410Y-88407695D01*
X122323111Y-88366500D01*
X122176889Y-88366500D01*
X122036590Y-88407695D01*
X122036589Y-88407695D01*
X121913577Y-88486751D01*
X121817822Y-88597259D01*
X121757080Y-88730266D01*
X121736271Y-88875000D01*
X105900000Y-88875000D01*
X105900000Y-87273469D01*
X117136782Y-87273469D01*
X117136782Y-87273476D01*
X117156876Y-87426110D01*
X117215790Y-87568341D01*
X117215794Y-87568348D01*
X117298757Y-87676468D01*
X117309514Y-87690486D01*
X117309517Y-87690488D01*
X117431651Y-87784205D01*
X117431658Y-87784209D01*
X117573889Y-87843123D01*
X117726524Y-87863218D01*
X117726527Y-87863218D01*
X117726530Y-87863218D01*
X117879164Y-87843123D01*
X118021395Y-87784209D01*
X118021394Y-87784209D01*
X118021400Y-87784207D01*
X118143540Y-87690486D01*
X118237261Y-87568346D01*
X118296177Y-87426110D01*
X118310540Y-87317013D01*
X118316272Y-87273476D01*
X118316272Y-87273469D01*
X118296177Y-87120836D01*
X118237261Y-86978601D01*
X118176946Y-86899996D01*
X122510255Y-86899996D01*
X122510255Y-86900003D01*
X122530349Y-87052637D01*
X122589263Y-87194868D01*
X122589267Y-87194875D01*
X122649578Y-87273473D01*
X122682987Y-87317013D01*
X122682990Y-87317015D01*
X122805124Y-87410732D01*
X122805131Y-87410736D01*
X122947362Y-87469650D01*
X123099997Y-87489745D01*
X123100000Y-87489745D01*
X123100003Y-87489745D01*
X123252637Y-87469650D01*
X123394868Y-87410736D01*
X123394867Y-87410736D01*
X123394873Y-87410734D01*
X123517013Y-87317013D01*
X123610734Y-87194873D01*
X123669650Y-87052637D01*
X123679397Y-86978601D01*
X123689745Y-86900003D01*
X123689745Y-86899996D01*
X123669650Y-86747363D01*
X123610734Y-86605128D01*
X123568430Y-86549996D01*
X132610255Y-86549996D01*
X132610255Y-86550003D01*
X132630349Y-86702637D01*
X132689263Y-86844868D01*
X132689267Y-86844875D01*
X132746644Y-86919650D01*
X132782987Y-86967013D01*
X132782990Y-86967015D01*
X132905124Y-87060732D01*
X132905131Y-87060736D01*
X133047362Y-87119650D01*
X133199997Y-87139745D01*
X133200000Y-87139745D01*
X133200003Y-87139745D01*
X133352637Y-87119650D01*
X133494868Y-87060736D01*
X133494867Y-87060736D01*
X133494873Y-87060734D01*
X133617013Y-86967013D01*
X133710734Y-86844873D01*
X133769650Y-86702637D01*
X133772139Y-86683728D01*
X133789745Y-86550003D01*
X133789745Y-86549996D01*
X133769650Y-86397363D01*
X133750030Y-86349996D01*
X134810255Y-86349996D01*
X134810255Y-86350003D01*
X134830349Y-86502637D01*
X134889263Y-86644868D01*
X134889267Y-86644875D01*
X134934499Y-86703822D01*
X134982987Y-86767013D01*
X134982990Y-86767015D01*
X135105124Y-86860732D01*
X135105131Y-86860736D01*
X135247362Y-86919650D01*
X135399997Y-86939745D01*
X135400000Y-86939745D01*
X135400003Y-86939745D01*
X135552637Y-86919650D01*
X135694868Y-86860736D01*
X135694867Y-86860736D01*
X135694873Y-86860734D01*
X135817013Y-86767013D01*
X135910734Y-86644873D01*
X135950033Y-86549996D01*
X138310255Y-86549996D01*
X138310255Y-86550003D01*
X138330349Y-86702637D01*
X138389263Y-86844868D01*
X138389267Y-86844875D01*
X138446644Y-86919650D01*
X138482987Y-86967013D01*
X138482990Y-86967015D01*
X138605124Y-87060732D01*
X138605131Y-87060736D01*
X138747362Y-87119650D01*
X138899997Y-87139745D01*
X138900000Y-87139745D01*
X138900003Y-87139745D01*
X139052637Y-87119650D01*
X139194868Y-87060736D01*
X139194867Y-87060736D01*
X139194873Y-87060734D01*
X139317013Y-86967013D01*
X139410734Y-86844873D01*
X139469650Y-86702637D01*
X139472139Y-86683728D01*
X139489745Y-86550003D01*
X139489745Y-86549996D01*
X139469650Y-86397363D01*
X139410734Y-86255128D01*
X139317013Y-86132987D01*
X139194870Y-86039264D01*
X139194868Y-86039263D01*
X139052637Y-85980349D01*
X138900003Y-85960255D01*
X138899997Y-85960255D01*
X138747363Y-85980349D01*
X138605128Y-86039265D01*
X138482987Y-86132987D01*
X138389265Y-86255128D01*
X138330349Y-86397363D01*
X138310255Y-86549996D01*
X135950033Y-86549996D01*
X135969650Y-86502637D01*
X135984576Y-86389263D01*
X135989745Y-86350003D01*
X135989745Y-86349996D01*
X135969650Y-86197363D01*
X135910734Y-86055128D01*
X135817013Y-85932987D01*
X135694873Y-85839266D01*
X135694872Y-85839265D01*
X135694870Y-85839264D01*
X135694868Y-85839263D01*
X135552637Y-85780349D01*
X135400003Y-85760255D01*
X135399997Y-85760255D01*
X135247363Y-85780349D01*
X135105128Y-85839265D01*
X134982987Y-85932987D01*
X134889265Y-86055128D01*
X134830349Y-86197363D01*
X134810255Y-86349996D01*
X133750030Y-86349996D01*
X133710734Y-86255128D01*
X133617013Y-86132987D01*
X133494870Y-86039264D01*
X133494868Y-86039263D01*
X133352637Y-85980349D01*
X133200003Y-85960255D01*
X133199997Y-85960255D01*
X133047363Y-85980349D01*
X132905128Y-86039265D01*
X132782987Y-86132987D01*
X132689265Y-86255128D01*
X132630349Y-86397363D01*
X132610255Y-86549996D01*
X123568430Y-86549996D01*
X123517013Y-86482987D01*
X123394870Y-86389264D01*
X123394868Y-86389263D01*
X123252637Y-86330349D01*
X123100003Y-86310255D01*
X123099997Y-86310255D01*
X122947363Y-86330349D01*
X122805128Y-86389265D01*
X122682987Y-86482987D01*
X122589265Y-86605128D01*
X122530349Y-86747363D01*
X122510255Y-86899996D01*
X118176946Y-86899996D01*
X118143540Y-86856460D01*
X118128433Y-86844868D01*
X118021400Y-86762739D01*
X118021399Y-86762738D01*
X118021397Y-86762737D01*
X118021395Y-86762736D01*
X117879164Y-86703822D01*
X117726530Y-86683728D01*
X117726524Y-86683728D01*
X117573890Y-86703822D01*
X117431655Y-86762738D01*
X117309514Y-86856460D01*
X117215792Y-86978601D01*
X117156876Y-87120836D01*
X117136782Y-87273469D01*
X105900000Y-87273469D01*
X105900000Y-86000000D01*
X119486271Y-86000000D01*
X119507080Y-86144733D01*
X119567822Y-86277740D01*
X119567823Y-86277741D01*
X119567824Y-86277743D01*
X119663579Y-86388250D01*
X119786589Y-86467304D01*
X119926889Y-86508500D01*
X120073111Y-86508500D01*
X120213411Y-86467304D01*
X120336421Y-86388250D01*
X120432176Y-86277743D01*
X120492919Y-86144734D01*
X120513729Y-86000000D01*
X120492919Y-85855266D01*
X120432176Y-85722257D01*
X120336421Y-85611750D01*
X120274916Y-85572223D01*
X120213410Y-85532695D01*
X120073111Y-85491500D01*
X119926889Y-85491500D01*
X119786590Y-85532695D01*
X119786589Y-85532695D01*
X119663577Y-85611751D01*
X119567822Y-85722259D01*
X119507080Y-85855266D01*
X119486271Y-86000000D01*
X105900000Y-86000000D01*
X105900000Y-85099996D01*
X112110255Y-85099996D01*
X112110255Y-85100003D01*
X112130349Y-85252637D01*
X112189263Y-85394868D01*
X112189267Y-85394875D01*
X112263410Y-85491500D01*
X112282987Y-85517013D01*
X112303426Y-85532696D01*
X112405124Y-85610732D01*
X112405131Y-85610736D01*
X112547362Y-85669650D01*
X112699997Y-85689745D01*
X112700000Y-85689745D01*
X112700003Y-85689745D01*
X112852637Y-85669650D01*
X112994868Y-85610736D01*
X112994867Y-85610736D01*
X112994873Y-85610734D01*
X113117013Y-85517013D01*
X113210734Y-85394873D01*
X113250032Y-85300000D01*
X114286271Y-85300000D01*
X114307080Y-85444733D01*
X114367822Y-85577740D01*
X114367823Y-85577741D01*
X114367824Y-85577743D01*
X114463579Y-85688250D01*
X114586589Y-85767304D01*
X114726889Y-85808500D01*
X114873111Y-85808500D01*
X115013411Y-85767304D01*
X115136421Y-85688250D01*
X115232176Y-85577743D01*
X115292919Y-85444734D01*
X115313729Y-85300000D01*
X115292919Y-85155266D01*
X115232176Y-85022257D01*
X115136421Y-84911750D01*
X115016808Y-84834879D01*
X115013410Y-84832695D01*
X114873111Y-84791500D01*
X114726889Y-84791500D01*
X114586590Y-84832695D01*
X114586589Y-84832695D01*
X114463577Y-84911751D01*
X114367822Y-85022259D01*
X114307080Y-85155266D01*
X114286271Y-85300000D01*
X113250032Y-85300000D01*
X113269650Y-85252637D01*
X113289745Y-85100000D01*
X113289745Y-85099996D01*
X113269650Y-84947363D01*
X113210734Y-84805128D01*
X113117013Y-84682987D01*
X113054939Y-84635356D01*
X112994873Y-84589266D01*
X112994872Y-84589265D01*
X112994870Y-84589264D01*
X112994868Y-84589263D01*
X112852637Y-84530349D01*
X112700003Y-84510255D01*
X112699997Y-84510255D01*
X112547363Y-84530349D01*
X112405128Y-84589265D01*
X112282987Y-84682987D01*
X112189265Y-84805128D01*
X112130349Y-84947363D01*
X112110255Y-85099996D01*
X105900000Y-85099996D01*
X105900000Y-83605517D01*
X124274500Y-83605517D01*
X124274500Y-83864482D01*
X124308299Y-84121223D01*
X124308300Y-84121230D01*
X124375324Y-84371366D01*
X124375325Y-84371368D01*
X124474425Y-84610615D01*
X124603903Y-84834879D01*
X124761552Y-85040332D01*
X124944667Y-85223447D01*
X125150120Y-85381096D01*
X125374384Y-85510574D01*
X125613631Y-85609674D01*
X125613633Y-85609675D01*
X125863769Y-85676699D01*
X125863776Y-85676700D01*
X126120518Y-85710500D01*
X126120519Y-85710500D01*
X126379482Y-85710500D01*
X126636223Y-85676700D01*
X126636230Y-85676699D01*
X126886366Y-85609675D01*
X126886368Y-85609674D01*
X126963456Y-85577743D01*
X127125616Y-85510574D01*
X127349884Y-85381093D01*
X127555333Y-85223447D01*
X127738447Y-85040333D01*
X127896093Y-84834884D01*
X128025574Y-84610616D01*
X128124675Y-84371366D01*
X128191699Y-84121230D01*
X128191700Y-84121223D01*
X128225500Y-83864482D01*
X128225500Y-83605517D01*
X128191700Y-83348776D01*
X128191699Y-83348769D01*
X128124675Y-83098633D01*
X128124674Y-83098631D01*
X128083819Y-83000000D01*
X150636271Y-83000000D01*
X150657080Y-83144733D01*
X150717822Y-83277740D01*
X150717823Y-83277741D01*
X150717824Y-83277743D01*
X150813579Y-83388250D01*
X150936589Y-83467304D01*
X151076889Y-83508500D01*
X151223111Y-83508500D01*
X151252059Y-83500000D01*
X155342130Y-83500000D01*
X155362002Y-84069064D01*
X155419567Y-84616759D01*
X155421523Y-84635364D01*
X155520400Y-85196124D01*
X155658153Y-85748620D01*
X155834106Y-86290146D01*
X155834109Y-86290156D01*
X156047410Y-86818095D01*
X156087356Y-86899996D01*
X156297028Y-87329888D01*
X156297034Y-87329900D01*
X156297037Y-87329904D01*
X156505220Y-87690486D01*
X156581734Y-87823012D01*
X156900145Y-88295076D01*
X157250709Y-88743778D01*
X157250712Y-88743781D01*
X157631729Y-89166944D01*
X157731456Y-89263248D01*
X158041320Y-89562479D01*
X158041326Y-89562484D01*
X158041327Y-89562485D01*
X158041329Y-89562487D01*
X158477511Y-89928487D01*
X158477516Y-89928491D01*
X158938168Y-90263175D01*
X158938173Y-90263178D01*
X158938177Y-90263181D01*
X159421065Y-90564923D01*
X159923825Y-90832245D01*
X160444008Y-91063845D01*
X160444014Y-91063847D01*
X160444016Y-91063848D01*
X160444027Y-91063852D01*
X160979074Y-91258593D01*
X160979076Y-91258593D01*
X160979080Y-91258595D01*
X161526433Y-91415546D01*
X162083401Y-91533934D01*
X162647270Y-91613180D01*
X163215294Y-91652900D01*
X163215300Y-91652900D01*
X163784700Y-91652900D01*
X163784706Y-91652900D01*
X164352730Y-91613180D01*
X164916599Y-91533934D01*
X165473567Y-91415546D01*
X166020920Y-91258595D01*
X166555992Y-91063845D01*
X167076175Y-90832245D01*
X167578935Y-90564923D01*
X168061823Y-90263181D01*
X168522486Y-89928489D01*
X168958680Y-89562479D01*
X169368281Y-89166933D01*
X169749291Y-88743778D01*
X170099855Y-88295076D01*
X170418266Y-87823012D01*
X170702972Y-87329888D01*
X170952585Y-86818105D01*
X171165890Y-86290156D01*
X171341848Y-85748614D01*
X171479601Y-85196117D01*
X171578478Y-84635356D01*
X171637998Y-84069064D01*
X171657870Y-83500000D01*
X171637998Y-82930936D01*
X171578478Y-82364644D01*
X171479601Y-81803883D01*
X171341848Y-81251386D01*
X171165890Y-80709844D01*
X170952585Y-80181895D01*
X170702972Y-79670112D01*
X170418266Y-79176988D01*
X170099855Y-78704924D01*
X169749291Y-78256222D01*
X169368281Y-77833067D01*
X169368279Y-77833065D01*
X169368270Y-77833055D01*
X169018072Y-77494875D01*
X168958680Y-77437521D01*
X168958672Y-77437514D01*
X168958670Y-77437512D01*
X168522488Y-77071512D01*
X168522483Y-77071508D01*
X168061831Y-76736824D01*
X167985719Y-76689264D01*
X167578935Y-76435077D01*
X167076175Y-76167755D01*
X166555992Y-75936155D01*
X166555991Y-75936154D01*
X166555983Y-75936151D01*
X166555972Y-75936147D01*
X166020925Y-75741406D01*
X165473564Y-75584453D01*
X164916591Y-75466064D01*
X164352731Y-75386820D01*
X164271583Y-75381145D01*
X163784706Y-75347100D01*
X163215294Y-75347100D01*
X162789276Y-75376890D01*
X162647268Y-75386820D01*
X162083408Y-75466064D01*
X161526435Y-75584453D01*
X160979074Y-75741406D01*
X160444027Y-75936147D01*
X160444016Y-75936151D01*
X160076005Y-76100000D01*
X159923825Y-76167755D01*
X159421065Y-76435077D01*
X159421061Y-76435079D01*
X159421060Y-76435080D01*
X158938168Y-76736824D01*
X158477516Y-77071508D01*
X158477511Y-77071512D01*
X158041329Y-77437512D01*
X158041327Y-77437514D01*
X157631729Y-77833055D01*
X157250712Y-78256218D01*
X156900143Y-78704926D01*
X156900141Y-78704929D01*
X156581738Y-79176982D01*
X156581727Y-79176999D01*
X156297037Y-79670095D01*
X156297022Y-79670124D01*
X156047410Y-80181904D01*
X155834109Y-80709843D01*
X155834106Y-80709853D01*
X155658153Y-81251379D01*
X155520400Y-81803875D01*
X155421523Y-82364635D01*
X155421522Y-82364643D01*
X155421522Y-82364644D01*
X155362002Y-82930936D01*
X155342130Y-83500000D01*
X151252059Y-83500000D01*
X151363411Y-83467304D01*
X151486421Y-83388250D01*
X151582176Y-83277743D01*
X151642919Y-83144734D01*
X151663729Y-83000000D01*
X151642919Y-82855266D01*
X151582176Y-82722257D01*
X151486421Y-82611750D01*
X151424916Y-82572223D01*
X151363410Y-82532695D01*
X151223111Y-82491500D01*
X151076889Y-82491500D01*
X150936590Y-82532695D01*
X150936589Y-82532695D01*
X150813577Y-82611751D01*
X150717822Y-82722259D01*
X150657080Y-82855266D01*
X150636271Y-83000000D01*
X128083819Y-83000000D01*
X128025574Y-82859384D01*
X127896096Y-82635120D01*
X127738447Y-82429667D01*
X127555332Y-82246552D01*
X127349879Y-82088903D01*
X127125615Y-81959425D01*
X126886368Y-81860325D01*
X126886366Y-81860324D01*
X126636230Y-81793300D01*
X126636223Y-81793299D01*
X126379482Y-81759500D01*
X126379481Y-81759500D01*
X126120519Y-81759500D01*
X126120518Y-81759500D01*
X125863776Y-81793299D01*
X125863769Y-81793300D01*
X125613633Y-81860324D01*
X125613631Y-81860325D01*
X125374384Y-81959425D01*
X125150120Y-82088903D01*
X124944667Y-82246552D01*
X124761552Y-82429667D01*
X124603903Y-82635120D01*
X124474425Y-82859384D01*
X124375325Y-83098631D01*
X124375324Y-83098633D01*
X124308300Y-83348769D01*
X124308299Y-83348776D01*
X124274500Y-83605517D01*
X105900000Y-83605517D01*
X105900000Y-81899996D01*
X122520255Y-81899996D01*
X122520255Y-81900003D01*
X122540349Y-82052637D01*
X122599263Y-82194868D01*
X122599267Y-82194875D01*
X122638921Y-82246553D01*
X122692987Y-82317013D01*
X122692990Y-82317015D01*
X122815124Y-82410732D01*
X122815131Y-82410736D01*
X122957362Y-82469650D01*
X123109997Y-82489745D01*
X123110000Y-82489745D01*
X123110003Y-82489745D01*
X123262637Y-82469650D01*
X123404868Y-82410736D01*
X123404867Y-82410736D01*
X123404873Y-82410734D01*
X123527013Y-82317013D01*
X123620734Y-82194873D01*
X123679650Y-82052637D01*
X123699745Y-81900003D01*
X123699745Y-81899996D01*
X123679650Y-81747363D01*
X123620734Y-81605128D01*
X123527013Y-81482987D01*
X123404870Y-81389264D01*
X123404868Y-81389263D01*
X123262637Y-81330349D01*
X123110003Y-81310255D01*
X123109997Y-81310255D01*
X122957363Y-81330349D01*
X122815128Y-81389265D01*
X122692987Y-81482987D01*
X122599265Y-81605128D01*
X122540349Y-81747363D01*
X122520255Y-81899996D01*
X105900000Y-81899996D01*
X105900000Y-77199996D01*
X130210255Y-77199996D01*
X130210255Y-77200003D01*
X130230349Y-77352637D01*
X130289263Y-77494868D01*
X130289267Y-77494875D01*
X130372230Y-77602995D01*
X130382987Y-77617013D01*
X130382990Y-77617015D01*
X130505124Y-77710732D01*
X130505131Y-77710736D01*
X130647362Y-77769650D01*
X130799997Y-77789745D01*
X130800000Y-77789745D01*
X130800003Y-77789745D01*
X130952637Y-77769650D01*
X131094868Y-77710736D01*
X131094867Y-77710736D01*
X131094873Y-77710734D01*
X131217013Y-77617013D01*
X131310734Y-77494873D01*
X131369650Y-77352637D01*
X131389745Y-77200000D01*
X131389745Y-77199996D01*
X131369650Y-77047363D01*
X131335507Y-76964936D01*
X148846300Y-76964936D01*
X148846300Y-79005063D01*
X148858118Y-79064479D01*
X148858119Y-79064480D01*
X148903140Y-79131860D01*
X148970520Y-79176881D01*
X149029936Y-79188700D01*
X149029937Y-79188700D01*
X151070063Y-79188700D01*
X151070064Y-79188700D01*
X151129480Y-79176881D01*
X151196860Y-79131860D01*
X151241881Y-79064480D01*
X151253700Y-79005064D01*
X151253700Y-76964936D01*
X151241881Y-76905520D01*
X151196860Y-76838140D01*
X151129480Y-76793119D01*
X151129479Y-76793118D01*
X151078545Y-76782987D01*
X151070064Y-76781300D01*
X149029936Y-76781300D01*
X149021455Y-76782987D01*
X148970520Y-76793118D01*
X148903140Y-76838140D01*
X148858118Y-76905520D01*
X148846300Y-76964936D01*
X131335507Y-76964936D01*
X131310734Y-76905128D01*
X131217013Y-76782987D01*
X131094870Y-76689264D01*
X131094868Y-76689263D01*
X130952637Y-76630349D01*
X130800003Y-76610255D01*
X130799997Y-76610255D01*
X130647363Y-76630349D01*
X130505128Y-76689265D01*
X130382987Y-76782987D01*
X130289265Y-76905128D01*
X130230349Y-77047363D01*
X130210255Y-77199996D01*
X105900000Y-77199996D01*
X105900000Y-76100000D01*
X115136271Y-76100000D01*
X115157080Y-76244733D01*
X115217822Y-76377740D01*
X115217823Y-76377741D01*
X115217824Y-76377743D01*
X115313579Y-76488250D01*
X115436589Y-76567304D01*
X115576889Y-76608500D01*
X115723111Y-76608500D01*
X115863411Y-76567304D01*
X115986421Y-76488250D01*
X116082176Y-76377743D01*
X116142919Y-76244734D01*
X116163729Y-76100000D01*
X116142919Y-75955266D01*
X116134191Y-75936155D01*
X116082177Y-75822259D01*
X116082176Y-75822258D01*
X116082176Y-75822257D01*
X115986421Y-75711750D01*
X115894849Y-75652900D01*
X115863410Y-75632695D01*
X115723111Y-75591500D01*
X115576889Y-75591500D01*
X115436590Y-75632695D01*
X115436589Y-75632695D01*
X115313577Y-75711751D01*
X115217822Y-75822259D01*
X115157080Y-75955266D01*
X115136271Y-76100000D01*
X105900000Y-76100000D01*
X105900000Y-72529936D01*
X126296300Y-72529936D01*
X126296300Y-73570063D01*
X126308118Y-73629479D01*
X126321827Y-73649996D01*
X126353140Y-73696860D01*
X126420520Y-73741881D01*
X126479936Y-73753700D01*
X126479937Y-73753700D01*
X127520063Y-73753700D01*
X127520064Y-73753700D01*
X127579480Y-73741881D01*
X127646860Y-73696860D01*
X127691420Y-73630170D01*
X127740246Y-73591678D01*
X127802373Y-73589237D01*
X127841776Y-73610760D01*
X127867314Y-73633385D01*
X127867315Y-73633386D01*
X127867317Y-73633387D01*
X128018628Y-73712801D01*
X128018629Y-73712801D01*
X128018632Y-73712803D01*
X128184555Y-73753700D01*
X128184559Y-73753700D01*
X128355441Y-73753700D01*
X128355445Y-73753700D01*
X128521368Y-73712803D01*
X128672683Y-73633387D01*
X128800595Y-73520066D01*
X128897671Y-73379427D01*
X128958270Y-73219643D01*
X128978868Y-73050000D01*
X130101132Y-73050000D01*
X130121730Y-73219643D01*
X130182329Y-73379427D01*
X130182329Y-73379428D01*
X130279404Y-73520065D01*
X130279408Y-73520069D01*
X130407314Y-73633385D01*
X130407315Y-73633386D01*
X130407317Y-73633387D01*
X130558628Y-73712801D01*
X130558629Y-73712801D01*
X130558632Y-73712803D01*
X130724555Y-73753700D01*
X130724559Y-73753700D01*
X130895441Y-73753700D01*
X130895445Y-73753700D01*
X131061368Y-73712803D01*
X131181037Y-73649996D01*
X146810255Y-73649996D01*
X146810255Y-73650003D01*
X146830349Y-73802637D01*
X146889263Y-73944868D01*
X146889267Y-73944875D01*
X146972230Y-74052995D01*
X146982987Y-74067013D01*
X146982990Y-74067015D01*
X147105124Y-74160732D01*
X147105131Y-74160736D01*
X147247362Y-74219650D01*
X147399997Y-74239745D01*
X147400000Y-74239745D01*
X147400003Y-74239745D01*
X147552637Y-74219650D01*
X147694868Y-74160736D01*
X147694867Y-74160736D01*
X147694873Y-74160734D01*
X147817013Y-74067013D01*
X147910734Y-73944873D01*
X147969650Y-73802637D01*
X147989745Y-73650000D01*
X147989745Y-73649996D01*
X147969650Y-73497363D01*
X147910734Y-73355128D01*
X147817013Y-73232987D01*
X147694870Y-73139264D01*
X147694868Y-73139263D01*
X147552637Y-73080349D01*
X147400003Y-73060255D01*
X147399997Y-73060255D01*
X147247363Y-73080349D01*
X147105128Y-73139265D01*
X146982987Y-73232987D01*
X146889265Y-73355128D01*
X146830349Y-73497363D01*
X146810255Y-73649996D01*
X131181037Y-73649996D01*
X131212683Y-73633387D01*
X131340595Y-73520066D01*
X131437671Y-73379427D01*
X131498270Y-73219643D01*
X131518868Y-73050000D01*
X131498270Y-72880357D01*
X131437671Y-72720573D01*
X131340595Y-72579934D01*
X131340591Y-72579930D01*
X131212685Y-72466614D01*
X131212684Y-72466613D01*
X131061370Y-72387198D01*
X131061372Y-72387198D01*
X130895445Y-72346300D01*
X130724555Y-72346300D01*
X130724554Y-72346300D01*
X130558628Y-72387198D01*
X130407315Y-72466613D01*
X130407314Y-72466614D01*
X130279408Y-72579930D01*
X130279404Y-72579934D01*
X130182329Y-72720571D01*
X130182329Y-72720572D01*
X130182329Y-72720573D01*
X130121730Y-72880357D01*
X130101132Y-73050000D01*
X128978868Y-73050000D01*
X128958270Y-72880357D01*
X128897671Y-72720573D01*
X128800595Y-72579934D01*
X128800591Y-72579930D01*
X128672685Y-72466614D01*
X128672684Y-72466613D01*
X128521370Y-72387198D01*
X128521372Y-72387198D01*
X128355445Y-72346300D01*
X128184555Y-72346300D01*
X128184554Y-72346300D01*
X128018628Y-72387198D01*
X127867315Y-72466613D01*
X127867314Y-72466614D01*
X127841775Y-72489240D01*
X127784774Y-72514070D01*
X127724064Y-72500652D01*
X127691420Y-72469830D01*
X127689270Y-72466613D01*
X127646860Y-72403140D01*
X127579480Y-72358119D01*
X127579479Y-72358118D01*
X127531882Y-72348650D01*
X127520064Y-72346300D01*
X126479936Y-72346300D01*
X126470078Y-72348260D01*
X126420520Y-72358118D01*
X126353140Y-72403140D01*
X126308118Y-72470520D01*
X126296300Y-72529936D01*
X105900000Y-72529936D01*
X105900000Y-71753500D01*
X105919213Y-71694369D01*
X105969513Y-71657824D01*
X106000600Y-71652900D01*
X173246500Y-71652900D01*
X173305631Y-71672113D01*
G37*
G04 #@! TD.AperFunction*
D18*
X171500000Y-83500000D02*
G75*
G02*
X155500000Y-83500000I-8000000J0D01*
G01*
X155500000Y-83500000D02*
G75*
G02*
X171500000Y-83500000I8000000J0D01*
G01*
X99500000Y-71500000D02*
X173500000Y-71500000D01*
X173500000Y-96000000D01*
X99500000Y-96000000D01*
X99500000Y-71500000D01*
M02*
